<svg width="400" height="400" viewBox="0 0 400 400" fill="none" xmlns="http://www.w3.org/2000/svg">
<circle cx="200" cy="200" r="198" fill="#EEEEFF"/>
<path fill-rule="evenodd" clip-rule="evenodd" d="M285.894 284.071C284.037 284.071 282.519 282.553 282.519 280.696C282.519 278.84 284.037 277.321 285.894 277.321C287.75 277.321 289.269 278.84 289.269 280.696C289.269 282.553 287.75 284.071 285.894 284.071Z" fill="white"/>
<path fill-rule="evenodd" clip-rule="evenodd" d="M83.4612 186.027C81.605 186.027 80.0862 184.509 80.0862 182.652C80.0862 180.796 81.605 179.277 83.4612 179.277C85.3175 179.277 86.8362 180.796 86.8362 182.652C86.8362 184.509 85.3175 186.027 83.4612 186.027Z" fill="white"/>
<path fill-rule="evenodd" clip-rule="evenodd" d="M171.549 103.948C169.693 103.948 168.174 102.429 168.174 100.573C168.174 98.7163 169.693 97.1975 171.549 97.1975C173.405 97.1975 174.924 98.7163 174.924 100.573C174.924 102.429 173.405 103.948 171.549 103.948Z" fill="white"/>
<path d="M117.92 243.436C119.371 245.023 119.27 247.453 117.684 248.904C112.25 253.899 104.96 254.608 96.455 251.368C94.4638 250.591 93.4513 248.364 94.2275 246.373C95.0038 244.381 97.2313 243.369 99.2225 244.145C105.196 246.44 109.381 246.001 112.453 243.2C114.039 241.749 116.469 241.85 117.92 243.436Z" fill="#E1000F"/>
<path d="M155.551 296.964C154.269 298.685 151.839 299.023 150.151 297.74C144.245 293.319 142.186 286.299 143.773 277.355C144.144 275.263 146.169 273.845 148.261 274.216C150.354 274.588 151.771 276.613 151.4 278.705C150.286 284.983 151.468 289.033 154.775 291.53C156.496 292.813 156.834 295.243 155.551 296.93V296.964Z" fill="#E1000F"/>
<path fill-rule="evenodd" clip-rule="evenodd" d="M161.829 228.147C158.521 224.469 155.585 220.554 153.56 216.639C153.324 216.2 153.256 215.39 153.965 214.479C154.302 214.04 154.64 213.601 154.977 213.162C155.585 212.656 156.057 212.049 156.395 211.306C166.182 198.582 179.514 181.674 192.17 166.587C199.055 158.386 211.542 146.81 217.314 140.701C223.152 134.457 227.776 130.137 230.679 128.214C239.319 122.442 254.27 114.41 268.411 109.179C275.499 106.58 282.148 104.757 287.548 104.184C293.251 103.61 296.289 104.521 297.605 105.736C298.786 106.816 299.934 109.584 299.562 115.287C299.191 120.721 297.504 127.505 294.837 134.795C289.471 149.442 280.662 164.967 272.731 173.979C266.757 180.796 246.44 197.064 230.037 210.057C213.77 222.95 196.051 236.18 183.867 244.719C182.889 245.394 181.741 245.36 180.965 244.786C177.354 242.255 173.169 238.981 169.051 235.269L161.862 228.08L161.829 228.147ZM149.274 203.881C157.947 192.609 169.186 178.366 180.29 165.001H171.211C162.402 165.001 153.29 168.95 144.616 175.025C136.01 181.066 128.281 188.964 122.409 196.119C121.767 196.895 121.767 197.637 122.071 198.346C122.409 199.089 123.151 199.764 124.332 199.865L149.274 203.881ZM188.829 154.809C194.195 148.531 194.566 150.016 199.19 145.055C205.029 138.845 221.026 122.442 224.975 119.776C234.256 113.566 249.882 105.162 264.834 99.6612C272.292 96.8937 279.853 94.7675 286.468 94.0925C292.813 93.4512 299.697 93.9912 304.389 98.21C309.215 102.564 310.092 109.55 309.654 115.996C309.181 122.746 307.156 130.542 304.321 138.305C298.651 153.83 289.235 170.536 280.325 180.729C274.925 186.905 258.05 200.472 245.461 210.732C245.461 210.8 245.461 210.867 245.461 210.935L245.191 226.932C244.854 238.677 240.601 252.177 233.649 261.526C226.629 270.909 217.752 279.076 209.922 285.117C201.519 291.631 190.55 285.354 189.875 275.769L185.217 255.08C181.977 255.856 178.467 255.35 175.497 253.426L167.431 260.952C162.2 265.812 154.066 265.677 149.037 260.615L136.28 247.79C131.049 242.525 131.184 233.986 136.55 228.856L144.515 221.33C143.199 218.765 142.962 216.031 143.469 213.5L123.32 209.956C113.735 209.011 107.761 197.874 114.511 189.639C120.789 182.011 129.159 173.405 138.744 166.655C148.261 159.972 159.432 154.809 171.177 154.809H188.795H188.829ZM195.005 249.309C206.547 241.04 221.262 229.97 235.066 219.069V226.662C234.796 235.437 231.826 246.946 225.481 255.417C219.17 263.855 211.036 271.381 203.712 277.051C202.936 277.659 202.16 277.659 201.485 277.321C200.776 276.95 200.101 276.174 200.034 274.992L195.005 249.275V249.309ZM143.57 236.247L150.151 230.004C155.18 236.517 161.491 242.491 167.262 247.216L160.512 253.527C159.297 254.641 157.441 254.607 156.26 253.46L143.502 240.635C142.287 239.42 142.321 237.462 143.57 236.281V236.247ZM254.169 138.912C248.397 138.912 243.74 143.57 243.74 149.341C243.74 155.112 248.397 159.77 254.169 159.77C259.94 159.77 264.597 155.112 264.597 149.341C264.597 143.57 259.94 138.912 254.169 138.912ZM233.547 149.341C233.547 137.967 242.761 128.754 254.135 128.754C265.509 128.754 274.722 137.967 274.722 149.341C274.722 160.715 265.509 169.929 254.135 169.929C242.761 169.929 233.547 160.715 233.547 149.341Z" fill="#000091"/>
<path fill-rule="evenodd" clip-rule="evenodd" d="M135.605 258.792C125.716 252.717 106.108 258.117 99.83 271.212C96.8263 277.49 94.295 286.872 93.7213 293.724C93.3838 297.875 93.6875 300.879 95.1388 302.904C97.7713 306.549 101.686 305.503 105.129 301.959L105.736 301.351C108.706 298.415 110.934 297.47 115.591 296.39L117.684 295.884C122.105 294.77 125.109 293.386 128.754 290.416C142.895 276.815 135.605 258.792 135.605 258.792ZM129.598 264.294C121.194 261.695 110.293 266.116 106.344 274.351C103.711 279.852 101.416 288.357 100.944 294.331L100.876 295.513V296.019L101.484 295.445C104.994 292.239 108.065 290.821 112.925 289.606L115.018 289.1C119.034 288.155 121.261 287.21 124.164 284.814C129.665 280.291 131.825 272.968 130.509 268.108L129.598 264.26V264.294Z" fill="#E1000F"/>
</svg>
