<svg width="400" height="400" viewBox="0 0 400 400" fill="none" xmlns="http://www.w3.org/2000/svg">
<circle cx="200" cy="200" r="198" fill="#EEEEFF"/>
<circle cx="200" cy="198" r="127" fill="white" fill-opacity="0.4"/>
<path d="M339.328 240.27C339.81 238.163 341.911 236.845 344.021 237.325C346.131 237.806 347.452 239.904 346.97 242.011C341.699 265.084 330.151 286.157 313.733 303.064C312.226 304.615 309.745 304.653 308.191 303.149C306.637 301.644 306.599 299.167 308.106 297.615C323.532 281.73 334.378 261.938 339.328 240.27Z" fill="#E1000F"/>
<path d="M346.289 221C344.124 221 342.37 222.752 342.37 224.913C342.37 227.074 344.124 228.826 346.289 228.826C348.453 228.826 350.208 227.074 350.208 224.913C350.208 222.752 348.453 221 346.289 221Z" fill="#E1000F"/>
<path d="M79.91 255.721C48.3056 189.119 76.6747 109.508 143.274 77.9033C185.587 57.8242 234.549 61.5109 273.143 86.4944C275.277 87.8758 275.887 90.7256 274.506 92.8596C273.125 94.9935 270.275 95.6036 268.141 94.2222C232.199 70.9555 186.62 67.5235 147.221 86.2201C85.2143 115.645 58.8017 189.766 88.2265 251.774C117.651 313.782 191.771 340.197 253.777 310.772C315.784 281.348 342.196 207.227 312.771 145.218C311.682 142.922 312.66 140.176 314.956 139.087C317.253 137.997 319.998 138.975 321.088 141.272C352.692 207.873 324.323 287.485 257.724 319.089C191.124 350.693 111.514 322.322 79.91 255.721Z" fill="#000091"/>
<path fill-rule="evenodd" clip-rule="evenodd" d="M114.514 185.474C110.621 184.177 110.583 182.081 114.588 180.746L256.946 133.296C260.891 131.983 263.151 134.191 262.047 138.054L221.369 280.404C220.251 284.349 217.976 284.484 216.305 280.74L189.5 220.417L234.25 160.75L174.583 205.5L114.514 185.474Z" fill="#000091"/>
<path fill-rule="evenodd" clip-rule="evenodd" d="M58.4207 285.841C55.7683 285.841 54 284.073 54 281.421C54 278.768 55.7683 277 58.4207 277C61.0732 277 62.8415 278.768 62.8415 281.421C62.8415 284.073 61.0732 285.841 58.4207 285.841Z" fill="white"/>
<path fill-rule="evenodd" clip-rule="evenodd" d="M349.421 123.841C346.768 123.841 345 122.073 345 119.421C345 116.768 346.768 115 349.421 115C352.073 115 353.841 116.768 353.841 119.421C353.841 122.073 352.073 123.841 349.421 123.841Z" fill="white"/>
<path fill-rule="evenodd" clip-rule="evenodd" d="M143.421 123.841C140.768 123.841 139 122.073 139 119.421C139 116.768 140.768 115 143.421 115C146.073 115 147.841 116.768 147.841 119.421C147.841 122.073 146.073 123.841 143.421 123.841Z" fill="white"/>
<path fill-rule="evenodd" clip-rule="evenodd" d="M182.421 289.841C179.768 289.841 178 288.073 178 285.421C178 282.768 179.768 281 182.421 281C185.073 281 186.841 282.768 186.841 285.421C186.841 287.631 185.073 289.841 182.421 289.841Z" fill="white"/>
</svg>
