<svg width="57" height="56" viewBox="0 0 57 56" fill="none" xmlns="http://www.w3.org/2000/svg">
<path fill-rule="evenodd" clip-rule="evenodd" d="M51.6004 12.6C51.2144 12.6 50.9004 12.2859 50.9004 11.9C50.9004 11.5139 51.2144 11.2 51.6004 11.2C51.9864 11.2 52.3004 11.5139 52.3004 11.9C52.3004 12.2859 51.9864 12.6 51.6004 12.6Z" fill="#CACAFB"/>
<path fill-rule="evenodd" clip-rule="evenodd" d="M5.4002 12.6C5.01422 12.6 4.7002 12.2859 4.7002 11.9C4.7002 11.5139 5.01422 11.2 5.4002 11.2C5.78618 11.2 6.1002 11.5139 6.1002 11.9C6.1002 12.2859 5.78618 12.6 5.4002 12.6Z" fill="#CACAFB"/>
<path fill-rule="evenodd" clip-rule="evenodd" d="M8.2 47.5999C7.81402 47.5999 7.5 47.2859 7.5 46.9C7.5 46.5139 7.81402 46.2 8.2 46.2C8.58598 46.2 8.9 46.5139 8.9 46.9C8.9 47.2859 8.58598 47.5999 8.2 47.5999Z" fill="#CACAFB"/>
<path fill-rule="evenodd" clip-rule="evenodd" d="M45.9998 50.4C45.6138 50.4 45.2998 50.086 45.2998 49.7C45.2998 49.314 45.6138 49 45.9998 49C46.3858 49 46.6998 49.314 46.6998 49.7C46.6998 50.086 46.3858 50.4 45.9998 50.4Z" fill="#CACAFB"/>
<path fill-rule="evenodd" clip-rule="evenodd" d="M13.7996 4.20005C13.4136 4.20005 13.0996 3.88603 13.0996 3.50005C13.0996 3.11404 13.4136 2.80005 13.7996 2.80005C14.1856 2.80005 14.4996 3.11404 14.4996 3.50005C14.4996 3.88603 14.1856 4.20005 13.7996 4.20005Z" fill="#CACAFB"/>
<path fill-rule="evenodd" clip-rule="evenodd" d="M38.9998 54.5999C38.6138 54.5999 38.2998 54.2859 38.2998 53.9C38.2998 53.5139 38.6138 53.2 38.9998 53.2C39.3858 53.2 39.6998 53.5139 39.6998 53.9C39.6998 54.2859 39.3858 54.5999 38.9998 54.5999Z" fill="#CACAFB"/>
<path fill-rule="evenodd" clip-rule="evenodd" d="M11.7002 20.9999C11.7002 19.4553 12.9556 18.1999 14.5002 18.1999C16.0448 18.1999 17.3002 19.4553 17.3002 20.9999C17.3002 22.5444 16.0447 23.7999 14.5002 23.7999C12.9557 23.7999 11.7002 22.5444 11.7002 20.9999ZM15.9002 20.9999C15.9002 20.2285 15.2716 19.5999 14.5002 19.5999C13.7288 19.5999 13.1002 20.2285 13.1002 20.9999C13.1002 21.7712 13.7289 22.3999 14.5002 22.3999C15.2715 22.3999 15.9002 21.7712 15.9002 20.9999Z" fill="#E1000F"/>
<path fill-rule="evenodd" clip-rule="evenodd" d="M18.7002 18.1999C18.7002 16.6553 19.9556 15.3999 21.5002 15.3999C23.0448 15.3999 24.3002 16.6553 24.3002 18.1999C24.3002 19.7444 23.0447 20.9999 21.5002 20.9999C19.9557 20.9999 18.7002 19.7444 18.7002 18.1999ZM22.9002 18.1999C22.9002 17.4285 22.2716 16.7999 21.5002 16.7999C20.7288 16.7999 20.1002 17.4285 20.1002 18.1999C20.1002 18.9712 20.7289 19.5999 21.5002 19.5999C22.2715 19.5999 22.9002 18.9712 22.9002 18.1999Z" fill="#E1000F"/>
<path d="M19.0871 18.2738C19.4329 18.1009 19.8534 18.2411 20.0263 18.5869C20.1868 18.9079 20.0775 19.2934 19.7842 19.4853L19.7132 19.526L16.9132 20.926C16.5675 21.0989 16.147 20.9587 15.9741 20.613C15.8136 20.2919 15.9229 19.9064 16.2162 19.7145L16.2871 19.6738L19.0871 18.2738Z" fill="#E1000F"/>
<path d="M23.1052 19.1049C23.3576 18.8526 23.7546 18.8332 24.0292 19.0467L24.0952 19.1049L26.8952 21.9049C27.1685 22.1783 27.1685 22.6215 26.8952 22.8949C26.6428 23.1472 26.2458 23.1666 25.9712 22.9531L25.9052 22.8949L23.1052 20.0949C22.8319 19.8215 22.8319 19.3783 23.1052 19.1049Z" fill="#E1000F"/>
<path fill-rule="evenodd" clip-rule="evenodd" d="M35.5002 23.7999C35.5002 19.9393 38.6397 16.7999 42.5002 16.7999C46.3607 16.7999 49.5002 19.9393 49.5002 23.7999C49.5002 27.6603 46.3606 30.7999 42.5002 30.7999C38.6398 30.7999 35.5002 27.6603 35.5002 23.7999ZM48.1002 23.7999C48.1002 20.7125 45.5875 18.1999 42.5002 18.1999C39.4129 18.1999 36.9002 20.7125 36.9002 23.7999C36.9002 26.8871 39.413 29.3999 42.5002 29.3999C45.5874 29.3999 48.1002 26.8871 48.1002 23.7999Z" fill="#E1000F"/>
<path d="M42.5258 20.1121C42.6296 19.7397 43.0155 19.5219 43.388 19.6256C45.0256 20.0816 46.2812 21.366 46.6135 22.9587C46.6925 23.3371 46.4498 23.7079 46.0713 23.7869C45.6929 23.8659 45.322 23.6231 45.2431 23.2447C45.0201 22.1762 44.1567 21.2929 43.0124 20.9742C42.64 20.8705 42.4221 20.4846 42.5258 20.1121Z" fill="#E1000F"/>
<path d="M46.6751 28.0937C46.986 27.9142 47.3773 28.0003 47.5864 28.2816L47.6313 28.3499L51.8313 35.6245C52.4112 36.6289 52.067 37.9133 51.0626 38.4932C50.0941 39.0524 48.8653 38.7523 48.2588 37.8296L48.194 37.7245L43.994 30.4499C43.8007 30.1151 43.9154 29.687 44.2502 29.4937C44.5611 29.3142 44.9524 29.4003 45.1615 29.6816L45.2064 29.7499L49.4064 37.0245C49.5997 37.3593 50.0278 37.474 50.3626 37.2807C50.6735 37.1012 50.7946 36.7193 50.6556 36.3976L50.6188 36.3245L46.4188 29.0499C46.2255 28.7151 46.3403 28.287 46.6751 28.0937Z" fill="#E1000F"/>
<path d="M31.6871 21.0738C32.0329 20.9009 32.4534 21.0411 32.6263 21.3869C32.7868 21.7079 32.6775 22.0934 32.3842 22.2853L32.3132 22.326L30.9132 23.026C30.5675 23.1989 30.147 23.0587 29.9741 22.713C29.8136 22.3919 29.9229 22.0064 30.2162 21.8145L30.2871 21.7738L31.6871 21.0738Z" fill="#E1000F"/>
<path fill-rule="evenodd" clip-rule="evenodd" d="M25.7002 22.3999C25.7002 20.8553 26.9556 19.5999 28.5002 19.5999C30.0448 19.5999 31.3002 20.8553 31.3002 22.3999C31.3002 23.9444 30.0447 25.1999 28.5002 25.1999C26.9557 25.1999 25.7002 23.9444 25.7002 22.3999ZM29.9002 22.3999C29.9002 21.6285 29.2716 20.9999 28.5002 20.9999C27.7288 20.9999 27.1002 21.6285 27.1002 22.3999C27.1002 23.1712 27.7289 23.7999 28.5002 23.7999C29.2715 23.7999 29.9002 23.1712 29.9002 22.3999Z" fill="#E1000F"/>
<path d="M41.8 11.1999C42.159 11.1999 42.4549 11.4701 42.4953 11.8183L42.5 11.8999V13.2999C42.5 13.6865 42.1866 13.9999 41.8 13.9999C41.441 13.9999 41.1451 13.7297 41.1047 13.3815L41.1 13.2999V12.5999H8.9V37.7999H41.1V34.2999C41.1 33.9409 41.3702 33.645 41.7184 33.6046L41.8 33.5999C42.159 33.5999 42.4549 33.8701 42.4953 34.2183L42.5 34.2999V38.4999C42.5 38.8589 42.2298 39.1548 41.8816 39.1952L41.8 39.1999H8.2C7.84101 39.1999 7.54514 38.9297 7.50471 38.5815L7.5 38.4999V11.8999C7.5 11.5409 7.77023 11.245 8.11837 11.2046L8.2 11.1999H41.8Z" fill="#000091"/>
<path d="M27.8 12.5999C28.159 12.5999 28.4549 12.3297 28.4953 11.9815L28.5 11.8999V10.4999C28.5 9.38153 27.6258 8.46734 26.5234 8.40347L26.4 8.3999H23.6C22.4816 8.3999 21.5674 9.27415 21.5036 10.3765L21.5 10.4999V11.8999C21.5 12.2865 21.8134 12.5999 22.2 12.5999C22.559 12.5999 22.8549 12.3297 22.8953 11.9815L22.9 11.8999V10.4999C22.9 10.1409 23.1702 9.84505 23.5184 9.80461L23.6 9.7999H26.4C26.759 9.7999 27.0549 10.0701 27.0953 10.4183L27.1 10.4999V11.8999C27.1 12.2865 27.4134 12.5999 27.8 12.5999Z" fill="#000091"/>
<path d="M36.2 37.7999C36.559 37.7999 36.8549 38.0701 36.8953 38.4183L36.9 38.4999V39.8999C36.9 41.0183 36.0258 41.9325 34.9234 41.9963L34.8 41.9999H15.2C14.0816 41.9999 13.1674 41.1257 13.1036 40.0233L13.1 39.8999V38.4999C13.1 38.1133 13.4134 37.7999 13.8 37.7999C14.159 37.7999 14.4549 38.0701 14.4953 38.4183L14.5 38.4999V39.8999C14.5 40.2589 14.7702 40.5548 15.1184 40.5952L15.2 40.5999H34.8C35.159 40.5999 35.4549 40.3297 35.4953 39.9815L35.5 39.8999V38.4999C35.5 38.1133 35.8134 37.7999 36.2 37.7999Z" fill="#000091"/>
<path d="M26.96 40.8799C26.728 40.5706 26.2893 40.5079 25.98 40.7399C25.6945 40.954 25.6191 41.3443 25.7917 41.6464L25.84 41.7199L30.04 47.3199C30.272 47.6292 30.7107 47.6919 31.02 47.4599C31.3055 47.2458 31.3809 46.8555 31.2083 46.5534L31.16 46.4799L26.96 40.8799Z" fill="#000091"/>
<path d="M16.6 26.5999C16.959 26.5999 17.2549 26.8701 17.2953 27.2183L17.3 27.2999V28.6999C17.3 29.0865 16.9866 29.3999 16.6 29.3999C16.241 29.3999 15.9451 29.1297 15.9047 28.7815L15.9 28.6999V27.9999H13.1V33.5999H15.9V31.4999C15.9 31.1409 16.1702 30.845 16.5184 30.8046L16.6 30.7999C16.959 30.7999 17.2549 31.0701 17.2953 31.4183L17.3 31.4999V34.2999C17.3 34.6589 17.0298 34.9548 16.6816 34.9952L16.6 34.9999H12.4C12.041 34.9999 11.7451 34.7297 11.7047 34.3815L11.7 34.2999V27.2999C11.7 26.9409 11.9702 26.645 12.3184 26.6046L12.4 26.5999H16.6Z" fill="#000091"/>
<path d="M20.8 23.7999C21.1866 23.7999 21.5 24.1133 21.5 24.4999C21.5 24.8589 21.2298 25.1548 20.8816 25.1952L20.8 25.1999H20.1V33.5999H22.9V25.8999C22.9 25.5409 23.1702 25.245 23.5184 25.2046L23.6 25.1999C23.959 25.1999 24.2549 25.4701 24.2953 25.8183L24.3 25.8999V34.2999C24.3 34.6589 24.0298 34.9548 23.6816 34.9952L23.6 34.9999H19.4C19.041 34.9999 18.7451 34.7297 18.7047 34.3815L18.7 34.2999V24.4999C18.7 24.1409 18.9702 23.845 19.3184 23.8046L19.4 23.7999H20.8Z" fill="#000091"/>
<path d="M27.8 29.3999C28.1866 29.3999 28.5 29.7133 28.5 30.0999C28.5 30.4589 28.2298 30.7548 27.8816 30.7952L27.8 30.7999H27.1V33.5999H29.9V30.0999C29.9 29.7409 30.1702 29.445 30.5184 29.4046L30.6 29.3999C30.959 29.3999 31.2549 29.6701 31.2953 30.0183L31.3 30.0999V34.2999C31.3 34.6589 31.0298 34.9548 30.6816 34.9952L30.6 34.9999H26.4C26.041 34.9999 25.7451 34.7297 25.7047 34.3815L25.7 34.2999V30.0999C25.7 29.7409 25.9702 29.445 26.3184 29.4046L26.4 29.3999H27.8Z" fill="#000091"/>
<path d="M33.4 27.9999C33.759 27.9999 34.0549 28.2701 34.0953 28.6183L34.1 28.6999V33.5999H36.9V32.8999C36.9 32.5409 37.1702 32.245 37.5184 32.2046L37.6 32.1999C37.959 32.1999 38.2549 32.4701 38.2953 32.8183L38.3 32.8999V34.2999C38.3 34.6589 38.0298 34.9548 37.6816 34.9952L37.6 34.9999H33.4C33.041 34.9999 32.7451 34.7297 32.7047 34.3815L32.7 34.2999V28.6999C32.7 28.3133 33.0134 27.9999 33.4 27.9999Z" fill="#000091"/>
<path d="M23.04 40.8799C23.272 40.5706 23.7107 40.5079 24.02 40.7399C24.3055 40.954 24.3809 41.3443 24.2083 41.6464L24.16 41.7199L19.96 47.3199C19.728 47.6292 19.2893 47.6919 18.98 47.4599C18.6945 47.2458 18.6191 46.8555 18.7917 46.5534L18.84 46.4799L23.04 40.8799Z" fill="#000091"/>
</svg>
