<svg width="57" height="56" viewBox="0 0 57 56" fill="none" xmlns="http://www.w3.org/2000/svg">
<path fill-rule="evenodd" clip-rule="evenodd" d="M52.9998 43.4C52.6138 43.4 52.2998 43.086 52.2998 42.7C52.2998 42.314 52.6138 42 52.9998 42C53.3858 42 53.6998 42.314 53.6998 42.7C53.6998 43.086 53.3858 43.4 52.9998 43.4Z" fill="#CACAFB"/>
<path fill-rule="evenodd" clip-rule="evenodd" d="M38.9998 2.7999C38.6138 2.7999 38.2998 2.48588 38.2998 2.0999C38.2998 1.71389 38.6138 1.3999 38.9998 1.3999C39.3858 1.3999 39.6998 1.71389 39.6998 2.0999C39.6998 2.48588 39.3858 2.7999 38.9998 2.7999Z" fill="#CACAFB"/>
<path fill-rule="evenodd" clip-rule="evenodd" d="M2.60039 37.7999C2.21441 37.7999 1.90039 37.4859 1.90039 37.0999C1.90039 36.7139 2.21441 36.3999 2.60039 36.3999C2.98637 36.3999 3.30039 36.7139 3.30039 37.0999C3.30039 37.4859 2.98637 37.7999 2.60039 37.7999Z" fill="#CACAFB"/>
<path d="M29.9 11.2C30.2866 11.2 30.6 11.5134 30.6 11.9C30.6 12.2589 30.3298 12.5548 29.9816 12.5952L29.9 12.6H18.7C18.3134 12.6 18 12.2866 18 11.9C18 11.541 18.2702 11.2451 18.6184 11.2047L18.7 11.2H29.9Z" fill="#E1000F"/>
<path d="M36.9 15.4C37.2866 15.4 37.6 15.7134 37.6 16.1C37.6 16.4589 37.3298 16.7548 36.9816 16.7952L36.9 16.8H18.7C18.3134 16.8 18 16.4866 18 16.1C18 15.741 18.2702 15.4451 18.6184 15.4047L18.7 15.4H36.9Z" fill="#E1000F"/>
<path d="M33.4 20.3C33.4 19.9134 33.0866 19.6 32.7 19.6H18.7L18.6184 19.6047C18.2702 19.6451 18 19.941 18 20.3C18 20.6866 18.3134 21 18.7 21H32.7L32.7816 20.9952C33.1298 20.9548 33.4 20.6589 33.4 20.3Z" fill="#E1000F"/>
<path d="M36.8998 23.8C37.2864 23.8 37.5998 24.1134 37.5998 24.5C37.5998 24.859 37.3296 25.1549 36.9814 25.1953L36.8998 25.2H18.6998C18.3132 25.2 17.9998 24.8866 17.9998 24.5C17.9998 24.141 18.27 23.8451 18.6182 23.8047L18.6998 23.8H36.8998Z" fill="#000091"/>
<path d="M37.5998 32.9C37.5998 32.5134 37.2864 32.2 36.8998 32.2H18.6998L18.6182 32.2047C18.27 32.2451 17.9998 32.541 17.9998 32.9C17.9998 33.2866 18.3132 33.6 18.6998 33.6H36.8998L36.9814 33.5953C37.3296 33.5549 37.5998 33.259 37.5998 32.9Z" fill="#000091"/>
<path d="M33.3998 28.7C33.3998 28.3134 33.0864 28 32.6998 28H18.6998L18.6182 28.0047C18.27 28.0451 17.9998 28.341 17.9998 28.7C17.9998 29.0866 18.3132 29.4 18.6998 29.4H32.6998L32.7814 29.3953C33.1296 29.3549 33.3998 29.059 33.3998 28.7Z" fill="#000091"/>
<path d="M32.6998 40.6C33.0864 40.6 33.3998 40.9134 33.3998 41.3C33.3998 41.659 33.1296 41.9549 32.7814 41.9953L32.6998 42H18.6998C18.3132 42 17.9998 41.6866 17.9998 41.3C17.9998 40.941 18.27 40.6451 18.6182 40.6047L18.6998 40.6H32.6998Z" fill="#000091"/>
<path d="M29.1998 37.1C29.1998 36.7134 28.8864 36.4 28.4998 36.4H18.6998L18.6182 36.4047C18.27 36.4451 17.9998 36.741 17.9998 37.1C17.9998 37.4866 18.3132 37.8 18.6998 37.8H28.4998L28.5814 37.7953C28.9296 37.7549 29.1998 37.459 29.1998 37.1Z" fill="#000091"/>
<path fill-rule="evenodd" clip-rule="evenodd" d="M14.4998 7H41.0998C41.4864 7 41.7998 7.3134 41.7998 7.7V45.5C41.7998 45.8866 41.4864 46.2 41.0998 46.2H14.4998C14.1132 46.2 13.7998 45.8866 13.7998 45.5V7.7C13.7998 7.3134 14.1132 7 14.4998 7ZM40.3998 44.8V8.4H15.1998V44.8H40.3998Z" fill="#000091"/>
<path d="M43.8998 12.6C44.2588 12.6 44.5547 12.8702 44.5951 13.2184L44.5998 13.3V48.3C44.5998 48.659 44.3296 48.9549 43.9814 48.9953L43.8998 49H20.0998C19.7132 49 19.3998 48.6866 19.3998 48.3C19.3998 47.941 19.67 47.6451 20.0182 47.6047L20.0998 47.6H43.1998V13.3C43.1998 12.941 43.47 12.6451 43.8182 12.6047L43.8998 12.6Z" fill="#000091"/>
</svg>
