<svg width="32" height="28" viewBox="0 0 32 28" fill="none" xmlns="http://www.w3.org/2000/svg">
<path d="M3.00318 13.3011C3.04312 12.8392 3.45444 12.5 3.92857 12.5H5.5L5.55831 12.5034C5.80698 12.5322 6 12.7436 6 13L5.99664 13.0583C5.96775 13.307 5.75642 13.5 5.5 13.5H4V15.5H5.5L5.55831 15.5034C5.80698 15.5322 6 15.7436 6 16C6 16.2761 5.77614 16.5 5.5 16.5H3.92857L3.85428 16.4972C3.38761 16.4621 3 16.0992 3 15.625V13.375L3.00318 13.3011Z" fill="#E1000F"/>
<path d="M9.99682 13.3011C9.95688 12.8392 9.54556 12.5 9.07143 12.5H7.5L7.44169 12.5034C7.19302 12.5322 7 12.7436 7 13L7.00336 13.0583C7.03225 13.307 7.24358 13.5 7.5 13.5H9V15.5H7.5L7.44169 15.5034C7.19302 15.5322 7 15.7436 7 16C7 16.2761 7.22386 16.5 7.5 16.5H9.07143L9.14572 16.4972C9.61239 16.4621 10 16.0992 10 15.625V13.375L9.99682 13.3011Z" fill="#E1000F"/>
<path d="M28.0714 12.5C28.5456 12.5 28.9569 12.8392 28.9968 13.3011L29 13.375V15.625C29 16.0992 28.6124 16.4621 28.1457 16.4972L28.0714 16.5H26.5C26.2239 16.5 26 16.2761 26 16C26 15.7436 26.193 15.5322 26.4417 15.5034L26.5 15.5H28V13.5H26.5C26.2436 13.5 26.0322 13.307 26.0034 13.0583L26 13C26 12.7436 26.193 12.5322 26.4417 12.5034L26.5 12.5H28.0714Z" fill="#E1000F"/>
<path d="M22.0032 13.3011C22.0431 12.8392 22.4544 12.5 22.9286 12.5H24.5L24.5583 12.5034C24.807 12.5322 25 12.7436 25 13L24.9966 13.0583C24.9678 13.307 24.7564 13.5 24.5 13.5H23V15.5H24.5L24.5583 15.5034C24.807 15.5322 25 15.7436 25 16C25 16.2761 24.7761 16.5 24.5 16.5H22.9286L22.8543 16.4972C22.3876 16.4621 22 16.0992 22 15.625V13.375L22.0032 13.3011Z" fill="#E1000F"/>
<path fill-rule="evenodd" clip-rule="evenodd" d="M3 18.5C2.44772 18.5 2 18.9477 2 19.5V22.5C2 23.0523 2.44772 23.5 3 23.5H5C5.55228 23.5 6 23.0523 6 22.5V19.5C6 18.9477 5.55228 18.5 5 18.5H3ZM5 22.5V19.5H3V22.5H5Z" fill="#E1000F"/>
<path fill-rule="evenodd" clip-rule="evenodd" d="M8 18.5C7.44772 18.5 7 18.9477 7 19.5V22.5C7 23.0523 7.44772 23.5 8 23.5H10C10.5523 23.5 11 23.0523 11 22.5V19.5C11 18.9477 10.5523 18.5 10 18.5H8ZM10 22.5V19.5H8V22.5H10Z" fill="#E1000F"/>
<path fill-rule="evenodd" clip-rule="evenodd" d="M22 18.5C21.4477 18.5 21 18.9477 21 19.5V22.5C21 23.0523 21.4477 23.5 22 23.5H24C24.5523 23.5 25 23.0523 25 22.5V19.5C25 18.9477 24.5523 18.5 24 18.5H22ZM24 22.5V19.5H22V22.5H24Z" fill="#E1000F"/>
<path fill-rule="evenodd" clip-rule="evenodd" d="M27 18.5C26.4477 18.5 26 18.9477 26 19.5V22.5C26 23.0523 26.4477 23.5 27 23.5H29C29.5523 23.5 30 23.0523 30 22.5V19.5C30 18.9477 29.5523 18.5 29 18.5H27ZM29 22.5V19.5H27V22.5H29Z" fill="#E1000F"/>
<path d="M13.8536 0.646447C13.6583 0.451184 13.3417 0.451184 13.1464 0.646447L6.14645 7.64645L6.10485 7.69355C5.95234 7.8897 5.9662 8.17331 6.14645 8.35355C6.34171 8.54882 6.65829 8.54882 6.85355 8.35355L13.8536 1.35355L13.8951 1.30645C14.0477 1.1103 14.0338 0.826689 13.8536 0.646447Z" fill="#000091"/>
<path d="M16.2924 1.59438C16.1009 1.45596 15.8338 1.4698 15.6573 1.6359L10.3091 6.66954L10.2661 6.71536C10.1077 6.9068 10.113 7.1907 10.2877 7.37632L10.3335 7.41932C10.5249 7.57771 10.8088 7.57244 10.9944 7.39774L15.9995 2.6865L24.0129 10.2282L24.0769 10.2835C24.253 10.4232 24.4719 10.5 24.6983 10.5H29.5L29.5583 10.4966C29.807 10.4678 30 10.2564 30 10C30 9.72386 29.7761 9.5 29.5 9.5H24.6983L16.3427 1.6359L16.2924 1.59438Z" fill="#000091"/>
<path d="M31.5 9.5C31.2436 9.5 31.0322 9.69302 31.0034 9.94169L31 10V26.5H26.5C26.2436 26.5 26.0322 26.693 26.0034 26.9417L26 27C26 27.2564 26.193 27.4678 26.4417 27.4966L26.5 27.5H31.5C31.7564 27.5 31.9678 27.307 31.9966 27.0583L32 27V10C32 9.72386 31.7761 9.5 31.5 9.5Z" fill="#000091"/>
<path d="M6.5 26.5C6.77614 26.5 7 26.7239 7 27C7 27.2564 6.80698 27.4678 6.55831 27.4966L6.5 27.5H2.5C2.22386 27.5 2 27.2761 2 27C2 26.7436 2.19302 26.5322 2.44169 26.5034L2.5 26.5H6.5Z" fill="#000091"/>
<path d="M1 27C1 27.2761 0.776142 27.5 0.5 27.5C0.223858 27.5 0 27.2761 0 27C0 26.7239 0.223858 26.5 0.5 26.5C0.776142 26.5 1 26.7239 1 27Z" fill="#000091"/>
<path fill-rule="evenodd" clip-rule="evenodd" d="M22 25C22 24.7239 21.7761 24.5 21.5 24.5H20V17L19.9966 16.9417C19.9678 16.693 19.7564 16.5 19.5 16.5H12.5L12.4417 16.5034C12.193 16.5322 12 16.7436 12 17V24.5H10.5L10.4417 24.5034C10.193 24.5322 10 24.7436 10 25C10 25.2761 10.2239 25.5 10.5 25.5H21.5L21.5583 25.4966C21.807 25.4678 22 25.2564 22 25ZM16.5 20V24.5H19V17.4995H13V24.5H15.5V20C15.5 19.7239 15.7239 19.5 16 19.5C16.2564 19.5 16.4678 19.693 16.4966 19.9417L16.5 20Z" fill="#000091"/>
<path d="M16.5 9.5C16.7761 9.5 17 9.72386 17 10C17 10.2564 16.807 10.4678 16.5583 10.4966L16.5 10.5H15.5C15.2436 10.5 15.0322 10.307 15.0034 10.0583C15.0011 10.0392 15 10.0197 15 10V9C15 8.72386 15.2239 8.5 15.5 8.5C15.7564 8.5 15.9678 8.69302 15.9966 8.94169L16 9V9.5H16.5Z" fill="#000091"/>
<path fill-rule="evenodd" clip-rule="evenodd" d="M13 9.5C13 7.84315 14.3431 6.5 16 6.5C17.6569 6.5 19 7.84315 19 9.5C19 11.1569 17.6569 12.5 16 12.5C14.3431 12.5 13 11.1569 13 9.5ZM16 7.5C17.1046 7.5 18 8.39543 18 9.5C18 10.6046 17.1046 11.5 16 11.5C14.8954 11.5 14 10.6046 14 9.5C14 8.39543 14.8954 7.5 16 7.5Z" fill="#000091"/>
<path d="M19 15C19 14.7239 18.7761 14.5 18.5 14.5H13.5L13.4417 14.5034C13.193 14.5322 13 14.7436 13 15C13 15.2761 13.2239 15.5 13.5 15.5H18.5L18.5583 15.4966C18.807 15.4678 19 15.2564 19 15Z" fill="#000091"/>
<path d="M24 27C24 26.7239 23.7761 26.5 23.5 26.5H8.5L8.44169 26.5034C8.19302 26.5322 8 26.7436 8 27C8 27.2761 8.22386 27.5 8.5 27.5H23.5L23.5583 27.4966C23.807 27.4678 24 27.2564 24 27Z" fill="#000091"/>
<path d="M8.14645 8.64645C8.34171 8.45118 8.65829 8.45118 8.85355 8.64645C9.0338 8.82669 9.04766 9.1103 8.89515 9.30645L8.85355 9.35355L7.85355 10.3536C7.77541 10.4317 7.67407 10.4813 7.56572 10.4957L7.5 10.5H1V25C1 25.2564 0.80698 25.4678 0.558311 25.4966L0.5 25.5C0.243582 25.5 0.0322464 25.307 0.00336387 25.0583L0 25V10C0 9.74358 0.19302 9.53225 0.441689 9.50336L0.5 9.5H7.292L8.14645 8.64645Z" fill="#000091"/>
<path d="M29.5 7.5C29.7761 7.5 30 7.72386 30 8C30 8.25642 29.807 8.46775 29.5583 8.49664L29.5 8.5H25.5C25.2239 8.5 25 8.27614 25 8C25 7.74358 25.193 7.53225 25.4417 7.50336L25.5 7.5H29.5Z" fill="#000091"/>
<path d="M31.5 8.5C31.7761 8.5 32 8.27614 32 8C32 7.72386 31.7761 7.5 31.5 7.5C31.2239 7.5 31 7.72386 31 8C31 8.27614 31.2239 8.5 31.5 8.5Z" fill="#000091"/>
</svg>
