<svg width="56" height="56" viewBox="0 0 56 56" fill="none" xmlns="http://www.w3.org/2000/svg">
<path fill-rule="evenodd" clip-rule="evenodd" d="M51.1 12.6C50.714 12.6 50.4 12.2859 50.4 11.9C50.4 11.5139 50.714 11.2 51.1 11.2C51.486 11.2 51.8 11.5139 51.8 11.9C51.8 12.2859 51.486 12.6 51.1 12.6Z" fill="#ECECFE"/>
<path fill-rule="evenodd" clip-rule="evenodd" d="M4.9 12.6C4.51402 12.6 4.2 12.2859 4.2 11.9C4.2 11.5139 4.51402 11.2 4.9 11.2C5.28598 11.2 5.6 11.5139 5.6 11.9C5.6 12.2859 5.28598 12.6 4.9 12.6Z" fill="#ECECFE"/>
<path fill-rule="evenodd" clip-rule="evenodd" d="M7.7 47.6C7.31402 47.6 7 47.2859 7 46.9C7 46.514 7.31402 46.2 7.7 46.2C8.08598 46.2 8.4 46.514 8.4 46.9C8.4 47.2859 8.08598 47.6 7.7 47.6Z" fill="#ECECFE"/>
<path fill-rule="evenodd" clip-rule="evenodd" d="M13.3 4.20005C12.914 4.20005 12.6 3.88603 12.6 3.50005C12.6 3.11404 12.914 2.80005 13.3 2.80005C13.686 2.80005 14 3.11404 14 3.50005C14 3.88603 13.686 4.20005 13.3 4.20005Z" fill="#ECECFE"/>
<path fill-rule="evenodd" clip-rule="evenodd" d="M38.5 54.6C38.114 54.6 37.8 54.2859 37.8 53.9C37.8 53.514 38.114 53.2 38.5 53.2C38.886 53.2 39.2 53.514 39.2 53.9C39.2 54.2859 38.886 54.6 38.5 54.6Z" fill="#ECECFE"/>
<path d="M37.8256 28.5123C37.9294 28.1399 38.3153 27.9221 38.6877 28.0257C40.3255 28.4818 41.581 29.7661 41.9133 31.3588C41.9923 31.7372 41.7495 32.1081 41.3711 32.187C40.9927 32.266 40.6218 32.0232 40.5429 31.6448C40.3199 30.5763 39.4565 29.6931 38.3123 29.3744C37.9399 29.2707 37.722 28.8847 37.8256 28.5123Z" fill="#E1000F"/>
<path fill-rule="evenodd" clip-rule="evenodd" d="M30.8 32.2C30.8 28.3393 33.9395 25.2 37.8 25.2C41.6605 25.2 44.8 28.3393 44.8 32.2C44.8 33.9963 44.1203 35.6364 43.0044 36.8769L47.1311 44.0246C47.711 45.029 47.3669 46.3134 46.3624 46.8932C45.3939 47.4524 44.1651 47.1524 43.5586 46.2296L43.4938 46.1246L39.3907 39.0178C38.8795 39.137 38.347 39.2 37.8 39.2C33.9396 39.2 30.8 36.0603 30.8 32.2ZM40.7389 38.553L44.7062 45.4246C44.8995 45.7594 45.3277 45.874 45.6624 45.6808C45.9733 45.5014 46.0944 45.1193 45.9554 44.7976L45.9186 44.7246L41.9434 37.8392C41.5685 38.1152 41.1653 38.3549 40.7389 38.553ZM43.4 32.2C43.4 29.1125 40.8873 26.6 37.8 26.6C34.7127 26.6 32.2 29.1125 32.2 32.2C32.2 35.2872 34.7127 37.8 37.8 37.8C40.8873 37.8 43.4 35.2872 43.4 32.2Z" fill="#E1000F"/>
<path d="M48.2952 12.5184C48.2549 12.1703 47.959 11.9 47.6 11.9H9.8L9.71836 11.9047C9.37023 11.9452 9.1 12.241 9.1 12.6V44.8L9.1047 44.8816C9.14515 45.2298 9.44101 45.5 9.8 45.5H39.2L39.2816 45.4953C39.6298 45.4549 39.9 45.159 39.9 44.8L39.8952 44.7184C39.8549 44.3702 39.559 44.1 39.2 44.1H10.5V18.9H36.4L36.4816 18.8953C36.8298 18.8549 37.1 18.559 37.1 18.2C37.1 17.8135 36.7865 17.5 36.4 17.5H10.5V13.3H46.9V17.5H40.6L40.5184 17.5048C40.1702 17.5451 39.9 17.8411 39.9 18.2C39.9 18.5866 40.2135 18.9 40.6 18.9H46.9V39.2L46.9048 39.2816C46.9451 39.6298 47.241 39.9 47.6 39.9C47.9865 39.9 48.3 39.5866 48.3 39.2V12.6L48.2952 12.5184Z" fill="#000091"/>
<path d="M12.6 16.1C12.214 16.1 11.9 15.7859 11.9 15.4C11.9 15.014 12.214 14.7 12.6 14.7C12.986 14.7 13.3 15.014 13.3 15.4C13.3 15.7859 12.986 16.1 12.6 16.1Z" fill="#000091"/>
<path d="M14.7 15.4C14.7 15.7859 15.014 16.1 15.4 16.1C15.786 16.1 16.1 15.7859 16.1 15.4C16.1 15.014 15.786 14.7 15.4 14.7C15.014 14.7 14.7 15.014 14.7 15.4Z" fill="#000091"/>
<path d="M18.2 16.1C17.814 16.1 17.5 15.7859 17.5 15.4C17.5 15.014 17.814 14.7 18.2 14.7C18.586 14.7 18.9 15.014 18.9 15.4C18.9 15.7859 18.586 16.1 18.2 16.1Z" fill="#000091"/>
<path d="M44.8 14.7C45.1865 14.7 45.5 15.0134 45.5 15.4C45.5 15.7589 45.2298 16.0549 44.8816 16.0952L44.8 16.1H23.8C23.4135 16.1 23.1 15.7865 23.1 15.4C23.1 15.041 23.3702 14.745 23.7184 14.7047L23.8 14.7H44.8Z" fill="#000091"/>
<path d="M28.7 23.8C28.7 23.4134 28.3865 23.1 28 23.1H15.4L15.3184 23.1047C14.9702 23.1451 14.7 23.441 14.7 23.8C14.7 24.1865 15.0135 24.5 15.4 24.5H28L28.0816 24.4952C28.4298 24.4549 28.7 24.1589 28.7 23.8Z" fill="#000091"/>
<path d="M25.2 27.3C25.5865 27.3 25.9 27.6135 25.9 28C25.9 28.359 25.6298 28.655 25.2816 28.6953L25.2 28.7H15.4C15.0135 28.7 14.7 28.3866 14.7 28C14.7 27.6411 14.9702 27.3451 15.3184 27.3048L15.4 27.3H25.2Z" fill="#000091"/>
<path d="M24.5 32.2C24.5 31.8135 24.1865 31.5 23.8 31.5H15.4L15.3184 31.5048C14.9702 31.5451 14.7 31.841 14.7 32.2C14.7 32.5865 15.0135 32.9 15.4 32.9H23.8L23.8816 32.8952C24.2298 32.8549 24.5 32.559 24.5 32.2Z" fill="#000091"/>
</svg>
