<svg width="56" height="56" viewBox="0 0 56 56" fill="none" xmlns="http://www.w3.org/2000/svg">
<path fill-rule="evenodd" clip-rule="evenodd" d="M4.2 23.8C4.585 23.8 4.9 23.485 4.9 23.1C4.9 22.715 4.585 22.4 4.2 22.4C3.815 22.4 3.5 22.715 3.5 23.1C3.5 23.485 3.815 23.8 4.2 23.8Z" fill="#ECECFE"/>
<path fill-rule="evenodd" clip-rule="evenodd" d="M32.2 4.20005C32.585 4.20005 32.9 3.88505 32.9 3.50005C32.9 3.11505 32.585 2.80005 32.2 2.80005C31.815 2.80005 31.5 3.11505 31.5 3.50005C31.5 3.88505 31.815 4.20005 32.2 4.20005Z" fill="#ECECFE"/>
<path fill-rule="evenodd" clip-rule="evenodd" d="M46.2 43.4C46.585 43.4 46.9 43.085 46.9 42.7C46.9 42.315 46.585 42 46.2 42C45.815 42 45.5 42.315 45.5 42.7C45.5 43.085 45.815 43.4 46.2 43.4Z" fill="#ECECFE"/>
<path fill-rule="evenodd" clip-rule="evenodd" d="M51.8 21C52.185 21 52.5 20.685 52.5 20.3C52.5 19.915 52.185 19.6 51.8 19.6C51.415 19.6 51.1 19.915 51.1 20.3C51.1 20.685 51.415 21 51.8 21Z" fill="#ECECFE"/>
<path fill-rule="evenodd" clip-rule="evenodd" d="M25.2 51.1C25.585 51.1 25.9 50.785 25.9 50.4C25.9 50.015 25.585 49.7 25.2 49.7C24.815 49.7 24.5 50.015 24.5 50.4C24.5 50.785 24.815 51.1 25.2 51.1Z" fill="#ECECFE"/>
<path fill-rule="evenodd" clip-rule="evenodd" d="M28 18.4032C23.879 18.4032 20.54 21.7422 20.54 25.8632C20.54 26.1345 20.557 26.4155 20.586 26.6881C20.587 26.6973 20.5878 26.7064 20.5884 26.7157C21.0102 30.4303 24.1675 33.3231 28 33.3231C32.1209 33.3231 35.4599 29.9841 35.4599 25.8632C35.4599 21.7422 32.1209 18.4032 28 18.4032ZM19.1912 26.8112C19.1919 26.8225 19.1929 26.8338 19.1941 26.8452C19.6823 31.2727 23.4373 34.7231 28 34.7231C32.8941 34.7231 36.8599 30.7573 36.8599 25.8632C36.8599 20.969 32.8941 17.0032 28 17.0032C23.1057 17.0032 19.14 20.969 19.14 25.8632C19.14 26.1824 19.1594 26.5044 19.1912 26.8112Z" fill="#E1000F"/>
<path fill-rule="evenodd" clip-rule="evenodd" d="M28 34.7231C21.6311 34.7231 16.4633 39.8852 16.4633 46.2598C16.4633 46.6465 16.1498 46.9598 15.7633 46.9598C15.3766 46.9598 15.0633 46.6465 15.0633 46.2598C15.0633 39.1116 20.8585 33.3231 28 33.3231C35.1418 33.3231 40.9367 39.118 40.9367 46.2598C40.9367 46.6465 40.6234 46.9598 40.2367 46.9598C39.8502 46.9598 39.5367 46.6465 39.5367 46.2598C39.5367 39.8912 34.3686 34.7231 28 34.7231Z" fill="#E1000F"/>
<path d="M40.1758 15.1777C40.949 15.1777 41.5758 14.5509 41.5758 13.7777C41.5758 13.0045 40.949 12.3777 40.1758 12.3777C39.4026 12.3777 38.7758 13.0045 38.7758 13.7777C38.7758 14.5509 39.4026 15.1777 40.1758 15.1777Z" fill="#E1000F"/>
<path fill-rule="evenodd" clip-rule="evenodd" d="M44.8312 24.0019C45.2178 24.0051 45.5286 24.3209 45.5255 24.7076L45.4755 30.8634C45.4724 31.2499 45.1564 31.5609 44.7699 31.5577C44.3834 31.5546 44.0724 31.2386 44.0756 30.8521L44.1255 24.6963C44.1287 24.3096 44.4445 23.9988 44.8312 24.0019Z" fill="#000091"/>
<path fill-rule="evenodd" clip-rule="evenodd" d="M10.2042 8.60588C10.3366 8.47309 10.5166 8.39894 10.7041 8.40004L44.9421 8.59982C45.1279 8.60091 45.3057 8.67586 45.4363 8.80816C45.5668 8.94048 45.6394 9.11927 45.6379 9.30512L45.5444 21.623C45.5414 22.0097 45.2256 22.3206 44.8391 22.3177C44.4524 22.3148 44.1414 21.9989 44.1444 21.6124L44.2327 9.9957L11.4065 9.80415L11.5998 30.8513C11.6033 31.2379 11.2928 31.5542 10.9063 31.5577C10.5197 31.5612 10.2034 31.2507 10.1999 30.8641L10.0001 9.10645C9.99834 8.91899 10.0719 8.73867 10.2042 8.60588Z" fill="#000091"/>
<path fill-rule="evenodd" clip-rule="evenodd" d="M10.3982 30.3694C10.53 30.234 10.7109 30.1577 10.8998 30.1577H17.0556C17.4422 30.1577 17.7556 30.4712 17.7556 30.8577C17.7556 31.2443 17.4422 31.5577 17.0556 31.5577H11.1952L6.55858 36.3198H13.3721C13.7587 36.3198 14.0721 36.6331 14.0721 37.0198C14.0721 37.4064 13.7587 37.7198 13.3721 37.7198H4.90001C4.6186 37.7198 4.36453 37.5513 4.2551 37.292C4.14568 37.0327 4.20216 36.7331 4.39848 36.5315L10.3982 30.3694Z" fill="#000091"/>
<path d="M13.9964 37.0198C13.9964 37.3646 13.7169 37.6442 13.3721 37.6442C13.0273 37.6442 12.7477 37.3646 12.7477 37.0198C12.7477 36.6749 13.0273 36.3955 13.3721 36.3955C13.7169 36.3955 13.9964 36.6749 13.9964 37.0198Z" fill="#000091"/>
<path d="M13.9964 37.0198C13.9964 37.3646 13.7169 37.6442 13.3721 37.6442C13.0273 37.6442 12.7477 37.3646 12.7477 37.0198C12.7477 36.6749 13.0273 36.3955 13.3721 36.3955C13.7169 36.3955 13.9964 36.6749 13.9964 37.0198Z" fill="#000091"/>
<path d="M13.9964 37.0198C13.9964 37.3646 13.7169 37.6442 13.3721 37.6442C13.0273 37.6442 12.7477 37.3646 12.7477 37.0198C12.7477 36.6749 13.0273 36.3955 13.3721 36.3955C13.7169 36.3955 13.9964 36.6749 13.9964 37.0198Z" fill="#000091"/>
<path d="M13.9964 37.0198C13.9964 37.3646 13.7169 37.6442 13.3721 37.6442C13.0273 37.6442 12.7477 37.3646 12.7477 37.0198C12.7477 36.6749 13.0273 36.3955 13.3721 36.3955C13.7169 36.3955 13.9964 36.6749 13.9964 37.0198Z" fill="#000091"/>
<path d="M13.9964 37.0198C13.9964 37.3646 13.7169 37.6442 13.3721 37.6442C13.0273 37.6442 12.7477 37.3646 12.7477 37.0198C12.7477 36.6749 13.0273 36.3955 13.3721 36.3955C13.7169 36.3955 13.9964 36.6749 13.9964 37.0198Z" fill="#000091"/>
<path fill-rule="evenodd" clip-rule="evenodd" d="M15.75 37.0198C15.75 36.6331 16.0635 36.3198 16.45 36.3198H17.2179C17.6046 36.3198 17.9179 36.6331 17.9179 37.0198C17.9179 37.4064 17.6046 37.7198 17.2179 37.7198H16.45C16.0635 37.7198 15.75 37.4064 15.75 37.0198Z" fill="#000091"/>
<path fill-rule="evenodd" clip-rule="evenodd" d="M37.9198 30.8577C37.9198 30.4712 38.2332 30.1577 38.6198 30.1577H44.7756C44.9582 30.1577 45.1335 30.229 45.2641 30.3564L51.5886 36.5185C51.7926 36.7171 51.8557 37.0197 51.7485 37.2834C51.6412 37.5473 51.3848 37.7198 51.1 37.7198H38.7821C38.3956 37.7198 38.0821 37.4064 38.0821 37.0198C38.0821 36.6331 38.3956 36.3198 38.7821 36.3198H49.3786L44.491 31.5577H38.6198C38.2332 31.5577 37.9198 31.2443 37.9198 30.8577Z" fill="#000091"/>
<path fill-rule="evenodd" clip-rule="evenodd" d="M13.4401 12.3776C13.4401 11.991 13.7534 11.6776 14.14 11.6776H32.62C33.0067 11.6776 33.32 11.991 33.32 12.3776C33.32 12.7642 33.0067 13.0776 32.62 13.0776H14.14C13.7534 13.0776 13.4401 12.7642 13.4401 12.3776Z" fill="#000091"/>
<path fill-rule="evenodd" clip-rule="evenodd" d="M13.4401 15.4618C13.4401 15.0752 13.7534 14.7618 14.14 14.7618H20.3021C20.6888 14.7618 21.0021 15.0752 21.0021 15.4618C21.0021 15.8484 20.6888 16.1618 20.3021 16.1618H14.14C13.7534 16.1618 13.4401 15.8484 13.4401 15.4618Z" fill="#000091"/>
<path fill-rule="evenodd" clip-rule="evenodd" d="M13.4401 18.5397C13.4401 18.153 13.7534 17.8397 14.14 17.8397H17.218C17.6046 17.8397 17.918 18.153 17.918 18.5397C17.918 18.9263 17.6046 19.2397 17.218 19.2397H14.14C13.7534 19.2397 13.4401 18.9263 13.4401 18.5397Z" fill="#000091"/>
</svg>
