<?xml version="1.0" encoding="UTF-8"?>
<svg id="Calque_1" xmlns="http://www.w3.org/2000/svg" version="1.1" viewBox="0 0 400 400">
  <!-- Generator: Adobe Illustrator 29.8.3, SVG Export Plug-In . SVG Version: 2.1.1 Build 3)  -->
  <defs>
    <style>
      .st0, .st1, .st2, .st3 {
        fill-rule: evenodd;
      }

      .st0, .st4 {
        fill: #fff;
      }

      .st1, .st5, .st2, .st6 {
        stroke-width: 2px;
      }

      .st1, .st2, .st6 {
        stroke-linecap: round;
      }

      .st1, .st6 {
        fill: #000091;
        stroke: #000091;
        stroke-linejoin: round;
      }

      .st5, .st2 {
        fill: #e1000f;
        stroke: #e1000f;
      }

      .st7 {
        fill: #eef;
      }

      .st4 {
        display: none;
      }

      .st2 {
        stroke-miterlimit: 10;
      }

      .st3 {
        fill: #ececfe;
      }
    </style>
  </defs>
  <rect class="st4" y="0" width="400" height="400"/>
  <circle class="st7" cx="200" cy="200" r="198"/>
  <path class="st3" d="M70.03,203.48c2.11,0,3.84-1.73,3.84-3.84s-1.73-3.84-3.84-3.84-3.84,1.73-3.84,3.84,1.73,3.84,3.84,3.84Z"/>
  <path class="st3" d="M223.52,96.03c2.11,0,3.84-1.73,3.84-3.84s-1.73-3.84-3.84-3.84-3.84,1.73-3.84,3.84,1.73,3.84,3.84,3.84Z"/>
  <path class="st3" d="M300.27,310.92c2.11,0,3.84-1.73,3.84-3.84s-1.73-3.84-3.84-3.84-3.84,1.73-3.84,3.84,1.73,3.84,3.84,3.84Z"/>
  <path class="st3" d="M330.98,188.13c2.11,0,3.84-1.73,3.84-3.84s-1.73-3.84-3.84-3.84-3.84,1.73-3.84,3.84,1.73,3.84,3.84,3.84Z"/>
  <path class="st3" d="M185.15,353.14c2.11,0,3.84-1.73,3.84-3.84s-1.73-3.84-3.84-3.84-3.84,1.73-3.84,3.84,1.73,3.84,3.84,3.84Z"/>
  <path class="st2" d="M200.74,182.32c-19.51,0-35.32,15.81-35.32,35.32,0,1.29.08,2.61.22,3.9,0,.04,0,.09.01.13,2,17.59,16.94,31.28,35.09,31.28,19.51,0,35.32-15.81,35.32-35.32s-15.81-35.32-35.32-35.32ZM159.04,222.12c0,.05,0,.11.01.16,2.31,20.96,20.09,37.29,41.69,37.29,23.17,0,41.94-18.77,41.94-41.94s-18.77-41.94-41.94-41.94-41.94,18.77-41.94,41.94c0,1.51.09,3.04.24,4.49Z"/>
  <path class="st2" d="M200.74,259.58c-30.15,0-54.62,24.44-54.62,54.62,0,1.83-1.48,3.31-3.31,3.31s-3.31-1.48-3.31-3.31c0-33.84,27.44-61.24,61.24-61.24s61.25,27.43,61.25,61.24c0,1.83-1.48,3.31-3.31,3.31s-3.31-1.48-3.31-3.31c0-30.15-24.47-54.62-54.62-54.62Z"/>
  <path class="st5" d="M258.38,154.79c3.11,0,5.63,2.52,5.63,5.63s-2.52,5.63-5.63,5.63-5.63-2.52-5.63-5.63,2.52-5.63,5.63-5.63Z"/>
  <path class="st0" d="M303,309c-2.2,0-4-1.8-4-4s1.8-4,4-4,4,1.8,4,4-1.8,4-4,4Z"/>
  <path class="st0" d="M68,195c-2.2,0-4-1.8-4-4s1.8-4,4-4,4,1.8,4,4-1.8,4-4,4Z"/>
  <path class="st0" d="M170,100c-2.2,0-4-1.8-4-4s1.8-4,4-4,4,1.8,4,4-1.8,4-4,4Z"/>
  <path class="st1" d="M292.77,204.58c2.12.02,3.82,1.75,3.81,3.87l-.27,33.75c-.02,2.12-1.75,3.82-3.87,3.81s-3.82-1.75-3.81-3.87l.27-33.75c.02-2.12,1.75-3.82,3.87-3.81Z"/>
  <path class="st1" d="M102.94,120.18c.72-.73,1.71-1.14,2.74-1.13l187.7,1.09c1.02,0,1.99.42,2.71,1.14.72.72,1.11,1.7,1.11,2.72l-.51,67.53c-.02,2.12-1.75,3.83-3.87,3.81-2.12-.02-3.82-1.75-3.81-3.87l.48-63.68-179.96-1.05,1.06,115.38c.02,2.12-1.68,3.85-3.8,3.87-2.12.02-3.85-1.68-3.87-3.8l-1.1-119.28c-.01-1.03.39-2.02,1.12-2.74Z"/>
  <path class="st1" d="M104,239.49c.72-.74,1.71-1.16,2.75-1.16h33.75c2.12,0,3.84,1.72,3.84,3.84s-1.72,3.84-3.84,3.84h-32.13l-25.42,26.11h37.35c2.12,0,3.84,1.72,3.84,3.84s-1.72,3.84-3.84,3.84h-46.45c-1.54,0-2.94-.92-3.54-2.35-.6-1.42-.29-3.06.79-4.17l32.89-33.78Z"/>
  <path class="st6" d="M123.73,275.95c0,1.89-1.53,3.42-3.42,3.42s-3.42-1.53-3.42-3.42,1.53-3.42,3.42-3.42,3.42,1.53,3.42,3.42Z"/>
  <path class="st6" d="M123.73,275.95c0,1.89-1.53,3.42-3.42,3.42s-3.42-1.53-3.42-3.42,1.53-3.42,3.42-3.42,3.42,1.53,3.42,3.42Z"/>
  <path class="st6" d="M123.73,275.95c0,1.89-1.53,3.42-3.42,3.42s-3.42-1.53-3.42-3.42,1.53-3.42,3.42-3.42,3.42,1.53,3.42,3.42Z"/>
  <path class="st6" d="M123.73,275.95c0,1.89-1.53,3.42-3.42,3.42s-3.42-1.53-3.42-3.42,1.53-3.42,3.42-3.42,3.42,1.53,3.42,3.42Z"/>
  <path class="st6" d="M123.73,275.95c0,1.89-1.53,3.42-3.42,3.42s-3.42-1.53-3.42-3.42,1.53-3.42,3.42-3.42,3.42,1.53,3.42,3.42Z"/>
  <path class="st1" d="M133.34,275.95c0-2.12,1.72-3.84,3.84-3.84h4.21c2.12,0,3.84,1.72,3.84,3.84s-1.72,3.84-3.84,3.84h-4.21c-2.12,0-3.84-1.72-3.84-3.84Z"/>
  <path class="st1" d="M254.88,242.17c0-2.12,1.72-3.84,3.84-3.84h33.75c1,0,1.96.39,2.68,1.09l34.67,33.78c1.12,1.09,1.46,2.75.88,4.19-.59,1.45-1.99,2.39-3.55,2.39h-67.53c-2.12,0-3.84-1.72-3.84-3.84s1.72-3.84,3.84-3.84h58.09l-26.79-26.11h-32.19c-2.12,0-3.84-1.72-3.84-3.84Z"/>
  <path class="st1" d="M120.68,140.86c0-2.12,1.72-3.84,3.84-3.84h101.31c2.12,0,3.84,1.72,3.84,3.84s-1.72,3.84-3.84,3.84h-101.31c-2.12,0-3.84-1.72-3.84-3.84Z"/>
  <path class="st1" d="M120.68,157.76c0-2.12,1.72-3.84,3.84-3.84h33.78c2.12,0,3.84,1.72,3.84,3.84s-1.72,3.84-3.84,3.84h-33.78c-2.12,0-3.84-1.72-3.84-3.84Z"/>
  <path class="st1" d="M120.68,174.64c0-2.12,1.72-3.84,3.84-3.84h16.87c2.12,0,3.84,1.72,3.84,3.84s-1.72,3.84-3.84,3.84h-16.87c-2.12,0-3.84-1.72-3.84-3.84Z"/>
</svg>
