<svg width="104" height="104" viewBox="0 0 104 104" fill="none" xmlns="http://www.w3.org/2000/svg">
    <path
        fill-rule="evenodd"
        clip-rule="evenodd"
        d="M100.1 72.8001C99.383 72.8001 98.7998 72.2169 98.7998 71.5001C98.7998 70.7832 99.383 70.2001 100.1 70.2001C100.817 70.2001 101.4 70.7832 101.4 71.5001C101.4 72.2169 100.817 72.8001 100.1 72.8001Z"
        fill="#ECECFE"
    />
    <path
        fill-rule="evenodd"
        clip-rule="evenodd"
        d="M6.49922 78C5.7824 78 5.19922 77.4168 5.19922 76.7C5.19922 75.9831 5.7824 75.4 6.49922 75.4C7.21604 75.4 7.79922 75.9831 7.79922 76.7C7.79922 77.4168 7.21604 78 6.49922 78Z"
        fill="#ECECFE"
    />
    <path
        fill-rule="evenodd"
        clip-rule="evenodd"
        d="M97.4992 28.6C96.7824 28.6 96.1992 28.0168 96.1992 27.3C96.1992 26.5831 96.7824 26 97.4992 26C98.216 26 98.7992 26.5831 98.7992 27.3C98.7992 28.0168 98.216 28.6 97.4992 28.6Z"
        fill="#ECECFE"
    />
    <path
        fill-rule="evenodd"
        clip-rule="evenodd"
        d="M3.89961 33.8001C3.18279 33.8001 2.59961 33.2169 2.59961 32.5001C2.59961 31.7832 3.18279 31.2001 3.89961 31.2001C4.61643 31.2001 5.19961 31.7832 5.19961 32.5001C5.19961 33.2169 4.61643 33.8001 3.89961 33.8001Z"
        fill="#ECECFE"
    />
    <path
        fill-rule="evenodd"
        clip-rule="evenodd"
        d="M22.0998 10.4C21.383 10.4 20.7998 9.81687 20.7998 9.10005C20.7998 8.38317 21.383 7.80005 22.0998 7.80005C22.8166 7.80005 23.3998 8.38317 23.3998 9.10005C23.3998 9.81687 22.8166 10.4 22.0998 10.4Z"
        fill="#ECECFE"
    />
    <path
        fill-rule="evenodd"
        clip-rule="evenodd"
        d="M71.4996 62.4C80.8332 62.4 88.3996 69.9664 88.3996 79.3C88.3996 88.6336 80.8332 96.2 71.4996 96.2C62.166 96.2 54.5996 88.6336 54.5996 79.3C54.5996 69.9664 62.166 62.4 71.4996 62.4ZM71.4996 65C63.6019 65 57.1996 71.4024 57.1996 79.3C57.1996 87.1977 63.6019 93.6 71.4996 93.6C79.3973 93.6 85.7996 87.1977 85.7996 79.3C85.7996 71.4024 79.3973 65 71.4996 65ZM71.4996 70.2C72.1663 70.2 72.7158 70.7019 72.7909 71.3484L72.7996 71.5V78H79.2996C80.0176 78 80.5996 78.5821 80.5996 79.3C80.5996 79.9667 80.0978 80.5162 79.4512 80.5913L79.2996 80.6H72.7996V87.1C72.7996 87.818 72.2176 88.4 71.4996 88.4C70.8329 88.4 70.2835 87.8982 70.2084 87.2516L70.1996 87.1V80.6H63.6996C62.9816 80.6 62.3996 80.018 62.3996 79.3C62.3996 78.6333 62.9015 78.0839 63.548 78.0088L63.6996 78H70.1996V71.5C70.1996 70.7821 70.7816 70.2 71.4996 70.2ZM55.8996 39C56.6176 39 57.1996 39.5821 57.1996 40.3C57.1996 40.9667 56.6978 41.5162 56.0512 41.5913L55.8996 41.6H29.8996C29.1816 41.6 28.5996 41.018 28.5996 40.3C28.5996 39.6333 29.1015 39.0839 29.748 39.0088L29.8996 39H55.8996ZM63.6996 31.2C64.4176 31.2 64.9996 31.7821 64.9996 32.5C64.9996 33.1667 64.4978 33.7162 63.8512 33.7913L63.6996 33.8H29.8996C29.1816 33.8 28.5996 33.218 28.5996 32.5C28.5996 31.8333 29.1015 31.2839 29.748 31.2088L29.8996 31.2H63.6996ZM50.6996 23.4C51.4176 23.4 51.9996 23.9821 51.9996 24.7C51.9996 25.3667 51.4978 25.9162 50.8512 25.9913L50.6996 26H29.8996C29.1816 26 28.5996 25.418 28.5996 24.7C28.5996 24.0333 29.1015 23.4839 29.748 23.4088L29.8996 23.4H50.6996Z"
        fill="#E1000F"
    />
    <path
        fill-rule="evenodd"
        clip-rule="evenodd"
        d="M71.4998 15.6C72.1665 15.6 72.716 16.1018 72.7911 16.7484L72.7998 16.9V58.5C72.7998 59.2179 72.2178 59.8 71.4998 59.8C70.8331 59.8 70.2836 59.2981 70.2086 58.6516L70.1998 58.5V18.2H23.3998V85.8H50.6998C51.3665 85.8 51.916 86.3018 51.9911 86.9484L51.9998 87.1C51.9998 87.7667 51.498 88.3161 50.8514 88.3912L50.6998 88.4H22.0998C21.4331 88.4 20.8836 87.8981 20.8086 87.2516L20.7998 87.1V16.9C20.7998 16.2333 21.3017 15.6838 21.9482 15.6087L22.0998 15.6H71.4998ZM42.8998 78C43.6178 78 44.1998 78.582 44.1998 79.3C44.1998 79.9667 43.698 80.5161 43.0514 80.5912L42.8998 80.6H29.8998C29.1818 80.6 28.5998 80.018 28.5998 79.3C28.5998 78.6333 29.1017 78.0838 29.7482 78.0087L29.8998 78H42.8998ZM48.0998 70.2C48.8178 70.2 49.3998 70.782 49.3998 71.5C49.3998 72.1667 48.898 72.7161 48.2514 72.7912L48.0998 72.8H29.8998C29.1818 72.8 28.5998 72.2179 28.5998 71.5C28.5998 70.8333 29.1017 70.2838 29.7482 70.2087L29.8998 70.2H48.0998ZM53.2998 62.4C54.0178 62.4 54.5998 62.982 54.5998 63.7C54.5998 64.3667 54.098 64.9161 53.4514 64.9912L53.2998 65H29.8998C29.1818 65 28.5998 64.4179 28.5998 63.7C28.5998 63.0333 29.1017 62.4838 29.7482 62.4087L29.8998 62.4H53.2998ZM58.4998 54.6C59.2178 54.6 59.7998 55.182 59.7998 55.9C59.7998 56.5667 59.298 57.1161 58.6514 57.1912L58.4998 57.2H29.8998C29.1818 57.2 28.5998 56.6179 28.5998 55.9C28.5998 55.2333 29.1017 54.6838 29.7482 54.6087L29.8998 54.6H58.4998ZM63.6998 46.8C64.4178 46.8 64.9998 47.382 64.9998 48.1C64.9998 48.7667 64.498 49.3161 63.8514 49.3912L63.6998 49.4H29.8998C29.1818 49.4 28.5998 48.8179 28.5998 48.1C28.5998 47.4333 29.1017 46.8838 29.7482 46.8087L29.8998 46.8H63.6998ZM76.6998 15.6C77.3665 15.6 77.916 16.1018 77.9911 16.7484L77.9998 16.9V58.5C77.9998 59.2179 77.4178 59.8 76.6998 59.8C76.0331 59.8 75.4837 59.2981 75.4086 58.6516L75.3998 58.5V16.9C75.3998 16.182 75.9818 15.6 76.6998 15.6Z"
        fill="#000091"
    />
</svg>
