<svg version="1.1" viewBox="0.0 0.0 395.0 319.0" fill="none" stroke="none" stroke-linecap="square" stroke-miterlimit="10" width="395" height="319" xmlns:xlink="http://www.w3.org/1999/xlink" xmlns="http://www.w3.org/2000/svg"><path fill="#ffffff" d="M0 0L395.0 0L395.0 319.0L0 319.0L0 0Z" fill-rule="nonzero"/><path fill="#fbbc04" d="M197.5 15.95C259.68964 15.95 314.80652 55.99476 334.02417 115.14061L197.5 159.5Z" fill-rule="nonzero"/><path fill="#6aa84f" d="M334.02417 115.14061C353.24182 174.28647 332.18903 239.08025 281.8766 275.6344L197.5 159.5Z" fill-rule="nonzero"/><path fill="#fff2cc" d="M281.8766 275.6344C231.5641 312.18854 163.4359 312.18854 113.12343 275.6344C62.81096 239.08025 41.758186 174.28647 60.975838 115.14061C80.19349 55.99476 135.31036 15.95 197.5 15.95L197.5 159.5Z" fill-rule="nonzero"/><path fill="#000000" d="M217.50166 100.33981L217.50166 104.16794L203.07979 104.16794Q203.31416 101.99606 204.48604 100.05856Q205.65791 98.12106 209.11104 94.90231Q211.89229 92.32419 212.53291 91.38669Q213.37666 90.12106 213.37666 88.87106Q213.37666 87.49606 212.62666 86.76169Q211.89229 86.01169 210.59541 86.01169Q209.29854 86.01169 208.53291 86.79294Q207.78291 87.57419 207.65791 89.37106L203.56416 88.96481Q203.92354 85.55856 205.86104 84.08981Q207.79854 82.60544 210.68916 82.60544Q213.87666 82.60544 215.68916 84.32419Q217.50166 86.02731 217.50166 88.57419Q217.50166 90.02731 216.98604 91.33981Q216.47041 92.65231 215.34541 94.08981Q214.59541 95.04294 212.64229 96.83981Q210.68916 98.62106 210.17354 99.21481Q209.65791 99.79294 209.32979 100.33981L217.50166 100.33981ZM227.56416 82.60544Q230.68916 82.60544 232.43916 84.82419Q234.53291 87.46481 234.53291 93.57419Q234.53291 99.66794 232.42354 102.33981Q230.68916 104.52731 227.56416 104.52731Q224.42354 104.52731 222.50166 102.12106Q220.59541 99.71481 220.59541 93.52731Q220.59541 87.46481 222.70479 84.80856Q224.43916 82.60544 227.56416 82.60544ZM227.56416 86.01169Q226.81416 86.01169 226.22041 86.49606Q225.64229 86.96481 225.31416 88.19919Q224.89229 89.79294 224.89229 93.57419Q224.89229 97.35544 225.26729 98.77731Q225.65791 100.18356 226.23604 100.65231Q226.81416 101.12106 227.56416 101.12106Q228.31416 101.12106 228.89229 100.65231Q229.48604 100.16794 229.79854 98.93356Q230.23604 97.35544 230.23604 93.57419Q230.23604 89.79294 229.84541 88.38669Q229.47041 86.96481 228.89229 86.49606Q228.31416 86.01169 227.56416 86.01169ZM238.37666 100.05856L242.50166 100.05856L242.50166 102.99606Q242.50166 104.77731 242.18916 105.80856Q241.87666 106.85544 241.01729 107.66794Q240.17354 108.49606 238.84541 108.96481L238.04854 107.26169Q239.28291 106.85544 239.81416 106.13669Q240.34541 105.41794 240.37666 104.16794L238.37666 104.16794L238.37666 100.05856ZM252.56416 82.60544Q255.68916 82.60544 257.43915 84.82419Q259.5329 87.46481 259.5329 93.57419Q259.5329 99.66794 257.42352 102.33981Q255.68916 104.52731 252.56416 104.52731Q249.42354 104.52731 247.50166 102.12106Q245.59541 99.71481 245.59541 93.52731Q245.59541 87.46481 247.70479 84.80856Q249.43916 82.60544 252.56416 82.60544ZM252.56416 86.01169Q251.81416 86.01169 251.22041 86.49606Q250.64229 86.96481 250.31416 88.19919Q249.89229 89.79294 249.89229 93.57419Q249.89229 97.35544 250.26729 98.77731Q250.65791 100.18356 251.23604 100.65231Q251.81416 101.12106 252.56416 101.12106Q253.31416 101.12106 253.89229 100.65231Q254.48604 100.16794 254.79854 98.93356Q255.23604 97.35544 255.23604 93.57419Q255.23604 89.79294 254.84541 88.38669Q254.47041 86.96481 253.89229 86.49606Q253.31416 86.01169 252.56416 86.01169ZM262.62665 87.99606Q262.62665 85.10544 263.89227 83.71481Q265.17352 82.32419 267.32977 82.32419Q269.57977 82.32419 270.8454 83.71481Q272.11102 85.08981 272.11102 87.99606Q272.11102 90.88669 270.8454 92.27731Q269.57977 93.66794 267.4079 93.66794Q265.17352 93.66794 263.89227 92.29294Q262.62665 90.90231 262.62665 87.99606ZM265.8454 87.96481Q265.8454 90.05856 266.32977 90.77731Q266.68915 91.30856 267.32977 91.30856Q268.00165 91.30856 268.36102 90.77731Q268.82977 90.05856 268.82977 87.96481Q268.82977 85.87106 268.36102 85.16794Q268.00165 84.62106 267.32977 84.62106Q266.68915 84.62106 266.32977 85.15231Q265.8454 85.87106 265.8454 87.96481ZM270.4704 104.99606L267.42352 104.99606L278.86102 82.32419L281.82977 82.32419L270.4704 104.99606ZM277.12665 99.35544Q277.12665 96.46481 278.39227 95.07419Q279.6579 93.68356 281.8454 93.68356Q284.06415 93.68356 285.32977 95.07419Q286.5954 96.46481 286.5954 99.35544Q286.5954 102.24606 285.32977 103.63669Q284.06415 105.02731 281.89227 105.02731Q279.6579 105.02731 278.39227 103.63669Q277.12665 102.24606 277.12665 99.35544ZM280.32977 99.33981Q280.32977 101.43356 280.81415 102.13669Q281.17352 102.66794 281.82977 102.66794Q282.48602 102.66794 282.82977 102.15231Q283.31415 101.43356 283.31415 99.33981Q283.31415 97.24606 282.8454 96.52731Q282.48602 95.99606 281.82977 95.99606Q281.1579 95.99606 280.81415 96.52731Q280.32977 97.24606 280.32977 99.33981Z" fill-rule="nonzero"/><path fill="#000000" d="M244.4314 190.46272L244.4314 194.29085L230.00952 194.29085Q230.2439 192.11897 231.41577 190.18147Q232.58765 188.24397 236.04077 185.02522Q238.82202 182.4471 239.46265 181.5096Q240.3064 180.24397 240.3064 178.99397Q240.3064 177.61897 239.5564 176.8846Q238.82202 176.1346 237.52515 176.1346Q236.22827 176.1346 235.46265 176.91585Q234.71265 177.6971 234.58765 179.49397L230.4939 179.08772Q230.85327 175.68147 232.79077 174.21272Q234.72827 172.72835 237.6189 172.72835Q240.8064 172.72835 242.6189 174.4471Q244.4314 176.15022 244.4314 178.6971Q244.4314 180.15022 243.91577 181.46272Q243.40015 182.77522 242.27515 184.21272Q241.52515 185.16585 239.57202 186.96272Q237.6189 188.74397 237.10327 189.33772Q236.58765 189.91585 236.25952 190.46272L244.4314 190.46272ZM254.4939 172.72835Q257.6189 172.72835 259.3689 174.9471Q261.46265 177.58772 261.46265 183.6971Q261.46265 189.79085 259.35327 192.46272Q257.6189 194.65022 254.4939 194.65022Q251.35327 194.65022 249.4314 192.24397Q247.52515 189.83772 247.52515 183.65022Q247.52515 177.58772 249.63452 174.93147Q251.3689 172.72835 254.4939 172.72835ZM254.4939 176.1346Q253.7439 176.1346 253.15015 176.61897Q252.57202 177.08772 252.2439 178.3221Q251.82202 179.91585 251.82202 183.6971Q251.82202 187.47835 252.19702 188.90022Q252.58765 190.30647 253.16577 190.77522Q253.7439 191.24397 254.4939 191.24397Q255.2439 191.24397 255.82202 190.77522Q256.41577 190.29085 256.72827 189.05647Q257.16577 187.47835 257.16577 183.6971Q257.16577 179.91585 256.77515 178.5096Q256.40015 177.08772 255.82202 176.61897Q255.2439 176.1346 254.4939 176.1346ZM265.3064 190.18147L269.4314 190.18147L269.4314 193.11897Q269.4314 194.90022 269.1189 195.93147Q268.8064 196.97835 267.94702 197.79085Q267.10327 198.61897 265.77515 199.08772L264.97827 197.3846Q266.21265 196.97835 266.7439 196.2596Q267.27515 195.54085 267.3064 194.29085L265.3064 194.29085L265.3064 190.18147ZM279.4939 172.72835Q282.6189 172.72835 284.3689 174.9471Q286.46265 177.58772 286.46265 183.6971Q286.46265 189.79085 284.35327 192.46272Q282.6189 194.65022 279.4939 194.65022Q276.35327 194.65022 274.4314 192.24397Q272.52515 189.83772 272.52515 183.65022Q272.52515 177.58772 274.63452 174.93147Q276.3689 172.72835 279.4939 172.72835ZM279.4939 176.1346Q278.7439 176.1346 278.15015 176.61897Q277.57202 177.08772 277.2439 178.3221Q276.82202 179.91585 276.82202 183.6971Q276.82202 187.47835 277.19702 188.90022Q277.58765 190.30647 278.16577 190.77522Q278.7439 191.24397 279.4939 191.24397Q280.2439 191.24397 280.82202 190.77522Q281.41577 190.29085 281.72827 189.05647Q282.16577 187.47835 282.16577 183.6971Q282.16577 179.91585 281.77515 178.5096Q281.40015 177.08772 280.82202 176.61897Q280.2439 176.1346 279.4939 176.1346ZM289.5564 178.11897Q289.5564 175.22835 290.82202 173.83772Q292.10327 172.4471 294.25952 172.4471Q296.50952 172.4471 297.77515 173.83772Q299.04077 175.21272 299.04077 178.11897Q299.04077 181.0096 297.77515 182.40022Q296.50952 183.79085 294.33765 183.79085Q292.10327 183.79085 290.82202 182.41585Q289.5564 181.02522 289.5564 178.11897ZM292.77515 178.08772Q292.77515 180.18147 293.25952 180.90022Q293.6189 181.43147 294.25952 181.43147Q294.9314 181.43147 295.29077 180.90022Q295.75952 180.18147 295.75952 178.08772Q295.75952 175.99397 295.29077 175.29085Q294.9314 174.74397 294.25952 174.74397Q293.6189 174.74397 293.25952 175.27522Q292.77515 175.99397 292.77515 178.08772ZM297.40015 195.11897L294.35327 195.11897L305.79077 172.4471L308.75952 172.4471L297.40015 195.11897ZM304.0564 189.47835Q304.0564 186.58772 305.32202 185.1971Q306.58765 183.80647 308.77515 183.80647Q310.9939 183.80647 312.25952 185.1971Q313.52515 186.58772 313.52515 189.47835Q313.52515 192.36897 312.25952 193.7596Q310.9939 195.15022 308.82202 195.15022Q306.58765 195.15022 305.32202 193.7596Q304.0564 192.36897 304.0564 189.47835ZM307.25952 189.46272Q307.25952 191.55647 307.7439 192.2596Q308.10327 192.79085 308.75952 192.79085Q309.41577 192.79085 309.75952 192.27522Q310.2439 191.55647 310.2439 189.46272Q310.2439 187.36897 309.77515 186.65022Q309.41577 186.11897 308.75952 186.11897Q308.08765 186.11897 307.7439 186.65022Q307.25952 187.36897 307.25952 189.46272Z" fill-rule="nonzero"/><path fill="#000000" d="M94.95923 178.0721L90.97485 178.5096Q90.83423 177.29085 90.20923 176.71272Q89.59985 176.11897 88.61548 176.11897Q87.3186 176.11897 86.41235 177.29085Q85.5061 178.46272 85.27173 182.16585Q86.8186 180.33772 89.09985 180.33772Q91.67798 180.33772 93.5061 182.30647Q95.34985 184.27522 95.34985 187.36897Q95.34985 190.66585 93.41235 192.66585Q91.49048 194.65022 88.45923 194.65022Q85.20923 194.65022 83.11548 192.1346Q81.02173 189.60335 81.02173 183.85335Q81.02173 177.9471 83.1936 175.33772Q85.3811 172.72835 88.86548 172.72835Q91.3186 172.72835 92.91235 174.10335Q94.52173 175.46272 94.95923 178.0721ZM85.6311 187.05647Q85.6311 189.05647 86.55298 190.15022Q87.47485 191.24397 88.66235 191.24397Q89.80298 191.24397 90.5686 190.35335Q91.33423 189.46272 91.33423 187.41585Q91.33423 185.3221 90.5061 184.35335Q89.6936 183.3846 88.45923 183.3846Q87.27173 183.3846 86.4436 184.3221Q85.6311 185.24397 85.6311 187.05647ZM104.97485 172.72835Q108.09985 172.72835 109.84985 174.9471Q111.9436 177.58772 111.9436 183.6971Q111.9436 189.79085 109.83423 192.46272Q108.09985 194.65022 104.97485 194.65022Q101.83423 194.65022 99.91235 192.24397Q98.0061 189.83772 98.0061 183.65022Q98.0061 177.58772 100.11548 174.93147Q101.84985 172.72835 104.97485 172.72835ZM104.97485 176.1346Q104.22485 176.1346 103.6311 176.61897Q103.05298 177.08772 102.72485 178.3221Q102.30298 179.91585 102.30298 183.6971Q102.30298 187.47835 102.67798 188.90022Q103.0686 190.30647 103.64673 190.77522Q104.22485 191.24397 104.97485 191.24397Q105.72485 191.24397 106.30298 190.77522Q106.89673 190.29085 107.20923 189.05647Q107.64673 187.47835 107.64673 183.6971Q107.64673 179.91585 107.2561 178.5096Q106.8811 177.08772 106.30298 176.61897Q105.72485 176.1346 104.97485 176.1346ZM115.78735 190.18147L119.91235 190.18147L119.91235 193.11897Q119.91235 194.90022 119.59985 195.93147Q119.28735 196.97835 118.42798 197.79085Q117.58423 198.61897 116.2561 199.08772L115.45923 197.3846Q116.6936 196.97835 117.22485 196.2596Q117.7561 195.54085 117.78735 194.29085L115.78735 194.29085L115.78735 190.18147ZM129.97485 172.72835Q133.09985 172.72835 134.84985 174.9471Q136.9436 177.58772 136.9436 183.6971Q136.9436 189.79085 134.83423 192.46272Q133.09985 194.65022 129.97485 194.65022Q126.83423 194.65022 124.91235 192.24397Q123.0061 189.83772 123.0061 183.65022Q123.0061 177.58772 125.11548 174.93147Q126.84985 172.72835 129.97485 172.72835ZM129.97485 176.1346Q129.22485 176.1346 128.6311 176.61897Q128.05298 177.08772 127.72485 178.3221Q127.30298 179.91585 127.30298 183.6971Q127.30298 187.47835 127.67798 188.90022Q128.0686 190.30647 128.64673 190.77522Q129.22485 191.24397 129.97485 191.24397Q130.72485 191.24397 131.30298 190.77522Q131.89673 190.29085 132.20923 189.05647Q132.64673 187.47835 132.64673 183.6971Q132.64673 179.91585 132.2561 178.5096Q131.8811 177.08772 131.30298 176.61897Q130.72485 176.1346 129.97485 176.1346ZM140.03735 178.11897Q140.03735 175.22835 141.30298 173.83772Q142.58423 172.4471 144.74048 172.4471Q146.99048 172.4471 148.2561 173.83772Q149.52173 175.21272 149.52173 178.11897Q149.52173 181.0096 148.2561 182.40022Q146.99048 183.79085 144.8186 183.79085Q142.58423 183.79085 141.30298 182.41585Q140.03735 181.02522 140.03735 178.11897ZM143.2561 178.08772Q143.2561 180.18147 143.74048 180.90022Q144.09985 181.43147 144.74048 181.43147Q145.41235 181.43147 145.77173 180.90022Q146.24048 180.18147 146.24048 178.08772Q146.24048 175.99397 145.77173 175.29085Q145.41235 174.74397 144.74048 174.74397Q144.09985 174.74397 143.74048 175.27522Q143.2561 175.99397 143.2561 178.08772ZM147.8811 195.11897L144.83423 195.11897L156.27173 172.4471L159.24048 172.4471L147.8811 195.11897ZM154.53735 189.47835Q154.53735 186.58772 155.80298 185.1971Q157.0686 183.80647 159.2561 183.80647Q161.47485 183.80647 162.74048 185.1971Q164.0061 186.58772 164.0061 189.47835Q164.0061 192.36897 162.74048 193.7596Q161.47485 195.15022 159.30298 195.15022Q157.0686 195.15022 155.80298 193.7596Q154.53735 192.36897 154.53735 189.47835ZM157.74048 189.46272Q157.74048 191.55647 158.22485 192.2596Q158.58423 192.79085 159.24048 192.79085Q159.89673 192.79085 160.24048 192.27522Q160.72485 191.55647 160.72485 189.46272Q160.72485 187.36897 160.2561 186.65022Q159.89673 186.11897 159.24048 186.11897Q158.5686 186.11897 158.22485 186.65022Q157.74048 187.36897 157.74048 189.46272Z" fill-rule="nonzero"/></svg>
