<svg version="1.1" viewBox="0.0 0.0 395.0 319.0" fill="none" stroke="none" stroke-linecap="square" stroke-miterlimit="10" width="395" height="319" xmlns:xlink="http://www.w3.org/1999/xlink" xmlns="http://www.w3.org/2000/svg"><path fill="#ffffff" d="M0 0L395.0 0L395.0 319.0L0 319.0L0 0Z" fill-rule="nonzero"/><path fill="#6aa84f" d="M197.5 15.95C276.7805 15.95 341.05 80.21952 341.05 159.5C341.05 238.78047 276.7805 303.05 197.5 303.05L197.5 159.5Z" fill-rule="nonzero"/><path fill="#fff2cc" d="M197.5 303.05C118.21952 303.05 53.95 238.78047 53.95 159.5C53.95 80.21952 118.21952 15.95 197.5 15.95L197.5 159.5Z" fill-rule="nonzero"/><path fill="#000000" d="M238.44406 164.48438L242.55344 164.04688Q242.72531 165.4375 243.58469 166.25Q244.45969 167.0625 245.58469 167.0625Q246.86594 167.0625 247.75656 166.01562Q248.66281 164.96875 248.66281 162.85938Q248.66281 160.89062 247.77219 159.90625Q246.88156 158.90625 245.45969 158.90625Q243.69406 158.90625 242.28781 160.48438L238.94406 160.0L241.05344 148.8125L251.94406 148.8125L251.94406 152.67188L244.17844 152.67188L243.53781 156.3125Q244.91281 155.625 246.35031 155.625Q249.08469 155.625 250.99094 157.625Q252.89719 159.60938 252.89719 162.79688Q252.89719 165.4375 251.35031 167.53125Q249.25656 170.35938 245.53781 170.35938Q242.56906 170.35938 240.69406 168.76562Q238.81906 167.17188 238.44406 164.48438ZM262.3503 148.4375Q265.4753 148.4375 267.2253 150.65625Q269.31906 153.29688 269.31906 159.40625Q269.31906 165.5 267.2097 168.17188Q265.4753 170.35938 262.3503 170.35938Q259.2097 170.35938 257.2878 167.95312Q255.38156 165.54688 255.38156 159.35938Q255.38156 153.29688 257.49094 150.64062Q259.2253 148.4375 262.3503 148.4375ZM262.3503 151.84375Q261.6003 151.84375 261.00656 152.32812Q260.42844 152.79688 260.1003 154.03125Q259.67844 155.625 259.67844 159.40625Q259.67844 163.1875 260.05344 164.60938Q260.44406 166.01562 261.0222 166.48438Q261.6003 166.95312 262.3503 166.95312Q263.1003 166.95312 263.67844 166.48438Q264.2722 166.0 264.5847 164.76562Q265.0222 163.1875 265.0222 159.40625Q265.0222 155.625 264.63156 154.21875Q264.25656 152.79688 263.67844 152.32812Q263.1003 151.84375 262.3503 151.84375ZM273.1628 165.89062L277.2878 165.89062L277.2878 168.82812Q277.2878 170.60938 276.9753 171.64062Q276.6628 172.6875 275.80344 173.5Q274.9597 174.32812 273.63156 174.79688L272.8347 173.09375Q274.06906 172.6875 274.6003 171.96875Q275.13156 171.25 275.1628 170.0L273.1628 170.0L273.1628 165.89062ZM287.3503 148.4375Q290.4753 148.4375 292.2253 150.65625Q294.31906 153.29688 294.31906 159.40625Q294.31906 165.5 292.2097 168.17188Q290.4753 170.35938 287.3503 170.35938Q284.2097 170.35938 282.2878 167.95312Q280.38156 165.54688 280.38156 159.35938Q280.38156 153.29688 282.49094 150.64062Q284.2253 148.4375 287.3503 148.4375ZM287.3503 151.84375Q286.6003 151.84375 286.00656 152.32812Q285.42844 152.79688 285.1003 154.03125Q284.67844 155.625 284.67844 159.40625Q284.67844 163.1875 285.05344 164.60938Q285.44406 166.01562 286.0222 166.48438Q286.6003 166.95312 287.3503 166.95312Q288.1003 166.95312 288.67844 166.48438Q289.2722 166.0 289.5847 164.76562Q290.0222 163.1875 290.0222 159.40625Q290.0222 155.625 289.63156 154.21875Q289.25656 152.79688 288.67844 152.32812Q288.1003 151.84375 287.3503 151.84375ZM297.4128 153.82812Q297.4128 150.9375 298.67844 149.54688Q299.9597 148.15625 302.11594 148.15625Q304.36594 148.15625 305.63156 149.54688Q306.8972 150.92188 306.8972 153.82812Q306.8972 156.71875 305.63156 158.10938Q304.36594 159.5 302.19406 159.5Q299.9597 159.5 298.67844 158.125Q297.4128 156.73438 297.4128 153.82812ZM300.63156 153.79688Q300.63156 155.89062 301.11594 156.60938Q301.4753 157.14062 302.11594 157.14062Q302.7878 157.14062 303.1472 156.60938Q303.61594 155.89062 303.61594 153.79688Q303.61594 151.70312 303.1472 151.0Q302.7878 150.45312 302.11594 150.45312Q301.4753 150.45312 301.11594 150.98438Q300.63156 151.70312 300.63156 153.79688ZM305.25656 170.82812L302.2097 170.82812L313.6472 148.15625L316.61594 148.15625L305.25656 170.82812ZM311.9128 165.1875Q311.9128 162.29688 313.17844 160.90625Q314.44406 159.51562 316.63156 159.51562Q318.8503 159.51562 320.11594 160.90625Q321.38156 162.29688 321.38156 165.1875Q321.38156 168.07812 320.11594 169.46875Q318.8503 170.85938 316.67844 170.85938Q314.44406 170.85938 313.17844 169.46875Q311.9128 168.07812 311.9128 165.1875ZM315.11594 165.17188Q315.11594 167.26562 315.6003 167.96875Q315.9597 168.5 316.61594 168.5Q317.2722 168.5 317.61594 167.98438Q318.1003 167.26562 318.1003 165.17188Q318.1003 163.07812 317.63156 162.35938Q317.2722 161.82812 316.61594 161.82812Q315.94406 161.82812 315.6003 162.35938Q315.11594 163.07812 315.11594 165.17188Z" fill-rule="nonzero"/><path fill="#000000" d="M73.2122 164.48438L77.32157 164.04688Q77.49345 165.4375 78.35282 166.25Q79.22782 167.0625 80.35282 167.0625Q81.63407 167.0625 82.5247 166.01562Q83.43095 164.96875 83.43095 162.85938Q83.43095 160.89062 82.54032 159.90625Q81.6497 158.90625 80.22782 158.90625Q78.4622 158.90625 77.05595 160.48438L73.7122 160.0L75.82157 148.8125L86.7122 148.8125L86.7122 152.67188L78.94657 152.67188L78.30595 156.3125Q79.68095 155.625 81.11845 155.625Q83.85282 155.625 85.75907 157.625Q87.66532 159.60938 87.66532 162.79688Q87.66532 165.4375 86.11845 167.53125Q84.0247 170.35938 80.30595 170.35938Q77.3372 170.35938 75.4622 168.76562Q73.5872 167.17188 73.2122 164.48438ZM97.11845 148.4375Q100.24345 148.4375 101.99345 150.65625Q104.0872 153.29688 104.0872 159.40625Q104.0872 165.5 101.97782 168.17188Q100.24345 170.35938 97.11845 170.35938Q93.97782 170.35938 92.05595 167.95312Q90.1497 165.54688 90.1497 159.35938Q90.1497 153.29688 92.25907 150.64062Q93.99345 148.4375 97.11845 148.4375ZM97.11845 151.84375Q96.36845 151.84375 95.7747 152.32812Q95.19657 152.79688 94.86845 154.03125Q94.44657 155.625 94.44657 159.40625Q94.44657 163.1875 94.82157 164.60938Q95.2122 166.01562 95.79032 166.48438Q96.36845 166.95312 97.11845 166.95312Q97.86845 166.95312 98.44657 166.48438Q99.04032 166.0 99.35282 164.76562Q99.79032 163.1875 99.79032 159.40625Q99.79032 155.625 99.3997 154.21875Q99.0247 152.79688 98.44657 152.32812Q97.86845 151.84375 97.11845 151.84375ZM107.93095 165.89062L112.05595 165.89062L112.05595 168.82812Q112.05595 170.60938 111.74345 171.64062Q111.43095 172.6875 110.57157 173.5Q109.72782 174.32812 108.3997 174.79688L107.60282 173.09375Q108.8372 172.6875 109.36845 171.96875Q109.8997 171.25 109.93095 170.0L107.93095 170.0L107.93095 165.89062ZM122.11845 148.4375Q125.24345 148.4375 126.99345 150.65625Q129.08719 153.29688 129.08719 159.40625Q129.08719 165.5 126.97782 168.17188Q125.24345 170.35938 122.11845 170.35938Q118.97782 170.35938 117.05595 167.95312Q115.1497 165.54688 115.1497 159.35938Q115.1497 153.29688 117.25907 150.64062Q118.99345 148.4375 122.11845 148.4375ZM122.11845 151.84375Q121.36845 151.84375 120.7747 152.32812Q120.19657 152.79688 119.86845 154.03125Q119.44657 155.625 119.44657 159.40625Q119.44657 163.1875 119.82157 164.60938Q120.2122 166.01562 120.79032 166.48438Q121.36845 166.95312 122.11845 166.95312Q122.86845 166.95312 123.44657 166.48438Q124.04032 166.0 124.35282 164.76562Q124.79032 163.1875 124.79032 159.40625Q124.79032 155.625 124.3997 154.21875Q124.0247 152.79688 123.44657 152.32812Q122.86845 151.84375 122.11845 151.84375ZM132.18094 153.82812Q132.18094 150.9375 133.44656 149.54688Q134.72781 148.15625 136.88406 148.15625Q139.13406 148.15625 140.39969 149.54688Q141.66531 150.92188 141.66531 153.82812Q141.66531 156.71875 140.39969 158.10938Q139.13406 159.5 136.96219 159.5Q134.72781 159.5 133.44656 158.125Q132.18094 156.73438 132.18094 153.82812ZM135.39969 153.79688Q135.39969 155.89062 135.88406 156.60938Q136.24344 157.14062 136.88406 157.14062Q137.55594 157.14062 137.91531 156.60938Q138.38406 155.89062 138.38406 153.79688Q138.38406 151.70312 137.91531 151.0Q137.55594 150.45312 136.88406 150.45312Q136.24344 150.45312 135.88406 150.98438Q135.39969 151.70312 135.39969 153.79688ZM140.02469 170.82812L136.97781 170.82812L148.41531 148.15625L151.38406 148.15625L140.02469 170.82812ZM146.68094 165.1875Q146.68094 162.29688 147.94656 160.90625Q149.21219 159.51562 151.39969 159.51562Q153.61844 159.51562 154.88406 160.90625Q156.14969 162.29688 156.14969 165.1875Q156.14969 168.07812 154.88406 169.46875Q153.61844 170.85938 151.44656 170.85938Q149.21219 170.85938 147.94656 169.46875Q146.68094 168.07812 146.68094 165.1875ZM149.88406 165.17188Q149.88406 167.26562 150.36844 167.96875Q150.72781 168.5 151.38406 168.5Q152.04031 168.5 152.38406 167.98438Q152.86844 167.26562 152.86844 165.17188Q152.86844 163.07812 152.39969 162.35938Q152.04031 161.82812 151.38406 161.82812Q150.71219 161.82812 150.36844 162.35938Q149.88406 163.07812 149.88406 165.17188Z" fill-rule="nonzero"/></svg>
