<svg version="1.1" viewBox="0.0 0.0 395.0 319.0" fill="none" stroke="none" stroke-linecap="square" stroke-miterlimit="10" width="395" height="319" xmlns:xlink="http://www.w3.org/1999/xlink" xmlns="http://www.w3.org/2000/svg"><path fill="#ffffff" d="M0 0L395.0 0L395.0 319.0L0 319.0L0 0Z" fill-rule="nonzero"/><path fill="#fbbc04" d="M197.5 15.95C276.7805 15.95 341.05 80.21952 341.05 159.5C341.05 238.78047 276.7805 303.05 197.5 303.05L197.5 159.5Z" fill-rule="nonzero"/><path fill="#fff2cc" d="M81.36561 243.87657C49.636738 200.20552 45.08943 142.42654 69.596016 94.329666C94.10259 46.23279 143.51962 15.95 197.5 15.95L197.5 159.5Z" fill-rule="nonzero"/><path fill="#6aa84f" d="M197.5 303.05C151.54892 303.05 108.37498 281.0518 81.36561 243.87657L197.5 159.5Z" fill-rule="nonzero"/><path fill="#000000" d="M238.44406 164.48438L242.55344 164.04688Q242.72531 165.4375 243.58469 166.25Q244.45969 167.0625 245.58469 167.0625Q246.86594 167.0625 247.75656 166.01562Q248.66281 164.96875 248.66281 162.85938Q248.66281 160.89062 247.77219 159.90625Q246.88156 158.90625 245.45969 158.90625Q243.69406 158.90625 242.28781 160.48438L238.94406 160.0L241.05344 148.8125L251.94406 148.8125L251.94406 152.67188L244.17844 152.67188L243.53781 156.3125Q244.91281 155.625 246.35031 155.625Q249.08469 155.625 250.99094 157.625Q252.89719 159.60938 252.89719 162.79688Q252.89719 165.4375 251.35031 167.53125Q249.25656 170.35938 245.53781 170.35938Q242.56906 170.35938 240.69406 168.76562Q238.81906 167.17188 238.44406 164.48438ZM262.3503 148.4375Q265.4753 148.4375 267.2253 150.65625Q269.31906 153.29688 269.31906 159.40625Q269.31906 165.5 267.2097 168.17188Q265.4753 170.35938 262.3503 170.35938Q259.2097 170.35938 257.2878 167.95312Q255.38156 165.54688 255.38156 159.35938Q255.38156 153.29688 257.49094 150.64062Q259.2253 148.4375 262.3503 148.4375ZM262.3503 151.84375Q261.6003 151.84375 261.00656 152.32812Q260.42844 152.79688 260.1003 154.03125Q259.67844 155.625 259.67844 159.40625Q259.67844 163.1875 260.05344 164.60938Q260.44406 166.01562 261.0222 166.48438Q261.6003 166.95312 262.3503 166.95312Q263.1003 166.95312 263.67844 166.48438Q264.2722 166.0 264.5847 164.76562Q265.0222 163.1875 265.0222 159.40625Q265.0222 155.625 264.63156 154.21875Q264.25656 152.79688 263.67844 152.32812Q263.1003 151.84375 262.3503 151.84375ZM273.1628 165.89062L277.2878 165.89062L277.2878 168.82812Q277.2878 170.60938 276.9753 171.64062Q276.6628 172.6875 275.80344 173.5Q274.9597 174.32812 273.63156 174.79688L272.8347 173.09375Q274.06906 172.6875 274.6003 171.96875Q275.13156 171.25 275.1628 170.0L273.1628 170.0L273.1628 165.89062ZM287.3503 148.4375Q290.4753 148.4375 292.2253 150.65625Q294.31906 153.29688 294.31906 159.40625Q294.31906 165.5 292.2097 168.17188Q290.4753 170.35938 287.3503 170.35938Q284.2097 170.35938 282.2878 167.95312Q280.38156 165.54688 280.38156 159.35938Q280.38156 153.29688 282.49094 150.64062Q284.2253 148.4375 287.3503 148.4375ZM287.3503 151.84375Q286.6003 151.84375 286.00656 152.32812Q285.42844 152.79688 285.1003 154.03125Q284.67844 155.625 284.67844 159.40625Q284.67844 163.1875 285.05344 164.60938Q285.44406 166.01562 286.0222 166.48438Q286.6003 166.95312 287.3503 166.95312Q288.1003 166.95312 288.67844 166.48438Q289.2722 166.0 289.5847 164.76562Q290.0222 163.1875 290.0222 159.40625Q290.0222 155.625 289.63156 154.21875Q289.25656 152.79688 288.67844 152.32812Q288.1003 151.84375 287.3503 151.84375ZM297.4128 153.82812Q297.4128 150.9375 298.67844 149.54688Q299.9597 148.15625 302.11594 148.15625Q304.36594 148.15625 305.63156 149.54688Q306.8972 150.92188 306.8972 153.82812Q306.8972 156.71875 305.63156 158.10938Q304.36594 159.5 302.19406 159.5Q299.9597 159.5 298.67844 158.125Q297.4128 156.73438 297.4128 153.82812ZM300.63156 153.79688Q300.63156 155.89062 301.11594 156.60938Q301.4753 157.14062 302.11594 157.14062Q302.7878 157.14062 303.1472 156.60938Q303.61594 155.89062 303.61594 153.79688Q303.61594 151.70312 303.1472 151.0Q302.7878 150.45312 302.11594 150.45312Q301.4753 150.45312 301.11594 150.98438Q300.63156 151.70312 300.63156 153.79688ZM305.25656 170.82812L302.2097 170.82812L313.6472 148.15625L316.61594 148.15625L305.25656 170.82812ZM311.9128 165.1875Q311.9128 162.29688 313.17844 160.90625Q314.44406 159.51562 316.63156 159.51562Q318.8503 159.51562 320.11594 160.90625Q321.38156 162.29688 321.38156 165.1875Q321.38156 168.07812 320.11594 169.46875Q318.8503 170.85938 316.67844 170.85938Q314.44406 170.85938 313.17844 169.46875Q311.9128 168.07812 311.9128 165.1875ZM315.11594 165.17188Q315.11594 167.26562 315.6003 167.96875Q315.9597 168.5 316.61594 168.5Q317.2722 168.5 317.61594 167.98438Q318.1003 167.26562 318.1003 165.17188Q318.1003 163.07812 317.63156 162.35938Q317.2722 161.82812 316.61594 161.82812Q315.94406 161.82812 315.6003 162.35938Q315.11594 163.07812 315.11594 165.17188Z" fill-rule="nonzero"/><path fill="#000000" d="M131.03236 250.75543L127.73549 250.75543L127.73549 238.34918Q125.92299 240.03668 123.48549 240.83356L123.48549 237.84918Q124.76674 237.4273 126.282364 236.25543Q127.79799 235.06793 128.36049 233.50543L131.03236 233.50543L131.03236 250.75543ZM135.64174 246.33356L138.92299 245.9898Q139.06361 247.1148 139.75111 247.77106Q140.45424 248.41168 141.36049 248.41168Q142.39174 248.41168 143.09486 247.58356Q143.81361 246.7398 143.81361 245.0523Q143.81361 243.45856 143.09486 242.6773Q142.39174 241.88043 141.26674 241.88043Q139.84486 241.88043 138.71986 243.13043L136.04799 242.75543L137.73549 233.8023L146.43861 233.8023L146.43861 236.89606L140.23549 236.89606L139.71986 239.8023Q140.81361 239.25543 141.96986 239.25543Q144.15736 239.25543 145.67299 240.84918Q147.20424 242.44293 147.20424 244.9898Q147.20424 247.1148 145.96986 248.77106Q144.29799 251.0523 141.31361 251.0523Q138.93861 251.0523 137.43861 249.77106Q135.93861 248.4898 135.64174 246.33356ZM149.21986 247.45856L152.51674 247.45856L152.51674 249.81793Q152.51674 251.25543 152.26674 252.06793Q152.01674 252.89606 151.32924 253.5523Q150.65736 254.20856 149.59486 254.58356L148.95424 253.22418Q149.95424 252.89606 150.37611 252.31793Q150.79799 251.75543 150.81361 250.75543L149.21986 250.75543L149.21986 247.45856ZM161.17299 233.50543Q163.65736 233.50543 165.06361 235.28668Q166.75111 237.39606 166.75111 242.28668Q166.75111 247.16168 165.06361 249.28668Q163.65736 251.0523 161.17299 251.0523Q158.65736 251.0523 157.12611 249.13043Q155.59486 247.19293 155.59486 242.2398Q155.59486 237.39606 157.28236 235.25543Q158.67299 233.50543 161.17299 233.50543ZM161.17299 236.2398Q160.56361 236.2398 160.09486 236.6148Q159.62611 236.9898 159.37611 237.97418Q159.03236 239.25543 159.03236 242.28668Q159.03236 245.3023 159.32924 246.44293Q159.64174 247.56793 160.09486 247.94293Q160.56361 248.31793 161.17299 248.31793Q161.76674 248.31793 162.23549 247.94293Q162.70424 247.5523 162.95424 246.56793Q163.29799 245.3023 163.29799 242.28668Q163.29799 239.25543 162.98549 238.13043Q162.68861 236.9898 162.21986 236.6148Q161.76674 236.2398 161.17299 236.2398ZM168.62611 237.81793Q168.62611 235.50543 169.64174 234.39606Q170.65736 233.28668 172.39174 233.28668Q174.17299 233.28668 175.18861 234.39606Q176.20424 235.4898 176.20424 237.81793Q176.20424 240.13043 175.18861 241.2398Q174.17299 242.34918 172.43861 242.34918Q170.65736 242.34918 169.64174 241.2398Q168.62611 240.13043 168.62611 237.81793ZM171.18861 237.78668Q171.18861 239.47418 171.57924 240.03668Q171.87611 240.45856 172.39174 240.45856Q172.90736 240.45856 173.20424 240.03668Q173.57924 239.47418 173.57924 237.78668Q173.57924 236.1148 173.20424 235.5523Q172.90736 235.1148 172.39174 235.1148Q171.87611 235.1148 171.57924 235.53668Q171.18861 236.1148 171.18861 237.78668ZM174.89174 251.41168L172.45424 251.41168L181.61049 233.28668L183.96986 233.28668L174.89174 251.41168ZM180.21986 246.89606Q180.21986 244.58356 181.21986 243.47418Q182.23549 242.3648 184.00111 242.3648Q185.76674 242.3648 186.78236 243.47418Q187.79799 244.58356 187.79799 246.89606Q187.79799 249.22418 186.78236 250.33356Q185.76674 251.44293 184.03236 251.44293Q182.23549 251.44293 181.21986 250.33356Q180.21986 249.22418 180.21986 246.89606ZM182.78236 246.88043Q182.78236 248.56793 183.17299 249.13043Q183.45424 249.5523 183.96986 249.5523Q184.50111 249.5523 184.78236 249.13043Q185.17299 248.56793 185.17299 246.88043Q185.17299 245.20856 184.79799 244.63043Q184.50111 244.20856 183.96986 244.20856Q183.45424 244.20856 183.17299 244.63043Q182.78236 245.20856 182.78236 246.88043Z" fill-rule="nonzero"/><path fill="#000000" d="M86.1574 128.90137L90.14178 128.41699Q90.32928 129.94824 91.1574 130.76074Q92.00115 131.55762 93.18865 131.55762Q94.4699 131.55762 95.32928 130.58887Q96.20428 129.62012 96.20428 127.97949Q96.20428 126.43262 95.36053 125.52637Q94.5324 124.62012 93.3449 124.62012Q92.54803 124.62012 91.45428 124.91699L91.9074 121.57324Q93.57928 121.60449 94.45428 120.83887Q95.32928 120.07324 95.32928 118.79199Q95.32928 117.71387 94.68865 117.07324Q94.04803 116.43262 92.9699 116.43262Q91.92303 116.43262 91.17303 117.16699Q90.42303 117.88574 90.26678 119.29199L86.4699 118.65137Q86.86053 116.69824 87.6574 115.54199Q88.45428 114.37012 89.87615 113.71387Q91.31365 113.04199 93.0949 113.04199Q96.12615 113.04199 97.95428 114.97949Q99.45428 116.55762 99.45428 118.54199Q99.45428 121.37012 96.37615 123.05762Q98.2199 123.46387 99.31365 124.83887Q100.42303 126.21387 100.42303 128.15137Q100.42303 130.97949 98.36053 132.97949Q96.29803 134.96387 93.2199 134.96387Q90.31365 134.96387 88.39178 133.29199Q86.4699 131.62012 86.1574 128.90137ZM103.36053 129.08887L107.4699 128.65137Q107.64178 130.04199 108.50115 130.85449Q109.37615 131.66699 110.50115 131.66699Q111.7824 131.66699 112.67303 130.62012Q113.57928 129.57324 113.57928 127.46387Q113.57928 125.49512 112.68865 124.51074Q111.79803 123.51074 110.37615 123.51074Q108.61053 123.51074 107.20428 125.08887L103.86053 124.60449L105.9699 113.41699L116.86053 113.41699L116.86053 117.27637L109.0949 117.27637L108.45428 120.91699Q109.82928 120.22949 111.26678 120.22949Q114.00115 120.22949 115.9074 122.22949Q117.81365 124.21387 117.81365 127.40137Q117.81365 130.04199 116.26678 132.13574Q114.17303 134.96387 110.45428 134.96387Q107.48553 134.96387 105.61053 133.37012Q103.73553 131.77637 103.36053 129.08887ZM121.07928 130.49512L125.20428 130.49512L125.20428 133.43262Q125.20428 135.21387 124.89178 136.24512Q124.57928 137.29199 123.7199 138.10449Q122.87615 138.93262 121.54803 139.40137L120.75115 137.69824Q121.98553 137.29199 122.51678 136.57324Q123.04803 135.85449 123.07928 134.60449L121.07928 134.60449L121.07928 130.49512ZM135.26678 113.04199Q138.39178 113.04199 140.14178 115.26074Q142.23553 117.90137 142.23553 124.01074Q142.23553 130.10449 140.12616 132.77637Q138.39178 134.96387 135.26678 134.96387Q132.12616 134.96387 130.20428 132.55762Q128.29803 130.15137 128.29803 123.96387Q128.29803 117.90137 130.40741 115.24512Q132.14178 113.04199 135.26678 113.04199ZM135.26678 116.44824Q134.51678 116.44824 133.92303 116.93262Q133.34491 117.40137 133.01678 118.63574Q132.59491 120.22949 132.59491 124.01074Q132.59491 127.79199 132.96991 129.21387Q133.36053 130.62012 133.93866 131.08887Q134.51678 131.55762 135.26678 131.55762Q136.01678 131.55762 136.59491 131.08887Q137.18866 130.60449 137.50116 129.37012Q137.93866 127.79199 137.93866 124.01074Q137.93866 120.22949 137.54803 118.82324Q137.17303 117.40137 136.59491 116.93262Q136.01678 116.44824 135.26678 116.44824ZM145.32928 118.43262Q145.32928 115.54199 146.59491 114.15137Q147.87616 112.76074 150.03241 112.76074Q152.28241 112.76074 153.54803 114.15137Q154.81366 115.52637 154.81366 118.43262Q154.81366 121.32324 153.54803 122.71387Q152.28241 124.10449 150.11053 124.10449Q147.87616 124.10449 146.59491 122.72949Q145.32928 121.33887 145.32928 118.43262ZM148.54803 118.40137Q148.54803 120.49512 149.03241 121.21387Q149.39178 121.74512 150.03241 121.74512Q150.70428 121.74512 151.06366 121.21387Q151.53241 120.49512 151.53241 118.40137Q151.53241 116.30762 151.06366 115.60449Q150.70428 115.05762 150.03241 115.05762Q149.39178 115.05762 149.03241 115.58887Q148.54803 116.30762 148.54803 118.40137ZM153.17303 135.43262L150.12616 135.43262L161.56366 112.76074L164.53241 112.76074L153.17303 135.43262ZM159.82928 129.79199Q159.82928 126.90137 161.09491 125.51074Q162.36053 124.12012 164.54803 124.12012Q166.76678 124.12012 168.03241 125.51074Q169.29803 126.90137 169.29803 129.79199Q169.29803 132.68262 168.03241 134.07324Q166.76678 135.46387 164.59491 135.46387Q162.36053 135.46387 161.09491 134.07324Q159.82928 132.68262 159.82928 129.79199ZM163.03241 129.77637Q163.03241 131.87012 163.51678 132.57324Q163.87616 133.10449 164.53241 133.10449Q165.18866 133.10449 165.53241 132.58887Q166.01678 131.87012 166.01678 129.77637Q166.01678 127.68262 165.54803 126.96387Q165.18866 126.43262 164.53241 126.43262Q163.86053 126.43262 163.51678 126.96387Q163.03241 127.68262 163.03241 129.77637Z" fill-rule="nonzero"/></svg>