<svg version="1.1" viewBox="0.0 0.0 395.0 319.0" fill="none" stroke="none" stroke-linecap="square" stroke-miterlimit="10" width="395" height="319" xmlns:xlink="http://www.w3.org/1999/xlink" xmlns="http://www.w3.org/2000/svg"><path fill="#ffffff" d="M0 0L395.0 0L395.0 319.0L0 319.0L0 0Z" fill-rule="nonzero"/><path fill="#fbbc04" d="M197.5 15.95C243.45108 15.95 286.62503 37.948227 313.6344 75.12343C340.64377 112.29863 348.22382 160.15732 334.02417 203.85939L197.5 159.5Z" fill-rule="nonzero"/><path fill="#6aa84f" d="M334.02417 203.85939C314.80652 263.00525 259.68964 303.05 197.5 303.05L197.5 159.5Z" fill-rule="nonzero"/><path fill="#fff2cc" d="M197.5 303.05C118.21952 303.05 53.95 238.78047 53.95 159.5C53.95 80.21952 118.21952 15.95 197.5 15.95L197.5 159.5Z" fill-rule="nonzero"/><path fill="#000000" d="M218.89426 118.32906L222.87863 117.84469Q223.06613 119.37594 223.89426 120.18844Q224.738 120.98531 225.9255 120.98531Q227.20676 120.98531 228.06613 120.01656Q228.94113 119.04781 228.94113 117.40719Q228.94113 115.86031 228.09738 114.95406Q227.26926 114.04781 226.08176 114.04781Q225.28488 114.04781 224.19113 114.34469L224.64426 111.00094Q226.31613 111.03219 227.19113 110.26656Q228.06613 109.50094 228.06613 108.21969Q228.06613 107.14156 227.4255 106.50094Q226.78488 105.86031 225.70676 105.86031Q224.65988 105.86031 223.90988 106.59469Q223.15988 107.31344 223.00363 108.71969L219.20676 108.07906Q219.59738 106.12594 220.39426 104.96969Q221.19113 103.79781 222.613 103.14156Q224.0505 102.46969 225.83176 102.46969Q228.863 102.46969 230.69113 104.40719Q232.19113 105.98531 232.19113 107.96969Q232.19113 110.79781 229.113 112.48531Q230.95676 112.89156 232.0505 114.26656Q233.15988 115.64156 233.15988 117.57906Q233.15988 120.40719 231.09738 122.40719Q229.03488 124.39156 225.95676 124.39156Q223.0505 124.39156 221.12863 122.71969Q219.20676 121.04781 218.89426 118.32906ZM243.00363 102.46969Q246.12863 102.46969 247.87863 104.68844Q249.97238 107.32906 249.97238 113.43844Q249.97238 119.53219 247.863 122.20406Q246.12863 124.39156 243.00363 124.39156Q239.863 124.39156 237.94113 121.98531Q236.03488 119.57906 236.03488 113.39156Q236.03488 107.32906 238.14426 104.67281Q239.87863 102.46969 243.00363 102.46969ZM243.00363 105.87594Q242.25363 105.87594 241.65988 106.36031Q241.08176 106.82906 240.75363 108.06344Q240.33176 109.65719 240.33176 113.43844Q240.33176 117.21969 240.70676 118.64156Q241.09738 120.04781 241.6755 120.51656Q242.25363 120.98531 243.00363 120.98531Q243.75363 120.98531 244.33176 120.51656Q244.9255 120.03219 245.238 118.79781Q245.6755 117.21969 245.6755 113.43844Q245.6755 109.65719 245.28488 108.25094Q244.90988 106.82906 244.33176 106.36031Q243.75363 105.87594 243.00363 105.87594ZM253.81613 119.92281L257.94113 119.92281L257.94113 122.86031Q257.94113 124.64156 257.62863 125.67281Q257.31613 126.71969 256.45676 127.53219Q255.613 128.36032 254.28488 128.82907L253.488 127.12594Q254.72238 126.71969 255.25363 126.00094Q255.78488 125.28219 255.81613 124.03219L253.81613 124.03219L253.81613 119.92281ZM268.00363 102.46969Q271.12863 102.46969 272.87863 104.68844Q274.97238 107.32906 274.97238 113.43844Q274.97238 119.53219 272.863 122.20406Q271.12863 124.39156 268.00363 124.39156Q264.863 124.39156 262.94113 121.98531Q261.03488 119.57906 261.03488 113.39156Q261.03488 107.32906 263.14426 104.67281Q264.87863 102.46969 268.00363 102.46969ZM268.00363 105.87594Q267.25363 105.87594 266.65988 106.36031Q266.08176 106.82906 265.75363 108.06344Q265.33176 109.65719 265.33176 113.43844Q265.33176 117.21969 265.70676 118.64156Q266.09738 120.04781 266.6755 120.51656Q267.25363 120.98531 268.00363 120.98531Q268.75363 120.98531 269.33176 120.51656Q269.9255 120.03219 270.238 118.79781Q270.6755 117.21969 270.6755 113.43844Q270.6755 109.65719 270.28488 108.25094Q269.90988 106.82906 269.33176 106.36031Q268.75363 105.87594 268.00363 105.87594ZM278.06613 107.86031Q278.06613 104.96969 279.33176 103.57906Q280.613 102.18844 282.76926 102.18844Q285.01926 102.18844 286.28488 103.57906Q287.5505 104.95406 287.5505 107.86031Q287.5505 110.75094 286.28488 112.14156Q285.01926 113.53219 282.84738 113.53219Q280.613 113.53219 279.33176 112.15719Q278.06613 110.76656 278.06613 107.86031ZM281.28488 107.82906Q281.28488 109.92281 281.76926 110.64156Q282.12863 111.17281 282.76926 111.17281Q283.44113 111.17281 283.8005 110.64156Q284.26926 109.92281 284.26926 107.82906Q284.26926 105.73531 283.8005 105.03219Q283.44113 104.48531 282.76926 104.48531Q282.12863 104.48531 281.76926 105.01656Q281.28488 105.73531 281.28488 107.82906ZM285.90988 124.86031L282.863 124.86031L294.3005 102.18844L297.26926 102.18844L285.90988 124.86031ZM292.56613 119.21969Q292.56613 116.32906 293.83176 114.93844Q295.09738 113.54781 297.28488 113.54781Q299.50363 113.54781 300.76926 114.93844Q302.03488 116.32906 302.03488 119.21969Q302.03488 122.11031 300.76926 123.50094Q299.50363 124.89156 297.33176 124.89156Q295.09738 124.89156 293.83176 123.50094Q292.56613 122.11031 292.56613 119.21969ZM295.76926 119.20406Q295.76926 121.29781 296.25363 122.00094Q296.613 122.53219 297.26926 122.53219Q297.9255 122.53219 298.26926 122.01656Q298.75363 121.29781 298.75363 119.20406Q298.75363 117.11031 298.28488 116.39156Q297.9255 115.86031 297.26926 115.86031Q296.59738 115.86031 296.25363 116.39156Q295.76926 117.11031 295.76926 119.20406Z" fill-rule="nonzero"/><path fill="#000000" d="M217.50166 232.00394L217.50166 235.83206L203.07979 235.83206Q203.31416 233.66019 204.48604 231.72269Q205.65791 229.78519 209.11104 226.56644Q211.89229 223.98831 212.53291 223.05081Q213.37666 221.78519 213.37666 220.53519Q213.37666 219.16019 212.62666 218.42581Q211.89229 217.67581 210.59541 217.67581Q209.29854 217.67581 208.53291 218.45706Q207.78291 219.23831 207.65791 221.03519L203.56416 220.62894Q203.92354 217.22269 205.86104 215.75394Q207.79854 214.26956 210.68916 214.26956Q213.87666 214.26956 215.68916 215.98831Q217.50166 217.69144 217.50166 220.23831Q217.50166 221.69144 216.98604 223.00394Q216.47041 224.31644 215.34541 225.75394Q214.59541 226.70706 212.64229 228.50394Q210.68916 230.28519 210.17354 230.87894Q209.65791 231.45706 209.32979 232.00394L217.50166 232.00394ZM227.56416 214.26956Q230.68916 214.26956 232.43916 216.48831Q234.53291 219.12894 234.53291 225.23831Q234.53291 231.33206 232.42354 234.00394Q230.68916 236.19144 227.56416 236.19144Q224.42354 236.19144 222.50166 233.78519Q220.59541 231.37894 220.59541 225.19144Q220.59541 219.12894 222.70479 216.47269Q224.43916 214.26956 227.56416 214.26956ZM227.56416 217.67581Q226.81416 217.67581 226.22041 218.16019Q225.64229 218.62894 225.31416 219.86331Q224.89229 221.45706 224.89229 225.23831Q224.89229 229.01956 225.26729 230.44144Q225.65791 231.84769 226.23604 232.31644Q226.81416 232.78519 227.56416 232.78519Q228.31416 232.78519 228.89229 232.31644Q229.48604 231.83206 229.79854 230.59769Q230.23604 229.01956 230.23604 225.23831Q230.23604 221.45706 229.84541 220.05081Q229.47041 218.62894 228.89229 218.16019Q228.31416 217.67581 227.56416 217.67581ZM238.37666 231.72269L242.50166 231.72269L242.50166 234.66019Q242.50166 236.44144 242.18916 237.47269Q241.87666 238.51956 241.01729 239.33206Q240.17354 240.16019 238.84541 240.62894L238.04854 238.92581Q239.28291 238.51956 239.81416 237.80081Q240.34541 237.08206 240.37666 235.83206L238.37666 235.83206L238.37666 231.72269ZM252.56416 214.26956Q255.68916 214.26956 257.43915 216.48831Q259.5329 219.12894 259.5329 225.23831Q259.5329 231.33206 257.42352 234.00394Q255.68916 236.19144 252.56416 236.19144Q249.42354 236.19144 247.50166 233.78519Q245.59541 231.37894 245.59541 225.19144Q245.59541 219.12894 247.70479 216.47269Q249.43916 214.26956 252.56416 214.26956ZM252.56416 217.67581Q251.81416 217.67581 251.22041 218.16019Q250.64229 218.62894 250.31416 219.86331Q249.89229 221.45706 249.89229 225.23831Q249.89229 229.01956 250.26729 230.44144Q250.65791 231.84769 251.23604 232.31644Q251.81416 232.78519 252.56416 232.78519Q253.31416 232.78519 253.89229 232.31644Q254.48604 231.83206 254.79854 230.59769Q255.23604 229.01956 255.23604 225.23831Q255.23604 221.45706 254.84541 220.05081Q254.47041 218.62894 253.89229 218.16019Q253.31416 217.67581 252.56416 217.67581ZM262.62665 219.66019Q262.62665 216.76956 263.89227 215.37894Q265.17352 213.98831 267.32977 213.98831Q269.57977 213.98831 270.8454 215.37894Q272.11102 216.75394 272.11102 219.66019Q272.11102 222.55081 270.8454 223.94144Q269.57977 225.33206 267.4079 225.33206Q265.17352 225.33206 263.89227 223.95706Q262.62665 222.56644 262.62665 219.66019ZM265.8454 219.62894Q265.8454 221.72269 266.32977 222.44144Q266.68915 222.97269 267.32977 222.97269Q268.00165 222.97269 268.36102 222.44144Q268.82977 221.72269 268.82977 219.62894Q268.82977 217.53519 268.36102 216.83206Q268.00165 216.28519 267.32977 216.28519Q266.68915 216.28519 266.32977 216.81644Q265.8454 217.53519 265.8454 219.62894ZM270.4704 236.66019L267.42352 236.66019L278.86102 213.98831L281.82977 213.98831L270.4704 236.66019ZM277.12665 231.01956Q277.12665 228.12894 278.39227 226.73831Q279.6579 225.34769 281.8454 225.34769Q284.06415 225.34769 285.32977 226.73831Q286.5954 228.12894 286.5954 231.01956Q286.5954 233.91019 285.32977 235.30081Q284.06415 236.69144 281.89227 236.69144Q279.6579 236.69144 278.39227 235.30081Q277.12665 233.91019 277.12665 231.01956ZM280.32977 231.00394Q280.32977 233.09769 280.81415 233.80081Q281.17352 234.33206 281.82977 234.33206Q282.48602 234.33206 282.82977 233.81644Q283.31415 233.09769 283.31415 231.00394Q283.31415 228.91019 282.8454 228.19144Q282.48602 227.66019 281.82977 227.66019Q281.1579 227.66019 280.81415 228.19144Q280.32977 228.91019 280.32977 231.00394Z" fill-rule="nonzero"/><path fill="#000000" d="M73.2122 164.48438L77.32157 164.04688Q77.49345 165.4375 78.35282 166.25Q79.22782 167.0625 80.35282 167.0625Q81.63407 167.0625 82.5247 166.01562Q83.43095 164.96875 83.43095 162.85938Q83.43095 160.89062 82.54032 159.90625Q81.6497 158.90625 80.22782 158.90625Q78.4622 158.90625 77.05595 160.48438L73.7122 160.0L75.82157 148.8125L86.7122 148.8125L86.7122 152.67188L78.94657 152.67188L78.30595 156.3125Q79.68095 155.625 81.11845 155.625Q83.85282 155.625 85.75907 157.625Q87.66532 159.60938 87.66532 162.79688Q87.66532 165.4375 86.11845 167.53125Q84.0247 170.35938 80.30595 170.35938Q77.3372 170.35938 75.4622 168.76562Q73.5872 167.17188 73.2122 164.48438ZM97.11845 148.4375Q100.24345 148.4375 101.99345 150.65625Q104.0872 153.29688 104.0872 159.40625Q104.0872 165.5 101.97782 168.17188Q100.24345 170.35938 97.11845 170.35938Q93.97782 170.35938 92.05595 167.95312Q90.1497 165.54688 90.1497 159.35938Q90.1497 153.29688 92.25907 150.64062Q93.99345 148.4375 97.11845 148.4375ZM97.11845 151.84375Q96.36845 151.84375 95.7747 152.32812Q95.19657 152.79688 94.86845 154.03125Q94.44657 155.625 94.44657 159.40625Q94.44657 163.1875 94.82157 164.60938Q95.2122 166.01562 95.79032 166.48438Q96.36845 166.95312 97.11845 166.95312Q97.86845 166.95312 98.44657 166.48438Q99.04032 166.0 99.35282 164.76562Q99.79032 163.1875 99.79032 159.40625Q99.79032 155.625 99.3997 154.21875Q99.0247 152.79688 98.44657 152.32812Q97.86845 151.84375 97.11845 151.84375ZM107.93095 165.89062L112.05595 165.89062L112.05595 168.82812Q112.05595 170.60938 111.74345 171.64062Q111.43095 172.6875 110.57157 173.5Q109.72782 174.32812 108.3997 174.79688L107.60282 173.09375Q108.8372 172.6875 109.36845 171.96875Q109.8997 171.25 109.93095 170.0L107.93095 170.0L107.93095 165.89062ZM122.11845 148.4375Q125.24345 148.4375 126.99345 150.65625Q129.08719 153.29688 129.08719 159.40625Q129.08719 165.5 126.97782 168.17188Q125.24345 170.35938 122.11845 170.35938Q118.97782 170.35938 117.05595 167.95312Q115.1497 165.54688 115.1497 159.35938Q115.1497 153.29688 117.25907 150.64062Q118.99345 148.4375 122.11845 148.4375ZM122.11845 151.84375Q121.36845 151.84375 120.7747 152.32812Q120.19657 152.79688 119.86845 154.03125Q119.44657 155.625 119.44657 159.40625Q119.44657 163.1875 119.82157 164.60938Q120.2122 166.01562 120.79032 166.48438Q121.36845 166.95312 122.11845 166.95312Q122.86845 166.95312 123.44657 166.48438Q124.04032 166.0 124.35282 164.76562Q124.79032 163.1875 124.79032 159.40625Q124.79032 155.625 124.3997 154.21875Q124.0247 152.79688 123.44657 152.32812Q122.86845 151.84375 122.11845 151.84375ZM132.18094 153.82812Q132.18094 150.9375 133.44656 149.54688Q134.72781 148.15625 136.88406 148.15625Q139.13406 148.15625 140.39969 149.54688Q141.66531 150.92188 141.66531 153.82812Q141.66531 156.71875 140.39969 158.10938Q139.13406 159.5 136.96219 159.5Q134.72781 159.5 133.44656 158.125Q132.18094 156.73438 132.18094 153.82812ZM135.39969 153.79688Q135.39969 155.89062 135.88406 156.60938Q136.24344 157.14062 136.88406 157.14062Q137.55594 157.14062 137.91531 156.60938Q138.38406 155.89062 138.38406 153.79688Q138.38406 151.70312 137.91531 151.0Q137.55594 150.45312 136.88406 150.45312Q136.24344 150.45312 135.88406 150.98438Q135.39969 151.70312 135.39969 153.79688ZM140.02469 170.82812L136.97781 170.82812L148.41531 148.15625L151.38406 148.15625L140.02469 170.82812ZM146.68094 165.1875Q146.68094 162.29688 147.94656 160.90625Q149.21219 159.51562 151.39969 159.51562Q153.61844 159.51562 154.88406 160.90625Q156.14969 162.29688 156.14969 165.1875Q156.14969 168.07812 154.88406 169.46875Q153.61844 170.85938 151.44656 170.85938Q149.21219 170.85938 147.94656 169.46875Q146.68094 168.07812 146.68094 165.1875ZM149.88406 165.17188Q149.88406 167.26562 150.36844 167.96875Q150.72781 168.5 151.38406 168.5Q152.04031 168.5 152.38406 167.98438Q152.86844 167.26562 152.86844 165.17188Q152.86844 163.07812 152.39969 162.35938Q152.04031 161.82812 151.38406 161.82812Q150.71219 161.82812 150.36844 162.35938Q149.88406 163.07812 149.88406 165.17188Z" fill-rule="nonzero"/></svg>