<svg width="151" height="131" viewBox="0 0 151 131" fill="none" xmlns="http://www.w3.org/2000/svg">
<g clip-path="url(#clip0)">
<path d="M151 130.309H49.1028V130.713H151V130.309Z" fill="#3F3D56"/>
<path d="M131.984 61.7186C132.18 61.9301 132.325 62.1771 132.411 62.4435C132.496 62.71 132.52 62.9899 132.48 63.2653C132.44 63.5406 132.338 63.8052 132.179 64.0419C132.021 64.2786 131.81 64.4822 131.561 64.6394L121.015 71.2844L116.372 74.1256C116.108 74.287 115.788 74.3526 115.475 74.3095C115.161 74.2665 114.876 74.1179 114.676 73.8927C114.559 73.7614 114.474 73.6084 114.428 73.4442C114.381 73.2799 114.374 73.1085 114.407 72.9416C114.44 72.7747 114.513 72.6163 114.619 72.4775C114.725 72.3387 114.863 72.2227 115.023 72.1375L119.52 69.7406L127.37 62.8795L122.324 57.9052L126.061 55.3323L131.984 61.7186Z" fill="#A0616A"/>
<path d="M107.185 124.287H104.606L103.074 104.732L109.615 104.561L107.185 124.287Z" fill="#A0616A"/>
<path d="M107.372 130.633C106.684 130.921 106.108 128.587 105.528 129.11C103.905 130.574 101.42 130.893 99.2539 130.254L100.012 130.246C99.8813 130.207 99.7605 130.145 99.6569 130.062C99.5533 129.98 99.469 129.878 99.4092 129.765C99.3494 129.652 99.3154 129.528 99.3091 129.402C99.3028 129.276 99.3244 129.151 99.3726 129.033C99.4303 128.891 99.5245 128.765 99.6471 128.665C99.7697 128.564 99.917 128.493 100.076 128.456L101.802 128.06L104.512 123.686L107.279 123.515C107.896 124.236 108.326 125.077 108.538 125.973C108.749 126.87 108.737 127.798 108.501 128.69C108.25 129.63 107.863 130.428 107.372 130.633Z" fill="#2F2E41"/>
<path d="M124.361 124.287H121.781L120.249 104.732L126.977 103.532L124.361 124.287Z" fill="#A0616A"/>
<path d="M124.548 130.633C123.86 130.921 123.284 128.587 122.704 129.11C121.081 130.574 118.596 130.893 116.43 130.254L117.188 130.246C117.057 130.207 116.936 130.145 116.833 130.062C116.729 129.98 116.645 129.878 116.585 129.765C116.525 129.652 116.491 129.528 116.485 129.402C116.478 129.276 116.5 129.151 116.548 129.033C116.606 128.891 116.7 128.765 116.823 128.665C116.945 128.564 117.093 128.493 117.252 128.456L118.978 128.06L121.688 123.686L124.641 123.343L124.716 123.455C125.287 124.3 125.655 125.246 125.796 126.232C125.936 127.217 125.846 128.219 125.532 129.17C125.286 129.892 124.952 130.464 124.548 130.633Z" fill="#2F2E41"/>
<path d="M127.286 55.7746C124.914 56.0776 123.271 57.2699 122.603 59.6484L118.242 52.2594C117.984 51.7898 117.918 51.2505 118.058 50.7401C118.197 50.2298 118.532 49.7827 119.002 49.4808C119.5 49.1604 120.113 49.0269 120.715 49.1078C121.317 49.1887 121.863 49.4778 122.24 49.9158L127.286 55.7746Z" fill="#F9A826"/>
<path d="M131.855 102.674C121.253 106.979 110.403 107.509 99.3358 104.732C103.377 90.3466 108.149 77.3386 108.12 66.6532L118.96 65.7955L120.629 68.224C124.588 73.9856 127.322 80.3842 128.684 87.0807L131.855 102.674Z" fill="#2F2E41"/>
<path d="M114.1 44.5261C117.197 44.5261 119.707 42.2222 119.707 39.3802C119.707 36.5382 117.197 34.2344 114.1 34.2344C111.004 34.2344 108.494 36.5382 108.494 39.3802C108.494 42.2222 111.004 44.5261 114.1 44.5261Z" fill="#A0616A"/>
<path d="M120.268 48.4712L113.353 48.8142L112.231 43.1538L117.838 42.2963L120.268 48.4712Z" fill="#A0616A"/>
<path d="M119.52 66.6532L111.945 66.8491L108.12 67.3394C106.242 61.6475 104.662 55.9688 108.494 51.2157L112.979 47.099L119.707 46.9275L119.796 46.9742C120.865 47.5361 121.693 48.4152 122.144 49.4668C122.595 50.5184 122.643 51.6797 122.279 52.7594C120.609 57.739 119.537 62.4413 119.52 66.6532Z" fill="#F9A826"/>
<path d="M107.933 82.6053L107.463 88.4997C107.438 88.8154 107.289 89.1121 107.045 89.3352C106.8 89.5584 106.476 89.6928 106.131 89.7139C105.933 89.726 105.734 89.7001 105.547 89.6378C105.361 89.5754 105.19 89.4781 105.047 89.3519C104.903 89.2257 104.79 89.0734 104.714 88.9048C104.638 88.7362 104.601 88.555 104.606 88.3726L104.756 82.6053L109.428 66.3101L109.615 56.3615L114.848 56.1899L114.474 67.6823L107.933 82.6053Z" fill="#A0616A"/>
<path d="M115.409 57.0476C113.19 56.2195 111.118 56.4968 109.241 58.2483L109.498 49.8484C109.531 49.3231 109.768 48.8261 110.167 48.4485C110.567 48.0709 111.101 47.838 111.672 47.7924C112.278 47.744 112.881 47.9102 113.358 48.2569C113.835 48.6036 114.15 49.1045 114.237 49.6571L115.409 57.0476Z" fill="#F9A826"/>
<path d="M125.968 62.2791H108.774C112.785 52.5309 114.078 43.4622 108.774 35.6923C108.865 33.3585 112.126 31.3354 114.659 31.5589C117.65 31.8229 121.67 33.8403 122.23 36.5499L125.968 62.2791Z" fill="#2F2E41"/>
<path d="M71.1711 31.1305H70.3868V11.4123C70.3868 9.91365 70.0652 8.42963 69.4403 7.04502C68.8154 5.66041 67.8995 4.40232 66.7448 3.34258C65.5901 2.28285 64.2193 1.44222 62.7107 0.868702C61.2021 0.29518 59.5851 -4.49117e-06 57.9522 0H12.4346C10.8017 -3.30927e-06 9.18473 0.295184 7.67609 0.868706C6.16745 1.44223 4.79667 2.28285 3.64201 3.34259C2.48735 4.40232 1.57142 5.66041 0.946525 7.04502C0.321628 8.42964 -1.80287e-06 9.91365 0 11.4123V119.588C-1.28776e-06 121.086 0.321627 122.57 0.946525 123.955C1.57142 125.34 2.48735 126.598 3.64201 127.657C4.79667 128.717 6.16745 129.558 7.67609 130.131C9.18473 130.705 10.8017 131 12.4346 131H57.9522C59.5851 131 61.2021 130.705 62.7107 130.131C64.2193 129.558 65.5901 128.717 66.7448 127.657C67.8995 126.598 68.8154 125.34 69.4403 123.955C70.0652 122.57 70.3868 121.086 70.3868 119.588V45.1662H71.1711V31.1305Z" fill="#3F3D56"/>
<path d="M58.454 2.96912H52.5124C52.7857 3.58393 52.8899 4.25098 52.8161 4.91151C52.7423 5.57204 52.4926 6.20576 52.0891 6.75687C51.6855 7.30797 51.1405 7.75953 50.502 8.07178C49.8636 8.38402 49.1512 8.54736 48.4277 8.54741H22.3513C21.6278 8.54736 20.9155 8.38402 20.277 8.07178C19.6385 7.75953 19.0935 7.30797 18.6899 6.75687C18.2864 6.20577 18.0367 5.57204 17.9629 4.91151C17.8891 4.25099 17.9934 3.58393 18.2666 2.96912H12.7172C11.4977 2.96911 10.2902 3.18956 9.16357 3.61786C8.03694 4.04616 7.01326 4.67392 6.15097 5.46532C5.28868 6.25672 4.60468 7.19624 4.13801 8.23025C3.67134 9.26426 3.43115 10.3725 3.43115 11.4917V119.508C3.43115 120.628 3.67134 121.736 4.13801 122.77C4.60468 123.804 5.28868 124.743 6.15097 125.535C7.01325 126.326 8.03694 126.954 9.16357 127.382C10.2902 127.81 11.4977 128.031 12.7172 128.031H58.454C59.6734 128.031 60.8809 127.81 62.0076 127.382C63.1342 126.954 64.1579 126.326 65.0202 125.535C65.8825 124.743 66.5665 123.804 67.0331 122.77C67.4998 121.736 67.74 120.628 67.74 119.508V11.4917C67.74 9.23137 66.7616 7.06361 65.0202 5.46532C63.2787 3.86702 60.9168 2.96911 58.454 2.96912Z" fill="white"/>
<path d="M59.7087 19.842H11.4624V57.822H59.7087V19.842Z" fill="#E6E6E6"/>
<path d="M25.7794 65.7421C27.7291 65.7421 29.3096 64.2915 29.3096 62.5021C29.3096 60.7127 27.7291 59.2621 25.7794 59.2621C23.8297 59.2621 22.2491 60.7127 22.2491 62.5021C22.2491 64.2915 23.8297 65.7421 25.7794 65.7421Z" fill="#F9A826"/>
<path d="M27.5445 62.2321H26.0736V60.8821H25.4852V62.2321H24.0143V62.7721H25.4852V64.1221H26.0736V62.7721H27.5445V62.2321Z" fill="white"/>
<path d="M44.4111 65.7421C46.3608 65.7421 47.9413 64.2915 47.9413 62.5021C47.9413 60.7127 46.3608 59.2621 44.4111 59.2621C42.4614 59.2621 40.8809 60.7127 40.8809 62.5021C40.8809 64.2915 42.4614 65.7421 44.4111 65.7421Z" fill="#F9A826"/>
<path d="M46.1761 62.7721V62.2321H42.6459V62.7721H46.1761Z" fill="white"/>
<path d="M37.3849 24.5787H33.5723C33.4382 24.5787 33.3096 24.6276 33.2148 24.7146C33.12 24.8016 33.0668 24.9196 33.0668 25.0427V26.5786C33.0668 26.7016 33.12 26.8196 33.2148 26.9066C33.3096 26.9936 33.4382 27.0425 33.5723 27.0425H34.2041V29.3438H36.7531V27.0425H37.3849C37.519 27.0425 37.6476 26.9936 37.7424 26.9066C37.8372 26.8196 37.8904 26.7016 37.8904 26.5786V25.0427C37.8904 24.9196 37.8372 24.8016 37.7424 24.7146C37.6476 24.6276 37.519 24.5787 37.3849 24.5787Z" fill="#F9A826"/>
<path d="M41.2037 38.6354C38.8687 35.4996 37.675 31.7659 37.7936 27.9693C37.7958 27.8817 37.7648 27.7961 37.706 27.7271C37.6471 27.6581 37.5641 27.6099 37.471 27.5907V26.927H33.4443V27.5814H33.3888C33.3345 27.5815 33.2808 27.5914 33.2307 27.6105C33.1806 27.6296 33.1351 27.6576 33.0968 27.6929C33.0585 27.7281 33.0281 27.77 33.0074 27.816C32.9867 27.862 32.9761 27.9113 32.9761 27.9611C32.9762 27.9704 32.9765 27.9796 32.9773 27.9887C33.2945 32.0473 32.2233 35.6869 29.7637 38.9076C29.6221 39.0927 29.5498 39.3149 29.5576 39.5409L29.9979 52.041C30.0085 52.3198 30.136 52.5841 30.3538 52.7787C30.5716 52.9733 30.8629 53.0831 31.1668 53.0853H40.2746C40.582 53.083 40.8763 52.9707 41.0948 52.7721C41.3133 52.5736 41.4386 52.3047 41.4442 52.0225L41.6139 39.886C41.6189 39.4406 41.4758 39.0043 41.2037 38.6354Z" fill="#3F3D56"/>
<path opacity="0.2" d="M36.5901 25.0792C36.5901 25.3447 36.4752 25.5993 36.2706 25.787C36.0661 25.9747 35.7887 26.0801 35.4995 26.0801C35.2103 26.0801 34.9329 25.9747 34.7284 25.787C34.5238 25.5993 34.4089 25.3447 34.4089 25.0792" fill="black"/>
<path d="M39.7619 42.7876H38.659C38.5537 42.1605 38.2074 41.5887 37.6827 41.1757C37.1579 40.7626 36.4895 40.5355 35.7981 40.5355C35.1068 40.5355 34.4384 40.7626 33.9136 41.1757C33.3889 41.5887 33.0425 42.1605 32.9373 42.7876H31.8343C31.717 42.7876 31.601 42.8109 31.4944 42.8558C31.3877 42.9008 31.293 42.9664 31.2166 43.0482C31.1402 43.1299 31.0839 43.2259 31.0517 43.3294C31.0195 43.433 31.012 43.5417 31.0298 43.6482L32.2278 50.7948H39.1068L40.5619 43.6722C40.5839 43.5644 40.5798 43.4533 40.5498 43.3471C40.5198 43.2408 40.4646 43.142 40.3882 43.0575C40.3118 42.9731 40.2161 42.9051 40.1079 42.8584C39.9996 42.8118 39.8815 42.7876 39.7619 42.7876V42.7876Z" fill="#F9A826"/>
<path d="M59.7087 73.3021H11.4624V111.282H59.7087V73.3021Z" fill="#E6E6E6"/>
<path d="M25.7794 119.202C27.7291 119.202 29.3096 117.751 29.3096 115.962C29.3096 114.173 27.7291 112.722 25.7794 112.722C23.8297 112.722 22.2491 114.173 22.2491 115.962C22.2491 117.751 23.8297 119.202 25.7794 119.202Z" fill="#F9A826"/>
<path d="M27.5445 115.692H26.0736V114.342H25.4852V115.692H24.0143V116.232H25.4852V117.582H26.0736V116.232H27.5445V115.692Z" fill="white"/>
<path d="M44.4111 119.202C46.3608 119.202 47.9413 117.751 47.9413 115.962C47.9413 114.173 46.3608 112.722 44.4111 112.722C42.4614 112.722 40.8809 114.173 40.8809 115.962C40.8809 117.751 42.4614 119.202 44.4111 119.202Z" fill="#F9A826"/>
<path d="M46.1761 116.232V115.692H42.6459V116.232H46.1761Z" fill="white"/>
<path d="M45.0835 100.284L45.1101 100.284C46.0185 100.291 46.9081 100.046 47.6628 99.5823C48.4175 99.1183 49.0024 98.4563 49.341 97.6827C50.4083 95.206 50.6581 92.496 50.0596 89.89C49.461 87.284 48.0404 84.8972 45.9747 83.0267C43.909 81.1562 41.2894 79.8847 38.4421 79.3706C35.5949 78.8565 32.6457 79.1223 29.9619 80.1352C27.2781 81.148 24.9782 82.863 23.3485 85.0667C21.7189 87.2703 20.8315 89.8652 20.7969 92.5283C20.7624 95.1914 21.5821 97.805 23.154 100.044C24.7259 102.282 26.9806 104.047 29.6374 105.118C30.4631 105.454 31.38 105.553 32.268 105.402C33.1559 105.25 33.9733 104.857 34.613 104.272C35.9852 103.006 37.6168 102.002 39.4139 101.317C41.2109 100.633 43.1378 100.281 45.0835 100.284Z" fill="white"/>
<path d="M37.485 96.1742C40.1827 96.1742 42.3696 94.1671 42.3696 91.6911C42.3696 89.2152 40.1827 87.208 37.485 87.208C34.7873 87.208 32.6003 89.2152 32.6003 91.6911C32.6003 94.1671 34.7873 96.1742 37.485 96.1742Z" fill="#F9A825"/>
</g>
<defs>
<clipPath id="clip0">
<rect width="151" height="131" fill="white"/>
</clipPath>
</defs>
</svg>
