<svg width="563" height="384" viewBox="0 0 563 384" fill="none" xmlns="http://www.w3.org/2000/svg">
<g clip-path="url(#clip0)">
<path d="M448.503 169.937L450.174 156.299C450.768 151.452 453.229 147.044 457.015 144.044C460.801 141.044 465.603 139.699 470.364 140.303C475.125 140.908 479.454 143.413 482.401 147.268C485.347 151.123 486.669 156.012 486.075 160.859L484.403 174.497C484.323 175.148 483.992 175.74 483.484 176.142C482.975 176.545 482.331 176.726 481.691 176.646L450.613 172.698C449.974 172.616 449.393 172.28 448.997 171.762C448.602 171.244 448.424 170.588 448.503 169.937Z" fill="#2F2E41"/>
<path d="M463.391 174.006C470.716 174.006 476.654 167.961 476.654 160.503C476.654 153.046 470.716 147 463.391 147C456.067 147 450.129 153.046 450.129 160.503C450.129 167.961 456.067 174.006 463.391 174.006Z" fill="#FFB8B8"/>
<path d="M445.795 156.85C446.269 153.018 448.217 149.534 451.211 147.161C454.205 144.789 458.001 143.723 461.766 144.197L464.445 144.537C468.21 145.02 471.632 147.003 473.962 150.051C476.292 153.1 477.339 156.964 476.873 160.798L476.84 161.07L471.178 160.351L469.921 154.601L468.861 160.057L465.934 159.685L465.301 156.784L464.765 159.537L445.762 157.123L445.795 156.85Z" fill="#2F2E41"/>
<path d="M398.525 208.67C398.931 209.48 399.505 210.19 400.209 210.75C400.913 211.309 401.729 211.705 402.6 211.909C403.47 212.112 404.374 212.119 405.247 211.929C406.121 211.739 406.942 211.356 407.655 210.807L419.701 217.992L425.774 211.604L408.623 201.701C407.639 200.544 406.271 199.795 404.78 199.595C403.29 199.396 401.779 199.76 400.534 200.619C399.289 201.478 398.397 202.772 398.027 204.256C397.657 205.74 397.834 207.31 398.525 208.67Z" fill="#FFB8B8"/>
<path d="M438.004 221.579C429.119 221.579 413.483 217.53 412.617 217.304L412.344 217.232L414.805 204.547L438.687 209.35L451.661 190.749L466.556 189.207L466.14 189.764C465.947 190.024 446.746 215.758 443.757 220.075C443.003 221.164 440.849 221.579 438.004 221.579Z" fill="#3F3D56"/>
<path d="M440.388 269.189L440.032 269.016C439.956 268.979 432.407 265.241 428.497 257.943C424.606 250.679 442.823 219.866 444.097 217.728L444.116 207.943L450.669 189.929L459.026 185.12L451.851 202.166L440.388 269.189Z" fill="#3F3D56"/>
<path d="M432.014 374.363L424.027 374.362L420.227 342.995L432.015 342.996L432.014 374.363Z" fill="#FFB8B8"/>
<path d="M434.052 382.245L408.297 382.244V381.912C408.297 379.205 409.353 376.609 411.233 374.695C413.113 372.781 415.663 371.706 418.321 371.706H418.322L434.052 371.707L434.052 382.245Z" fill="#2F2E41"/>
<path d="M517.809 367.235L510.219 369.767L497.014 341.165L508.216 337.428L517.809 367.235Z" fill="#FFB8B8"/>
<path d="M522.157 374.081L497.682 382.245L497.58 381.93C496.753 379.357 496.962 376.556 498.163 374.141C499.365 371.726 501.459 369.896 503.985 369.053L503.986 369.053L518.934 364.066L522.157 374.081Z" fill="#2F2E41"/>
<path d="M502.344 362.107L479.574 323.405L460.352 282.056L443.055 318.581L436.184 365.887L412.086 366.228L412.181 365.844L449.058 216.662L477.939 221.055L476.625 240.464L477.408 241.598C483.932 251.034 490.678 260.79 486.809 271.307L497.777 304.464L522.055 359.675L502.344 362.107Z" fill="#2F2E41"/>
<path d="M450.378 248.994C446.193 248.994 441.418 244.129 443.895 235.823L443.735 235.705L449.684 208.942C444.492 201.382 451.338 195.143 451.979 194.585L455.247 188.597L469.665 179.288L476.96 240.998L476.852 241.103C471.583 246.235 453.888 248.994 450.378 248.994Z" fill="#EB5B25"/>
<path d="M479.905 262.919C479.333 262.928 478.761 262.866 478.202 262.735C477.642 262.592 476.734 261.865 475.331 257.215C469.754 238.729 463.17 183.107 467.954 177.665L468.063 177.54L475.917 178.873C476.57 178.382 479.996 175.947 483.158 176.37C483.808 176.454 484.436 176.672 485 177.012C485.565 177.352 486.055 177.806 486.441 178.346L486.495 178.418L488.997 214.66L498.164 257.309L497.944 257.41C497.411 257.657 485.964 262.919 479.905 262.919Z" fill="#3F3D56"/>
<path d="M474.621 248.754C475.514 248.724 476.389 248.494 477.185 248.082C477.982 247.67 478.679 247.086 479.23 246.37C479.78 245.653 480.169 244.823 480.37 243.937C480.571 243.051 480.579 242.131 480.393 241.242L491.89 233.179L488.782 224.871L472.702 236.488C471.256 236.906 470.01 237.849 469.2 239.139C468.391 240.429 468.074 241.977 468.311 243.489C468.547 245.001 469.32 246.372 470.483 247.342C471.647 248.313 473.119 248.815 474.621 248.754Z" fill="#FFB8B8"/>
<path d="M488.099 239.639L477.857 231.993L492.253 212.007L481.206 192.159L486.148 177.77L486.468 178.389C486.617 178.678 501.37 207.292 503.943 211.878C506.621 216.648 489.028 238.49 488.278 239.417L488.099 239.639Z" fill="#3F3D56"/>
<path d="M257.731 329.594L249.015 325.857L243.035 281.371H163.41L156.929 325.675L149.131 329.645C148.758 329.835 148.459 330.147 148.282 330.532C148.105 330.917 148.061 331.351 148.157 331.764C148.253 332.178 148.483 332.546 148.81 332.809C149.137 333.073 149.542 333.216 149.959 333.216H257.013C257.44 333.216 257.854 333.066 258.185 332.79C258.516 332.515 258.743 332.131 258.828 331.704C258.912 331.278 258.849 330.834 258.649 330.45C258.45 330.065 258.125 329.762 257.731 329.594Z" fill="#E6E6E6"/>
<path d="M399.23 287.29H8.08928C6.03708 287.285 4.0705 286.452 2.621 284.973C1.17149 283.493 0.357436 281.489 0.357422 279.4V223.245H406.962V279.4C406.962 281.489 406.148 283.493 404.699 284.973C403.249 286.452 401.283 287.285 399.23 287.29Z" fill="#CCCCCC"/>
<path d="M407.371 249.785H0V9.51067C0.00286155 6.98912 0.988014 4.57169 2.73933 2.78871C4.49065 1.00573 6.86512 0.00282792 9.34182 0H398.029C400.505 0.00282143 402.88 1.00573 404.631 2.7887C406.383 4.57167 407.368 6.98911 407.371 9.51067V249.785Z" fill="#3F3D56"/>
<path d="M383.04 232.347H24.3308C22.4214 232.344 20.5908 231.571 19.2407 230.197C17.8905 228.822 17.1311 226.958 17.1289 225.014V24.7715C17.131 22.8275 17.8905 20.9637 19.2406 19.5891C20.5908 18.2145 22.4213 17.4412 24.3308 17.439H383.04C384.949 17.4412 386.78 18.2145 388.13 19.5891C389.48 20.9637 390.24 22.8275 390.242 24.7715V225.014C390.24 226.958 389.48 228.822 388.13 230.197C386.78 231.571 384.949 232.344 383.04 232.347Z" fill="white"/>
<path d="M304.285 333.68H102.721C102.515 333.685 102.312 333.619 102.146 333.495C101.98 333.37 101.859 333.193 101.802 332.991C101.766 332.853 101.762 332.709 101.79 332.57C101.817 332.43 101.876 332.299 101.961 332.187C102.046 332.074 102.156 331.982 102.281 331.92C102.407 331.857 102.544 331.824 102.684 331.824H304.21C304.428 331.816 304.642 331.884 304.817 332.015C304.992 332.147 305.119 332.336 305.175 332.55C305.205 332.686 305.204 332.826 305.173 332.962C305.142 333.097 305.082 333.224 304.996 333.332C304.911 333.441 304.802 333.528 304.679 333.589C304.556 333.649 304.421 333.68 304.285 333.68Z" fill="#CCCCCC"/>
<path d="M379.21 49.812H292.602V117.177H379.21V49.812Z" fill="#F2F2F2"/>
<path d="M374.908 53.1597H296.906V113.83H374.908V53.1597Z" fill="white"/>
<path d="M337.276 98.1616C337.286 98.1618 337.296 98.1616 337.307 98.161C342.587 97.8798 347.563 95.5616 351.224 91.6779C354.885 87.7943 356.956 82.6367 357.016 77.254C357.075 71.8713 355.118 66.6677 351.543 62.7014C347.969 58.7352 343.044 56.304 337.772 55.9024C337.707 55.8971 337.641 55.9057 337.579 55.9275C337.518 55.9493 337.461 55.9839 337.413 56.0291C337.365 56.0735 337.327 56.1275 337.3 56.1877C337.274 56.248 337.26 56.3131 337.259 56.3791L336.805 97.6726C336.804 97.801 336.853 97.9246 336.941 98.0163C337.029 98.108 337.149 98.1602 337.276 98.1616Z" fill="#3F3D56"/>
<path d="M320.965 62.7305C321.127 62.7325 321.281 62.7997 321.395 62.9174L335.357 77.4554C335.414 77.5136 335.458 77.5825 335.488 77.6582C335.517 77.7339 335.532 77.8148 335.531 77.8964L335.314 97.6555C335.313 97.7403 335.295 97.8241 335.261 97.9015C335.227 97.9789 335.178 98.0484 335.116 98.1055C335.055 98.1633 334.982 98.2076 334.903 98.2356C334.823 98.2636 334.739 98.2747 334.656 98.2683C330.773 97.9725 327.049 96.5803 323.901 94.2482C320.753 91.9161 318.307 88.7364 316.836 85.0665C315.366 81.3966 314.929 77.3818 315.576 73.4734C316.224 69.5649 317.928 65.9177 320.499 62.9414C320.555 62.8773 320.623 62.8255 320.699 62.7892C320.775 62.753 320.858 62.733 320.942 62.7307C320.95 62.7305 320.957 62.7304 320.965 62.7305Z" fill="#E6E6E6"/>
<path d="M335.163 55.7339C335.318 55.7358 335.468 55.798 335.58 55.9077C335.641 55.9663 335.689 56.0369 335.721 56.1152C335.753 56.1934 335.769 56.2777 335.768 56.3626L335.572 74.1905C335.57 74.3133 335.533 74.4328 335.465 74.5341C335.397 74.6354 335.301 74.7139 335.189 74.7596C335.077 74.8053 334.954 74.8162 334.836 74.7909C334.718 74.7656 334.61 74.7053 334.526 74.6175L322.342 61.9313C322.284 61.871 322.239 61.7993 322.209 61.7207C322.179 61.642 322.165 61.5579 322.168 61.4737C322.171 61.3894 322.191 61.3066 322.227 61.2304C322.262 61.1542 322.313 61.0861 322.375 61.0303C325.918 57.8547 330.41 55.9889 335.125 55.7347C335.137 55.734 335.15 55.7338 335.163 55.7339Z" fill="#EB5B25"/>
<path d="M328.886 106.724C328.878 107.477 328.651 108.209 328.234 108.83C327.816 109.451 327.228 109.931 326.542 110.211C325.856 110.491 325.104 110.558 324.382 110.403C323.659 110.248 322.997 109.878 322.481 109.341C321.964 108.803 321.616 108.121 321.48 107.382C321.344 106.643 321.426 105.879 321.717 105.187C322.007 104.496 322.492 103.907 323.111 103.496C323.73 103.085 324.454 102.871 325.193 102.879C326.183 102.892 327.128 103.303 327.821 104.024C328.513 104.745 328.896 105.716 328.886 106.724Z" fill="#EB5B25"/>
<path d="M339.558 106.847C339.55 107.599 339.323 108.331 338.905 108.952C338.488 109.573 337.899 110.053 337.214 110.333C336.528 110.613 335.776 110.68 335.053 110.525C334.331 110.37 333.669 110 333.152 109.463C332.636 108.925 332.288 108.243 332.152 107.504C332.016 106.765 332.098 106.001 332.388 105.309C332.679 104.618 333.164 104.029 333.783 103.618C334.402 103.208 335.126 102.993 335.865 103.001C336.855 103.014 337.8 103.426 338.493 104.146C339.185 104.867 339.568 105.838 339.558 106.847Z" fill="#3F3D56"/>
<path d="M350.23 106.968C350.222 107.72 349.995 108.453 349.577 109.074C349.16 109.694 348.571 110.175 347.886 110.455C347.2 110.735 346.448 110.802 345.725 110.647C345.002 110.492 344.341 110.122 343.824 109.584C343.308 109.046 342.96 108.365 342.824 107.626C342.688 106.886 342.77 106.122 343.06 105.431C343.351 104.739 343.836 104.151 344.455 103.74C345.074 103.329 345.798 103.114 346.537 103.123C347.527 103.135 348.472 103.547 349.164 104.268C349.857 104.989 350.24 105.96 350.23 106.968Z" fill="#E6E6E6"/>
<path d="M378.298 127.779H291.689V195.144H378.298V127.779Z" fill="#F2F2F2"/>
<path d="M373.994 131.126H295.992V191.797H373.994V131.126Z" fill="white"/>
<path d="M309.227 151.067C311.016 151.067 312.466 149.591 312.466 147.769C312.466 145.948 311.016 144.472 309.227 144.472C307.438 144.472 305.988 145.948 305.988 147.769C305.988 149.591 307.438 151.067 309.227 151.067Z" fill="#3F3D56"/>
<path d="M361.266 145.203C361.554 145.203 361.84 145.26 362.107 145.373C362.374 145.485 362.617 145.649 362.821 145.857C363.025 146.065 363.188 146.311 363.298 146.583C363.409 146.855 363.466 147.146 363.466 147.44C363.466 147.734 363.409 148.025 363.298 148.296C363.188 148.568 363.025 148.814 362.821 149.022C362.617 149.23 362.374 149.394 362.107 149.507C361.84 149.619 361.554 149.676 361.266 149.676H327.203C326.621 149.676 326.062 149.44 325.65 149.021C325.238 148.601 325.007 148.033 325.007 147.44C325.007 146.847 325.238 146.278 325.65 145.858C326.062 145.439 326.621 145.203 327.203 145.203H361.266ZM361.266 144.656H327.203C326.844 144.655 326.488 144.727 326.156 144.866C325.823 145.006 325.521 145.211 325.267 145.47C325.013 145.728 324.811 146.035 324.673 146.373C324.536 146.711 324.465 147.074 324.465 147.44C324.465 147.806 324.536 148.168 324.673 148.506C324.811 148.844 325.013 149.151 325.267 149.41C325.521 149.668 325.823 149.873 326.156 150.013C326.488 150.152 326.844 150.224 327.203 150.223H361.266C361.625 150.224 361.981 150.152 362.313 150.013C362.645 149.873 362.947 149.668 363.202 149.41C363.456 149.151 363.658 148.844 363.795 148.506C363.933 148.168 364.004 147.806 364.004 147.44C364.004 147.074 363.933 146.711 363.795 146.373C363.658 146.035 363.456 145.728 363.202 145.47C362.947 145.211 362.645 145.006 362.313 144.866C361.981 144.727 361.625 144.655 361.266 144.656Z" fill="#3F3D56"/>
<path d="M347.825 150.223H322.184C321.458 150.223 320.763 149.93 320.25 149.408C319.737 148.886 319.449 148.178 319.449 147.44C319.449 146.701 319.737 145.993 320.25 145.471C320.763 144.949 321.458 144.656 322.184 144.656H347.825C348.551 144.656 349.246 144.949 349.759 145.471C350.272 145.993 350.56 146.701 350.56 147.44C350.56 148.178 350.272 148.886 349.759 149.408C349.246 149.93 348.551 150.223 347.825 150.223Z" fill="#EB5B25"/>
<path d="M309.227 164.759C311.016 164.759 312.466 163.282 312.466 161.461C312.466 159.64 311.016 158.164 309.227 158.164C307.438 158.164 305.988 159.64 305.988 161.461C305.988 163.282 307.438 164.759 309.227 164.759Z" fill="#3F3D56"/>
<path d="M361.266 158.895C361.554 158.895 361.84 158.952 362.107 159.065C362.374 159.177 362.617 159.341 362.821 159.549C363.025 159.757 363.187 160.003 363.298 160.275C363.409 160.546 363.466 160.838 363.466 161.132C363.466 161.425 363.409 161.717 363.298 161.988C363.187 162.26 363.025 162.506 362.821 162.714C362.617 162.922 362.374 163.086 362.107 163.199C361.84 163.311 361.554 163.368 361.266 163.368H327.203C326.621 163.368 326.062 163.132 325.65 162.713C325.238 162.293 325.007 161.725 325.007 161.132C325.007 160.538 325.238 159.97 325.65 159.55C326.062 159.131 326.621 158.895 327.203 158.895H361.266ZM361.266 158.348H327.203C326.478 158.348 325.782 158.641 325.27 159.163C324.757 159.685 324.469 160.393 324.469 161.132C324.469 161.87 324.757 162.578 325.27 163.1C325.782 163.622 326.478 163.915 327.203 163.915H361.266C361.991 163.915 362.686 163.622 363.199 163.1C363.712 162.578 364 161.87 364 161.132C364 160.393 363.712 159.685 363.199 159.163C362.686 158.641 361.991 158.348 361.266 158.348Z" fill="#3F3D56"/>
<path d="M357.508 163.915H322.184C321.458 163.915 320.763 163.622 320.25 163.1C319.737 162.578 319.449 161.87 319.449 161.132C319.449 160.393 319.737 159.685 320.25 159.163C320.763 158.641 321.458 158.348 322.184 158.348H357.508C358.234 158.348 358.929 158.641 359.442 159.163C359.955 159.685 360.243 160.393 360.243 161.132C360.243 161.87 359.955 162.578 359.442 163.1C358.929 163.622 358.234 163.915 357.508 163.915Z" fill="#EB5B25"/>
<path d="M309.227 178.451C311.016 178.451 312.466 176.975 312.466 175.154C312.466 173.333 311.016 171.856 309.227 171.856C307.438 171.856 305.988 173.333 305.988 175.154C305.988 176.975 307.438 178.451 309.227 178.451Z" fill="#3F3D56"/>
<path d="M361.266 172.588C361.554 172.587 361.84 172.645 362.107 172.757C362.374 172.869 362.617 173.034 362.821 173.241C363.025 173.449 363.187 173.696 363.298 173.967C363.409 174.239 363.466 174.53 363.466 174.824C363.466 175.118 363.409 175.409 363.298 175.681C363.187 175.952 363.025 176.199 362.821 176.406C362.617 176.614 362.374 176.779 362.107 176.891C361.84 177.003 361.554 177.061 361.266 177.06H327.203C326.621 177.06 326.062 176.825 325.65 176.405C325.238 175.986 325.007 175.417 325.007 174.824C325.007 174.231 325.238 173.662 325.65 173.243C326.062 172.823 326.621 172.588 327.203 172.588H361.266ZM361.266 172.04H327.203C326.478 172.04 325.782 172.333 325.27 172.855C324.757 173.378 324.469 174.086 324.469 174.824C324.469 175.562 324.757 176.27 325.27 176.792C325.782 177.315 326.478 177.608 327.203 177.608H361.266C361.991 177.608 362.686 177.315 363.199 176.792C363.712 176.27 364 175.562 364 174.824C364 174.086 363.712 173.378 363.199 172.855C362.686 172.333 361.991 172.04 361.266 172.04Z" fill="#3F3D56"/>
<path d="M336.527 177.608H322.182C321.822 177.608 321.466 177.537 321.134 177.397C320.802 177.257 320.5 177.052 320.246 176.794C319.991 176.535 319.79 176.228 319.652 175.89C319.514 175.552 319.443 175.19 319.443 174.824C319.443 174.458 319.514 174.096 319.652 173.758C319.79 173.42 319.991 173.113 320.246 172.854C320.5 172.595 320.802 172.39 321.134 172.251C321.466 172.111 321.822 172.04 322.182 172.04H336.527C337.251 172.041 337.946 172.335 338.458 172.857C338.97 173.379 339.257 174.086 339.257 174.824C339.257 175.562 338.97 176.269 338.458 176.791C337.946 177.313 337.251 177.607 336.527 177.608Z" fill="#EB5B25"/>
<path d="M272.546 61.7305H30.5762V187.985H272.546V61.7305Z" fill="#F2F2F2"/>
<path d="M264.479 68.0039H38.6406V181.712H264.479V68.0039Z" fill="white"/>
<path d="M236.471 164.365H71.8394C71.7028 164.365 71.5718 164.309 71.4751 164.211C71.3785 164.113 71.3242 163.979 71.3242 163.84V83.5031C71.3242 83.3639 71.3785 83.2305 71.4751 83.1321C71.5717 83.0338 71.7028 82.9785 71.8394 82.9785C71.9761 82.9785 72.1071 83.0338 72.2038 83.1321C72.3004 83.2305 72.3547 83.3639 72.3547 83.5031V163.315H236.471C236.608 163.315 236.739 163.371 236.835 163.469C236.932 163.567 236.986 163.701 236.986 163.84C236.986 163.979 236.932 164.113 236.835 164.211C236.739 164.309 236.608 164.365 236.471 164.365Z" fill="#3F3D56"/>
<path d="M107.015 158.595H92.0412C91.6357 158.594 91.2469 158.43 90.9602 158.138C90.6735 157.846 90.5122 157.451 90.5117 157.038V136.022C90.5122 135.61 90.6735 135.214 90.9602 134.922C91.2469 134.63 91.6357 134.466 92.0412 134.465H107.015C107.42 134.466 107.809 134.63 108.096 134.922C108.383 135.214 108.544 135.61 108.544 136.022V157.038C108.544 157.451 108.383 157.846 108.096 158.138C107.809 158.43 107.42 158.594 107.015 158.595Z" fill="#EB5B25"/>
<path d="M134.32 158.595H119.346C118.94 158.594 118.552 158.43 118.265 158.138C117.978 157.846 117.817 157.45 117.816 157.038V116.089C117.817 115.676 117.978 115.281 118.265 114.989C118.552 114.697 118.94 114.533 119.346 114.532H134.32C134.725 114.533 135.114 114.697 135.401 114.989C135.687 115.281 135.849 115.676 135.849 116.089V157.038C135.849 157.45 135.687 157.846 135.401 158.138C135.114 158.43 134.725 158.594 134.32 158.595Z" fill="#EB5B25"/>
<path d="M161.628 158.595H146.654C146.249 158.594 145.86 158.43 145.573 158.138C145.287 157.846 145.125 157.451 145.125 157.038V136.022C145.125 135.61 145.287 135.214 145.573 134.922C145.86 134.63 146.249 134.466 146.654 134.465H161.628C162.034 134.466 162.423 134.63 162.709 134.922C162.996 135.214 163.157 135.61 163.158 136.022V157.038C163.157 157.451 162.996 157.846 162.709 158.138C162.423 158.43 162.034 158.594 161.628 158.595Z" fill="#EB5B25"/>
<path d="M188.933 158.595H173.959C173.563 158.603 173.179 158.452 172.893 158.173C172.606 157.894 172.44 157.512 172.43 157.108V108.15C172.44 107.747 172.606 107.364 172.893 107.085C173.179 106.807 173.563 106.655 173.959 106.664H188.933C189.329 106.655 189.713 106.807 189.999 107.085C190.286 107.364 190.453 107.747 190.462 108.15V157.108C190.453 157.512 190.286 157.894 189.999 158.173C189.713 158.452 189.329 158.603 188.933 158.595Z" fill="#EB5B25"/>
<path d="M216.242 158.595H201.268C200.862 158.594 200.474 158.43 200.187 158.138C199.9 157.846 199.739 157.45 199.738 157.038V94.058C199.739 93.6452 199.9 93.2494 200.187 92.9575C200.474 92.6656 200.862 92.5014 201.268 92.501H216.242C216.647 92.5014 217.036 92.6656 217.323 92.9575C217.609 93.2494 217.771 93.6452 217.771 94.058V157.038C217.771 157.45 217.609 157.846 217.323 158.138C217.036 158.43 216.647 158.594 216.242 158.595Z" fill="#EB5B25"/>
<path d="M99.5269 128.171C101.234 128.171 102.618 126.762 102.618 125.023C102.618 123.285 101.234 121.876 99.5269 121.876C97.8196 121.876 96.4355 123.285 96.4355 125.023C96.4355 126.762 97.8196 128.171 99.5269 128.171Z" fill="#3F3D56"/>
<path d="M126.834 107.713C128.541 107.713 129.925 106.304 129.925 104.566C129.925 102.828 128.541 101.418 126.834 101.418C125.126 101.418 123.742 102.828 123.742 104.566C123.742 106.304 125.126 107.713 126.834 107.713Z" fill="#3F3D56"/>
<path d="M154.14 128.171C155.847 128.171 157.232 126.762 157.232 125.023C157.232 123.285 155.847 121.876 154.14 121.876C152.433 121.876 151.049 123.285 151.049 125.023C151.049 126.762 152.433 128.171 154.14 128.171Z" fill="#3F3D56"/>
<path d="M181.447 97.7468C183.154 97.7468 184.538 96.3377 184.538 94.5995C184.538 92.8612 183.154 91.4521 181.447 91.4521C179.739 91.4521 178.355 92.8612 178.355 94.5995C178.355 96.3377 179.739 97.7468 181.447 97.7468Z" fill="#3F3D56"/>
<path d="M208.753 86.2062C210.461 86.2062 211.845 84.7971 211.845 83.0589C211.845 81.3207 210.461 79.9116 208.753 79.9116C207.046 79.9116 205.662 81.3207 205.662 83.0589C205.662 84.7971 207.046 86.2062 208.753 86.2062Z" fill="#3F3D56"/>
<path d="M154.206 125.728L126.835 104.855L99.8364 125.443L99.2188 124.604L126.835 103.544L154.076 124.318L181.147 94.1574L181.255 94.1124L208.562 82.9111L208.947 83.8841L181.749 95.041L154.206 125.728Z" fill="#3F3D56"/>
<path d="M562.402 384H334.824C334.665 384 334.514 383.936 334.402 383.822C334.29 383.708 334.227 383.553 334.227 383.392C334.227 383.231 334.29 383.076 334.402 382.962C334.514 382.848 334.665 382.784 334.824 382.784H562.402C562.56 382.784 562.712 382.848 562.824 382.962C562.936 383.076 562.999 383.231 562.999 383.392C562.999 383.553 562.936 383.708 562.824 383.822C562.712 383.936 562.56 384 562.402 384Z" fill="#CCCCCC"/>
</g>
<defs>
<clipPath id="clip0">
<rect width="563" height="384" fill="white"/>
</clipPath>
</defs>
</svg>
