<svg width="259" height="154" viewBox="0 0 259 154" fill="none" xmlns="http://www.w3.org/2000/svg">
<path d="M129.5 154C201.021 154 259 150.713 259 146.657C259 142.602 201.021 139.314 129.5 139.314C57.9791 139.314 0 142.602 0 146.657C0 150.713 57.9791 154 129.5 154Z" fill="#3F3D56"/>
<path d="M123.048 53.384C130.429 53.384 136.413 48.6749 136.413 42.8659C136.413 37.057 130.429 32.3479 123.048 32.3479C115.667 32.3479 109.683 37.057 109.683 42.8659C109.683 48.6749 115.667 53.384 123.048 53.384Z" fill="#F9A826"/>
<path d="M146.667 139.215C146.667 139.215 118.209 149.039 98.0466 139.414L98.2333 136.635L99.9707 110.836L101.614 86.4266L103.577 57.2539H141.367L143.183 86.4266L144.703 110.836L146.31 136.635L146.667 139.215Z" fill="#3F3D56"/>
<path d="M146.667 139.215C146.667 139.215 120.513 149.237 98.0466 139.414L98.2333 136.635H146.31L146.667 139.215Z" fill="#F9A826"/>
<path d="M144.703 110.836H99.9707L101.614 86.4265H143.183L144.703 110.836Z" fill="#F9A826"/>
<path d="M143.671 54.0786H101.273V58.0477H143.671V54.0786Z" fill="#3F3D56"/>
<path d="M143.671 40.7822H101.273V44.7513H143.671V40.7822Z" fill="#3F3D56"/>
<path d="M107.494 44.7513H104.959V55.0709H107.494V44.7513Z" fill="#3F3D56"/>
<path d="M114.177 44.7513H111.642V55.0709H114.177V44.7513Z" fill="#3F3D56"/>
<path d="M120.859 44.7513H118.324V55.0709H120.859V44.7513Z" fill="#3F3D56"/>
<path d="M127.541 44.7513H125.007V55.0709H127.541V44.7513Z" fill="#3F3D56"/>
<path d="M134.224 44.7513H131.689V55.0709H134.224V44.7513Z" fill="#3F3D56"/>
<path d="M114.177 28.9742H111.642V42.5683H114.177V28.9742Z" fill="#3F3D56"/>
<path d="M120.859 28.9742H118.324V42.5683H120.859V28.9742Z" fill="#3F3D56"/>
<path d="M127.541 28.9742H125.007V42.5683H127.541V28.9742Z" fill="#3F3D56"/>
<path d="M134.224 28.9742H131.689V42.5683H134.224V28.9742Z" fill="#3F3D56"/>
<path d="M140.906 44.7513H138.371V55.0709H140.906V44.7513Z" fill="#3F3D56"/>
<path d="M107.609 30.5619H105.075V42.6676H107.609V30.5619Z" fill="#3F3D56"/>
<path d="M141.021 30.5619H138.487V42.6676H141.021V30.5619Z" fill="#3F3D56"/>
<path d="M143.787 32.8441H101.388V20.9369L122.587 6.1521L143.787 20.9369V32.8441Z" fill="#3F3D56"/>
<path opacity="0.3" d="M123.048 73.3674C142.735 73.3674 158.694 59.6226 158.694 42.6676C158.694 25.7125 142.735 11.9678 123.048 11.9678C103.361 11.9678 87.4021 25.7125 87.4021 42.6676C87.4021 59.6226 103.361 73.3674 123.048 73.3674Z" fill="#F9A826"/>
<path opacity="0.3" d="M123.048 85.3351C150.409 85.3351 172.59 66.2321 172.59 42.6675C172.59 19.1029 150.409 0 123.048 0C95.6867 0 73.5061 19.1029 73.5061 42.6675C73.5061 66.2321 95.6867 85.3351 123.048 85.3351Z" fill="#F9A826"/>
<path d="M11.8459 137.476C13.2454 141.931 18.0387 144.69 18.0387 144.69C18.0387 144.69 20.5631 140.226 19.1637 135.771C17.7643 131.315 12.9709 128.556 12.9709 128.556C12.9709 128.556 10.4465 133.02 11.8459 137.476Z" fill="#8985A8"/>
<path d="M13.9023 136.518C17.7424 139.738 18.2114 144.687 18.2114 144.687C18.2114 144.687 12.4545 144.416 8.61448 141.197C4.77445 137.977 4.30542 133.028 4.30542 133.028C4.30542 133.028 10.0623 133.299 13.9023 136.518Z" fill="#3F3D56"/>
<path d="M72.9895 131.06C70.9265 137.628 63.8601 141.696 63.8601 141.696C63.8601 141.696 60.1386 135.115 62.2016 128.547C64.2647 121.979 71.3311 117.911 71.3311 117.911C71.3311 117.911 75.0526 124.492 72.9895 131.06Z" fill="#8985A8"/>
<path d="M54.2214 131.06C56.2844 137.628 63.3509 141.696 63.3509 141.696C63.3509 141.696 67.0724 135.115 65.0093 128.547C62.9463 121.979 55.8799 117.911 55.8799 117.911C55.8799 117.911 52.1583 124.492 54.2214 131.06Z" fill="#8985A8"/>
<path d="M57.2531 129.649C62.9142 134.395 63.6056 141.691 63.6056 141.691C63.6056 141.691 55.1187 141.292 49.4577 136.546C43.7967 131.8 43.1052 124.504 43.1052 124.504C43.1052 124.504 51.5921 124.903 57.2531 129.649Z" fill="#3F3D56"/>
<path d="M69.9579 129.649C64.2969 134.395 63.6055 141.691 63.6055 141.691C63.6055 141.691 72.0923 141.292 77.7534 136.546C83.4144 131.8 84.1058 124.504 84.1058 124.504C84.1058 124.504 75.619 124.903 69.9579 129.649Z" fill="#3F3D56"/>
<path d="M209.448 72.6287C207.632 69.9849 204.037 69.8617 204.037 69.8617C204.037 69.8617 200.535 69.4759 198.288 73.5025C196.194 77.2556 193.304 80.8793 197.823 81.7579L198.639 79.5697L199.145 81.9208C199.788 81.9606 200.433 81.9701 201.078 81.9492C205.918 81.8147 210.527 81.9886 210.378 80.4929C210.181 78.5046 211.197 75.1726 209.448 72.6287Z" fill="#2F2E41"/>
<path d="M204.399 80.1474C206.99 80.1474 209.09 78.3386 209.09 76.1073C209.09 73.8761 206.99 72.0673 204.399 72.0673C201.809 72.0673 199.708 73.8761 199.708 76.1073C199.708 78.3386 201.809 80.1474 204.399 80.1474Z" fill="#A0616A"/>
<path d="M202.48 78.7393C202.48 78.7393 204.613 83.0242 201.77 83.8812L204.613 91.9613L209.446 91.7165L210.725 89.0231L210.441 84.9831L210.014 82.2897C210.014 82.2897 207.029 82.9018 207.313 78.3721L202.48 78.7393Z" fill="#A0616A"/>
<path d="M201.343 83.7588C201.343 83.7588 196.652 83.3916 197.079 86.3298C197.505 89.268 197.931 89.8801 197.931 89.8801L198.358 94.2874L195.799 95.6341H193.383C193.383 95.6341 185.991 97.1032 189.687 98.6948C193.383 100.286 194.662 97.4705 194.662 97.4705C194.662 97.4705 201.485 97.4705 201.912 96.4911C202.338 95.5117 201.343 83.7588 201.343 83.7588Z" fill="#A0616A"/>
<path d="M210.441 82.5346C210.441 82.5346 214.847 81.1879 215.132 84.1261C215.416 87.0643 215.416 87.3092 215.416 87.3092L216.269 91.4717C216.269 91.4717 217.975 95.1444 217.975 96.2463C217.975 97.3481 219.254 100.776 219.254 100.776C219.254 100.776 220.96 105.551 219.112 105.428C217.264 105.306 216.98 100.286 216.98 100.286L213.142 93.6753L212.004 89.6353L210.441 82.5346Z" fill="#A0616A"/>
<path d="M202.054 83.2692H200.917L200.775 88.4111C200.775 88.4111 198.927 90.6147 201.201 92.5735L201.77 95.7566L212.147 95.3893L212.857 92.0838C212.857 92.0838 214.279 89.3905 212.289 86.942L210.441 81.9225H209.446C209.446 81.9225 211.75 89.2409 206.887 89.3905C202.907 89.5129 202.054 83.2692 202.054 83.2692Z" fill="#D0CDE1"/>
<path d="M202.338 95.1444L201.485 97.5929C201.485 97.5929 183.717 140.687 189.118 141.789C194.52 142.89 202.054 144.36 202.765 143.258C203.475 142.156 207.171 109.958 207.171 109.958C207.171 109.958 206.603 143.625 208.451 143.625C210.299 143.625 222.524 143.87 223.234 142.278C223.945 140.687 216.838 98.0826 212.715 97.1032L211.578 94.8995L202.338 95.1444Z" fill="#2F2E41"/>
<path d="M212.573 93.9202L201.343 94.2874C201.343 94.2874 200.831 97.5929 201.343 97.5929C201.485 97.5929 213.142 98.4499 213 96.9808C212.857 95.5117 212.573 93.9202 212.573 93.9202Z" fill="#3F3D56"/>
<path d="M204.477 72.1133C205.913 72.1133 207.076 71.1112 207.076 69.875C207.076 68.6388 205.913 67.6367 204.477 67.6367C203.042 67.6367 201.878 68.6388 201.878 69.875C201.878 71.1112 203.042 72.1133 204.477 72.1133Z" fill="#2F2E41"/>
<path d="M201.605 69.286C201.605 68.7332 201.843 68.2 202.272 67.789C202.701 67.3781 203.292 67.1185 203.93 67.0603C203.568 67.0271 203.201 67.0599 202.854 67.1566C202.508 67.2533 202.188 67.4117 201.917 67.6216C201.646 67.8315 201.43 68.0882 201.281 68.3749C201.133 68.6617 201.056 68.9721 201.056 69.286C201.056 69.5999 201.133 69.9104 201.281 70.1971C201.43 70.4838 201.646 70.7405 201.917 70.9504C202.188 71.1603 202.508 71.3188 202.854 71.4155C203.201 71.5122 203.568 71.5449 203.93 71.5117C203.292 71.4535 202.701 71.1939 202.272 70.783C201.843 70.372 201.605 69.8388 201.605 69.286Z" fill="#2F2E41"/>
<path d="M208.645 72.3738L205.094 70.7717L200.19 71.4272L199.176 75.2865L201.701 75.2028L202.407 73.7849V75.1794L203.572 75.1409L204.249 72.8835L204.671 75.2865L208.814 75.2137L208.645 72.3738Z" fill="#2F2E41"/>
<path d="M188.662 86.1308L187.368 86.4681L193.243 103.191L194.538 102.853L188.662 86.1308Z" fill="#3F3D56"/>
<path d="M192.508 82.4669C192.932 83.6764 192.782 84.9816 192.089 86.0954C191.396 87.2093 190.218 88.0406 188.814 88.4066C187.41 88.7726 185.894 88.6432 184.601 88.0469C183.307 87.4507 182.342 86.4364 181.917 85.2271C181.032 82.7082 183.921 74.479 183.921 74.479C183.921 74.479 191.623 79.9481 192.508 82.4669Z" fill="#F9A826"/>
<path opacity="0.1" d="M190.894 83.8971C191.037 84.3048 191.086 84.7328 191.037 85.1567C190.988 85.5807 190.843 85.9921 190.609 86.3677C190.376 86.7432 190.059 87.0755 189.676 87.3455C189.294 87.6155 188.853 87.818 188.38 87.9414C187.906 88.0648 187.409 88.1066 186.917 88.0646C186.425 88.0226 185.947 87.8974 185.511 87.6964C185.075 87.4953 184.689 87.2222 184.376 86.8927C184.062 86.5633 183.827 86.1838 183.684 85.7761C183.081 84.0614 185.048 78.4591 185.048 78.4591C185.048 78.4591 190.291 82.1823 190.894 83.8971Z" fill="black"/>
</svg>
