<?xml version="1.0" encoding="utf-8"?>
<svg xmlns="http://www.w3.org/2000/svg" xmlns:xlink="http://www.w3.org/1999/xlink" xml:space="preserve" width="528" height="528" viewBox="0 0 528 528"><defs><mask id="qrmask"><g fill="#ffffff"><g>
<g transform="translate(160,32) scale(2.7466666666667)"><circle cx="3" cy="3" r="3"/></g>
<g transform="translate(224,32) scale(2.7466666666667)"><path d="M6,6H0V3c0-1.7,1.3-3,3-3l3,0V6z"/></g>
<g transform="translate(240,32) scale(2.7466666666667)"><path d="M3,6H0V0l3,0c1.7,0,3,1.3,3,3v0C6,4.7,4.7,6,3,6z"/></g>
<g transform="translate(288,32) scale(2.7466666666667)"><path d="M6,6H0V3c0-1.7,1.3-3,3-3l3,0V6z"/></g>
<g transform="translate(304,32) scale(2.7466666666667)"><path d="M3,6H0V0l3,0c1.7,0,3,1.3,3,3v0C6,4.7,4.7,6,3,6z"/></g>
<g transform="translate(336,32) scale(2.7466666666667)"><path d="M6,6H3C1.3,6,0,4.7,0,3v0c0-1.7,1.3-3,3-3h3C6,0,6,6,6,6z"/></g>
<g transform="translate(352,32) scale(2.7466666666667)"><path d="M6,6H0V0l3,0c1.7,0,3,1.3,3,3V6z"/></g>
<g transform="translate(192,48) scale(2.7466666666667)"><path d="M6,6H0V3c0-1.7,1.3-3,3-3h0c1.7,0,3,1.3,3,3V6z"/></g>
<g transform="translate(224,48) scale(2.7466666666667)"><rect width="6" height="6"/></g>
<g transform="translate(256,48) scale(2.7466666666667)"><circle cx="3" cy="3" r="3"/></g>
<g transform="translate(288,48) scale(2.7466666666667)"><rect width="6" height="6"/></g>
<g transform="translate(352,48) scale(2.7466666666667)"><rect width="6" height="6"/></g>
<g transform="translate(176,64) scale(2.7466666666667)"><path d="M6,6H0V3c0-1.7,1.3-3,3-3l3,0V6z"/></g>
<g transform="translate(192,64) scale(2.7466666666667)"><path d="M3,6H0V0l6,0v3C6,4.7,4.7,6,3,6z"/></g>
<g transform="translate(224,64) scale(2.7466666666667)"><path d="M6,6H3C1.3,6,0,4.7,0,3V0l6,0V6z"/></g>
<g transform="translate(240,64) scale(2.7466666666667)"><path d="M3,6H0V0l3,0c1.7,0,3,1.3,3,3v0C6,4.7,4.7,6,3,6z"/></g>
<g transform="translate(288,64) scale(2.7466666666667)"><path d="M3,6L3,6C1.3,6,0,4.7,0,3V0h6v3C6,4.7,4.7,6,3,6z"/></g>
<g transform="translate(352,64) scale(2.7466666666667)"><path d="M3,6L3,6C1.3,6,0,4.7,0,3V0h6v3C6,4.7,4.7,6,3,6z"/></g>
<g transform="translate(176,80) scale(2.7466666666667)"><path d="M3,6L3,6C1.3,6,0,4.7,0,3V0h6v3C6,4.7,4.7,6,3,6z"/></g>
<g transform="translate(208,80) scale(2.7466666666667)"><circle cx="3" cy="3" r="3"/></g>
<g transform="translate(272,80) scale(2.7466666666667)"><path d="M6,6H0V3c0-1.7,1.3-3,3-3h0c1.7,0,3,1.3,3,3V6z"/></g>
<g transform="translate(304,80) scale(2.7466666666667)"><circle cx="3" cy="3" r="3"/></g>
<g transform="translate(160,96) scale(2.7466666666667)"><path d="M6,6H0V3c0-1.7,1.3-3,3-3h0c1.7,0,3,1.3,3,3V6z"/></g>
<g transform="translate(224,96) scale(2.7466666666667)"><path d="M6,6H3C1.3,6,0,4.7,0,3v0c0-1.7,1.3-3,3-3h3C6,0,6,6,6,6z"/></g>
<g transform="translate(240,96) scale(2.7466666666667)"><path d="M3,6H0V0l3,0c1.7,0,3,1.3,3,3v0C6,4.7,4.7,6,3,6z"/></g>
<g transform="translate(272,96) scale(2.7466666666667)"><path d="M6,6H3C1.3,6,0,4.7,0,3V0l6,0V6z"/></g>
<g transform="translate(288,96) scale(2.7466666666667)"><path d="M6,6H0V0l3,0c1.7,0,3,1.3,3,3V6z"/></g>
<g transform="translate(320,96) scale(2.7466666666667)"><path d="M6,6H3C1.3,6,0,4.7,0,3v0c0-1.7,1.3-3,3-3h3C6,0,6,6,6,6z"/></g>
<g transform="translate(336,96) scale(2.7466666666667)"><path d="M3,6H0V0l3,0c1.7,0,3,1.3,3,3v0C6,4.7,4.7,6,3,6z"/></g>
<g transform="translate(160,112) scale(2.7466666666667)"><rect width="6" height="6"/></g>
<g transform="translate(288,112) scale(2.7466666666667)"><rect width="6" height="6"/></g>
<g transform="translate(304,112) scale(2.7466666666667)"><path d="M3,6H0V0l3,0c1.7,0,3,1.3,3,3v0C6,4.7,4.7,6,3,6z"/></g>
<g transform="translate(352,112) scale(2.7466666666667)"><path d="M6,6H0V3c0-1.7,1.3-3,3-3h0c1.7,0,3,1.3,3,3V6z"/></g>
<g transform="translate(160,128) scale(2.7466666666667)"><path d="M3,6L3,6C1.3,6,0,4.7,0,3V0h6v3C6,4.7,4.7,6,3,6z"/></g>
<g transform="translate(192,128) scale(2.7466666666667)"><path d="M6,6H0V3c0-1.7,1.3-3,3-3h0c1.7,0,3,1.3,3,3V6z"/></g>
<g transform="translate(224,128) scale(2.7466666666667)"><path d="M6,6H0V3c0-1.7,1.3-3,3-3h0c1.7,0,3,1.3,3,3V6z"/></g>
<g transform="translate(256,128) scale(2.7466666666667)"><circle cx="3" cy="3" r="3"/></g>
<g transform="translate(288,128) scale(2.7466666666667)"><path d="M3,6L3,6C1.3,6,0,4.7,0,3V0h6v3C6,4.7,4.7,6,3,6z"/></g>
<g transform="translate(320,128) scale(2.7466666666667)"><path d="M6,6H0V3c0-1.7,1.3-3,3-3h0c1.7,0,3,1.3,3,3V6z"/></g>
<g transform="translate(352,128) scale(2.7466666666667)"><path d="M3,6L3,6C1.3,6,0,4.7,0,3V0h6v3C6,4.7,4.7,6,3,6z"/></g>
<g transform="translate(192,144) scale(2.7466666666667)"><rect width="6" height="6"/></g>
<g transform="translate(224,144) scale(2.7466666666667)"><rect width="6" height="6"/></g>
<g transform="translate(320,144) scale(2.7466666666667)"><rect width="6" height="6"/></g>
<g transform="translate(48,160) scale(2.7466666666667)"><path d="M6,6H0V3c0-1.7,1.3-3,3-3l3,0V6z"/></g>
<g transform="translate(64,160) scale(2.7466666666667)"><rect width="6" height="6"/></g>
<g transform="translate(80,160) scale(2.7466666666667)"><rect width="6" height="6"/></g>
<g transform="translate(96,160) scale(2.7466666666667)"><rect width="6" height="6"/></g>
<g transform="translate(112,160) scale(2.7466666666667)"><rect width="6" height="6"/></g>
<g transform="translate(128,160) scale(2.7466666666667)"><rect width="6" height="6"/></g>
<g transform="translate(144,160) scale(2.7466666666667)"><path d="M6,6H0V0l3,0c1.7,0,3,1.3,3,3V6z"/></g>
<g transform="translate(192,160) scale(2.7466666666667)"><rect width="6" height="6"/></g>
<g transform="translate(208,160) scale(2.7466666666667)"><rect width="6" height="6"/></g>
<g transform="translate(224,160) scale(2.7466666666667)"><path d="M3,6H0V0l6,0v3C6,4.7,4.7,6,3,6z"/></g>
<g transform="translate(256,160) scale(2.7466666666667)"><circle cx="3" cy="3" r="3"/></g>
<g transform="translate(304,160) scale(2.7466666666667)"><path d="M6,6H3C1.3,6,0,4.7,0,3v0c0-1.7,1.3-3,3-3h3C6,0,6,6,6,6z"/></g>
<g transform="translate(320,160) scale(2.7466666666667)"><rect width="6" height="6"/></g>
<g transform="translate(352,160) scale(2.7466666666667)"><path d="M6,6H0V3c0-1.7,1.3-3,3-3h0c1.7,0,3,1.3,3,3V6z"/></g>
<g transform="translate(400,160) scale(2.7466666666667)"><path d="M6,6H0V3c0-1.7,1.3-3,3-3l3,0V6z"/></g>
<g transform="translate(416,160) scale(2.7466666666667)"><path d="M6,6H0V0l3,0c1.7,0,3,1.3,3,3V6z"/></g>
<g transform="translate(480,160) scale(2.7466666666667)"><path d="M6,6H0V3c0-1.7,1.3-3,3-3h0c1.7,0,3,1.3,3,3V6z"/></g>
<g transform="translate(48,176) scale(2.7466666666667)"><path d="M3,6L3,6C1.3,6,0,4.7,0,3V0h6v3C6,4.7,4.7,6,3,6z"/></g>
<g transform="translate(96,176) scale(2.7466666666667)"><rect width="6" height="6"/></g>
<g transform="translate(144,176) scale(2.7466666666667)"><rect width="6" height="6"/></g>
<g transform="translate(160,176) scale(2.7466666666667)"><path d="M3,6H0V0l3,0c1.7,0,3,1.3,3,3v0C6,4.7,4.7,6,3,6z"/></g>
<g transform="translate(192,176) scale(2.7466666666667)"><path d="M6,6H3C1.3,6,0,4.7,0,3V0l6,0V6z"/></g>
<g transform="translate(208,176) scale(2.7466666666667)"><rect width="6" height="6"/></g>
<g transform="translate(320,176) scale(2.7466666666667)"><rect width="6" height="6"/></g>
<g transform="translate(336,176) scale(2.7466666666667)"><rect width="6" height="6"/></g>
<g transform="translate(352,176) scale(2.7466666666667)"><rect width="6" height="6"/></g>
<g transform="translate(368,176) scale(2.7466666666667)"><rect width="6" height="6"/></g>
<g transform="translate(384,176) scale(2.7466666666667)"><rect width="6" height="6"/></g>
<g transform="translate(400,176) scale(2.7466666666667)"><rect width="6" height="6"/></g>
<g transform="translate(416,176) scale(2.7466666666667)"><rect width="6" height="6"/></g>
<g transform="translate(432,176) scale(2.7466666666667)"><path d="M6,6H0V0l3,0c1.7,0,3,1.3,3,3V6z"/></g>
<g transform="translate(480,176) scale(2.7466666666667)"><path d="M3,6L3,6C1.3,6,0,4.7,0,3V0h6v3C6,4.7,4.7,6,3,6z"/></g>
<g transform="translate(32,192) scale(2.7466666666667)"><circle cx="3" cy="3" r="3"/></g>
<g transform="translate(64,192) scale(2.7466666666667)"><path d="M6,6H3C1.3,6,0,4.7,0,3v0c0-1.7,1.3-3,3-3h3C6,0,6,6,6,6z"/></g>
<g transform="translate(80,192) scale(2.7466666666667)"><rect width="6" height="6"/></g>
<g transform="translate(96,192) scale(2.7466666666667)"><path d="M3,6H0V0l6,0v3C6,4.7,4.7,6,3,6z"/></g>
<g transform="translate(128,192) scale(2.7466666666667)"><path d="M6,6H3C1.3,6,0,4.7,0,3v0c0-1.7,1.3-3,3-3h3C6,0,6,6,6,6z"/></g>
<g transform="translate(144,192) scale(2.7466666666667)"><rect width="6" height="6"/></g>
<g transform="translate(208,192) scale(2.7466666666667)"><path d="M3,6L3,6C1.3,6,0,4.7,0,3V0h6v3C6,4.7,4.7,6,3,6z"/></g>
<g transform="translate(256,192) scale(2.7466666666667)"><path d="M6,6H0V3c0-1.7,1.3-3,3-3l3,0V6z"/></g>
<g transform="translate(272,192) scale(2.7466666666667)"><rect width="6" height="6"/></g>
<g transform="translate(288,192) scale(2.7466666666667)"><rect width="6" height="6"/></g>
<g transform="translate(304,192) scale(2.7466666666667)"><rect width="6" height="6"/></g>
<g transform="translate(320,192) scale(2.7466666666667)"><path d="M3,6H0V0l6,0v3C6,4.7,4.7,6,3,6z"/></g>
<g transform="translate(352,192) scale(2.7466666666667)"><rect width="6" height="6"/></g>
<g transform="translate(368,192) scale(2.7466666666667)"><rect width="6" height="6"/></g>
<g transform="translate(384,192) scale(2.7466666666667)"><rect width="6" height="6"/></g>
<g transform="translate(416,192) scale(2.7466666666667)"><rect width="6" height="6"/></g>
<g transform="translate(432,192) scale(2.7466666666667)"><path d="M3,6H0V0l6,0v3C6,4.7,4.7,6,3,6z"/></g>
<g transform="translate(112,208) scale(2.7466666666667)"><path d="M6,6H0V3c0-1.7,1.3-3,3-3h0c1.7,0,3,1.3,3,3V6z"/></g>
<g transform="translate(144,208) scale(2.7466666666667)"><path d="M6,6H3C1.3,6,0,4.7,0,3V0l6,0V6z"/></g>
<g transform="translate(160,208) scale(2.7466666666667)"><rect width="6" height="6"/></g>
<g transform="translate(176,208) scale(2.7466666666667)"><path d="M3,6H0V0l3,0c1.7,0,3,1.3,3,3v0C6,4.7,4.7,6,3,6z"/></g>
<g transform="translate(256,208) scale(2.7466666666667)"><rect width="6" height="6"/></g>
<g transform="translate(272,208) scale(2.7466666666667)"><rect width="6" height="6"/></g>
<g transform="translate(336,208) scale(2.7466666666667)"><path d="M6,6H0V3c0-1.7,1.3-3,3-3l3,0V6z"/></g>
<g transform="translate(352,208) scale(2.7466666666667)"><rect width="6" height="6"/></g>
<g transform="translate(368,208) scale(2.7466666666667)"><rect width="6" height="6"/></g>
<g transform="translate(384,208) scale(2.7466666666667)"><rect width="6" height="6"/></g>
<g transform="translate(400,208) scale(2.7466666666667)"><rect width="6" height="6"/></g>
<g transform="translate(416,208) scale(2.7466666666667)"><path d="M3,6H0V0l6,0v3C6,4.7,4.7,6,3,6z"/></g>
<g transform="translate(464,208) scale(2.7466666666667)"><path d="M6,6H0V3c0-1.7,1.3-3,3-3h0c1.7,0,3,1.3,3,3V6z"/></g>
<g transform="translate(112,224) scale(2.7466666666667)"><rect width="6" height="6"/></g>
<g transform="translate(128,224) scale(2.7466666666667)"><path d="M3,6H0V0l3,0c1.7,0,3,1.3,3,3v0C6,4.7,4.7,6,3,6z"/></g>
<g transform="translate(160,224) scale(2.7466666666667)"><path d="M3,6L3,6C1.3,6,0,4.7,0,3V0h6v3C6,4.7,4.7,6,3,6z"/></g>
<g transform="translate(192,224) scale(2.7466666666667)"><circle cx="3" cy="3" r="3"/></g>
<g transform="translate(224,224) scale(2.7466666666667)"><circle cx="3" cy="3" r="3"/></g>
<g transform="translate(256,224) scale(2.7466666666667)"><rect width="6" height="6"/></g>
<g transform="translate(272,224) scale(2.7466666666667)"><path d="M3,6H0V0l6,0v3C6,4.7,4.7,6,3,6z"/></g>
<g transform="translate(304,224) scale(2.7466666666667)"><path d="M6,6H0V3c0-1.7,1.3-3,3-3h0c1.7,0,3,1.3,3,3V6z"/></g>
<g transform="translate(336,224) scale(2.7466666666667)"><rect width="6" height="6"/></g>
<g transform="translate(368,224) scale(2.7466666666667)"><rect width="6" height="6"/></g>
<g transform="translate(400,224) scale(2.7466666666667)"><path d="M3,6L3,6C1.3,6,0,4.7,0,3V0h6v3C6,4.7,4.7,6,3,6z"/></g>
<g transform="translate(448,224) scale(2.7466666666667)"><path d="M6,6H3C1.3,6,0,4.7,0,3v0c0-1.7,1.3-3,3-3h3C6,0,6,6,6,6z"/></g>
<g transform="translate(464,224) scale(2.7466666666667)"><rect width="6" height="6"/></g>
<g transform="translate(480,224) scale(2.7466666666667)"><path d="M6,6H0V0l3,0c1.7,0,3,1.3,3,3V6z"/></g>
<g transform="translate(64,240) scale(2.7466666666667)"><path d="M6,6H3C1.3,6,0,4.7,0,3v0c0-1.7,1.3-3,3-3h3C6,0,6,6,6,6z"/></g>
<g transform="translate(80,240) scale(2.7466666666667)"><path d="M6,6H0V0l3,0c1.7,0,3,1.3,3,3V6z"/></g>
<g transform="translate(112,240) scale(2.7466666666667)"><rect width="6" height="6"/></g>
<g transform="translate(176,240) scale(2.7466666666667)"><circle cx="3" cy="3" r="3"/></g>
<g transform="translate(208,240) scale(2.7466666666667)"><path d="M6,6H0V3c0-1.7,1.3-3,3-3h0c1.7,0,3,1.3,3,3V6z"/></g>
<g transform="translate(256,240) scale(2.7466666666667)"><rect width="6" height="6"/></g>
<g transform="translate(304,240) scale(2.7466666666667)"><rect width="6" height="6"/></g>
<g transform="translate(320,240) scale(2.7466666666667)"><rect width="6" height="6"/></g>
<g transform="translate(336,240) scale(2.7466666666667)"><rect width="6" height="6"/></g>
<g transform="translate(352,240) scale(2.7466666666667)"><rect width="6" height="6"/></g>
<g transform="translate(368,240) scale(2.7466666666667)"><rect width="6" height="6"/></g>
<g transform="translate(384,240) scale(2.7466666666667)"><path d="M3,6H0V0l3,0c1.7,0,3,1.3,3,3v0C6,4.7,4.7,6,3,6z"/></g>
<g transform="translate(416,240) scale(2.7466666666667)"><path d="M6,6H3C1.3,6,0,4.7,0,3v0c0-1.7,1.3-3,3-3h3C6,0,6,6,6,6z"/></g>
<g transform="translate(432,240) scale(2.7466666666667)"><path d="M3,6H0V0l3,0c1.7,0,3,1.3,3,3v0C6,4.7,4.7,6,3,6z"/></g>
<g transform="translate(464,240) scale(2.7466666666667)"><path d="M6,6H3C1.3,6,0,4.7,0,3V0l6,0V6z"/></g>
<g transform="translate(480,240) scale(2.7466666666667)"><path d="M3,6H0V0l6,0v3C6,4.7,4.7,6,3,6z"/></g>
<g transform="translate(32,256) scale(2.7466666666667)"><circle cx="3" cy="3" r="3"/></g>
<g transform="translate(80,256) scale(2.7466666666667)"><rect width="6" height="6"/></g>
<g transform="translate(112,256) scale(2.7466666666667)"><rect width="6" height="6"/></g>
<g transform="translate(128,256) scale(2.7466666666667)"><rect width="6" height="6"/></g>
<g transform="translate(144,256) scale(2.7466666666667)"><path d="M3,6H0V0l3,0c1.7,0,3,1.3,3,3v0C6,4.7,4.7,6,3,6z"/></g>
<g transform="translate(192,256) scale(2.7466666666667)"><path d="M6,6H3C1.3,6,0,4.7,0,3v0c0-1.7,1.3-3,3-3h3C6,0,6,6,6,6z"/></g>
<g transform="translate(208,256) scale(2.7466666666667)"><path d="M3,6H0V0l6,0v3C6,4.7,4.7,6,3,6z"/></g>
<g transform="translate(256,256) scale(2.7466666666667)"><path d="M6,6H3C1.3,6,0,4.7,0,3V0l6,0V6z"/></g>
<g transform="translate(272,256) scale(2.7466666666667)"><path d="M6,6H0V0l3,0c1.7,0,3,1.3,3,3V6z"/></g>
<g transform="translate(304,256) scale(2.7466666666667)"><path d="M3,6L3,6C1.3,6,0,4.7,0,3V0h6v3C6,4.7,4.7,6,3,6z"/></g>
<g transform="translate(352,256) scale(2.7466666666667)"><rect width="6" height="6"/></g>
<g transform="translate(368,256) scale(2.7466666666667)"><path d="M3,6H0V0l6,0v3C6,4.7,4.7,6,3,6z"/></g>
<g transform="translate(400,256) scale(2.7466666666667)"><circle cx="3" cy="3" r="3"/></g>
<g transform="translate(48,272) scale(2.7466666666667)"><path d="M6,6H0V3c0-1.7,1.3-3,3-3h0c1.7,0,3,1.3,3,3V6z"/></g>
<g transform="translate(80,272) scale(2.7466666666667)"><rect width="6" height="6"/></g>
<g transform="translate(112,272) scale(2.7466666666667)"><rect width="6" height="6"/></g>
<g transform="translate(160,272) scale(2.7466666666667)"><path d="M6,6H0V3c0-1.7,1.3-3,3-3l3,0V6z"/></g>
<g transform="translate(176,272) scale(2.7466666666667)"><path d="M3,6H0V0l3,0c1.7,0,3,1.3,3,3v0C6,4.7,4.7,6,3,6z"/></g>
<g transform="translate(272,272) scale(2.7466666666667)"><rect width="6" height="6"/></g>
<g transform="translate(288,272) scale(2.7466666666667)"><path d="M3,6H0V0l3,0c1.7,0,3,1.3,3,3v0C6,4.7,4.7,6,3,6z"/></g>
<g transform="translate(320,272) scale(2.7466666666667)"><circle cx="3" cy="3" r="3"/></g>
<g transform="translate(352,272) scale(2.7466666666667)"><path d="M3,6L3,6C1.3,6,0,4.7,0,3V0h6v3C6,4.7,4.7,6,3,6z"/></g>
<g transform="translate(416,272) scale(2.7466666666667)"><path d="M6,6H3C1.3,6,0,4.7,0,3v0c0-1.7,1.3-3,3-3h3C6,0,6,6,6,6z"/></g>
<g transform="translate(432,272) scale(2.7466666666667)"><path d="M6,6H0V0l3,0c1.7,0,3,1.3,3,3V6z"/></g>
<g transform="translate(464,272) scale(2.7466666666667)"><path d="M6,6H3C1.3,6,0,4.7,0,3v0c0-1.7,1.3-3,3-3h3C6,0,6,6,6,6z"/></g>
<g transform="translate(480,272) scale(2.7466666666667)"><path d="M6,6H0V0l3,0c1.7,0,3,1.3,3,3V6z"/></g>
<g transform="translate(32,288) scale(2.7466666666667)"><path d="M6,6H0V3c0-1.7,1.3-3,3-3l3,0V6z"/></g>
<g transform="translate(48,288) scale(2.7466666666667)"><path d="M3,6H0V0l6,0v3C6,4.7,4.7,6,3,6z"/></g>
<g transform="translate(80,288) scale(2.7466666666667)"><path d="M6,6H3C1.3,6,0,4.7,0,3V0l6,0V6z"/></g>
<g transform="translate(96,288) scale(2.7466666666667)"><rect width="6" height="6"/></g>
<g transform="translate(112,288) scale(2.7466666666667)"><rect width="6" height="6"/></g>
<g transform="translate(128,288) scale(2.7466666666667)"><path d="M3,6H0V0l3,0c1.7,0,3,1.3,3,3v0C6,4.7,4.7,6,3,6z"/></g>
<g transform="translate(160,288) scale(2.7466666666667)"><rect width="6" height="6"/></g>
<g transform="translate(208,288) scale(2.7466666666667)"><path d="M6,6H0V3c0-1.7,1.3-3,3-3l3,0V6z"/></g>
<g transform="translate(224,288) scale(2.7466666666667)"><path d="M3,6H0V0l3,0c1.7,0,3,1.3,3,3v0C6,4.7,4.7,6,3,6z"/></g>
<g transform="translate(256,288) scale(2.7466666666667)"><path d="M6,6H3C1.3,6,0,4.7,0,3v0c0-1.7,1.3-3,3-3h3C6,0,6,6,6,6z"/></g>
<g transform="translate(272,288) scale(2.7466666666667)"><rect width="6" height="6"/></g>
<g transform="translate(304,288) scale(2.7466666666667)"><circle cx="3" cy="3" r="3"/></g>
<g transform="translate(336,288) scale(2.7466666666667)"><path d="M6,6H0V3c0-1.7,1.3-3,3-3h0c1.7,0,3,1.3,3,3V6z"/></g>
<g transform="translate(368,288) scale(2.7466666666667)"><path d="M6,6H0V3c0-1.7,1.3-3,3-3h0c1.7,0,3,1.3,3,3V6z"/></g>
<g transform="translate(400,288) scale(2.7466666666667)"><path d="M6,6H0V3c0-1.7,1.3-3,3-3h0c1.7,0,3,1.3,3,3V6z"/></g>
<g transform="translate(432,288) scale(2.7466666666667)"><rect width="6" height="6"/></g>
<g transform="translate(448,288) scale(2.7466666666667)"><path d="M6,6H0V0l3,0c1.7,0,3,1.3,3,3V6z"/></g>
<g transform="translate(480,288) scale(2.7466666666667)"><rect width="6" height="6"/></g>
<g transform="translate(32,304) scale(2.7466666666667)"><rect width="6" height="6"/></g>
<g transform="translate(64,304) scale(2.7466666666667)"><path d="M6,6H0V3c0-1.7,1.3-3,3-3h0c1.7,0,3,1.3,3,3V6z"/></g>
<g transform="translate(96,304) scale(2.7466666666667)"><rect width="6" height="6"/></g>
<g transform="translate(144,304) scale(2.7466666666667)"><path d="M6,6H0V3c0-1.7,1.3-3,3-3l3,0V6z"/></g>
<g transform="translate(160,304) scale(2.7466666666667)"><rect width="6" height="6"/></g>
<g transform="translate(176,304) scale(2.7466666666667)"><rect width="6" height="6"/></g>
<g transform="translate(192,304) scale(2.7466666666667)"><rect width="6" height="6"/></g>
<g transform="translate(208,304) scale(2.7466666666667)"><rect width="6" height="6"/></g>
<g transform="translate(240,304) scale(2.7466666666667)"><path d="M6,6H0V3c0-1.7,1.3-3,3-3h0c1.7,0,3,1.3,3,3V6z"/></g>
<g transform="translate(272,304) scale(2.7466666666667)"><path d="M6,6H3C1.3,6,0,4.7,0,3V0l6,0V6z"/></g>
<g transform="translate(288,304) scale(2.7466666666667)"><path d="M3,6H0V0l3,0c1.7,0,3,1.3,3,3v0C6,4.7,4.7,6,3,6z"/></g>
<g transform="translate(320,304) scale(2.7466666666667)"><path d="M6,6H0V3c0-1.7,1.3-3,3-3l3,0V6z"/></g>
<g transform="translate(336,304) scale(2.7466666666667)"><rect width="6" height="6"/></g>
<g transform="translate(352,304) scale(2.7466666666667)"><rect width="6" height="6"/></g>
<g transform="translate(368,304) scale(2.7466666666667)"><rect width="6" height="6"/></g>
<g transform="translate(384,304) scale(2.7466666666667)"><rect width="6" height="6"/></g>
<g transform="translate(400,304) scale(2.7466666666667)"><rect width="6" height="6"/></g>
<g transform="translate(416,304) scale(2.7466666666667)"><rect width="6" height="6"/></g>
<g transform="translate(432,304) scale(2.7466666666667)"><rect width="6" height="6"/></g>
<g transform="translate(448,304) scale(2.7466666666667)"><rect width="6" height="6"/></g>
<g transform="translate(464,304) scale(2.7466666666667)"><rect width="6" height="6"/></g>
<g transform="translate(480,304) scale(2.7466666666667)"><path d="M3,6H0V0l6,0v3C6,4.7,4.7,6,3,6z"/></g>
<g transform="translate(32,320) scale(2.7466666666667)"><rect width="6" height="6"/></g>
<g transform="translate(64,320) scale(2.7466666666667)"><path d="M3,6L3,6C1.3,6,0,4.7,0,3V0h6v3C6,4.7,4.7,6,3,6z"/></g>
<g transform="translate(96,320) scale(2.7466666666667)"><path d="M6,6H3C1.3,6,0,4.7,0,3V0l6,0V6z"/></g>
<g transform="translate(112,320) scale(2.7466666666667)"><rect width="6" height="6"/></g>
<g transform="translate(128,320) scale(2.7466666666667)"><rect width="6" height="6"/></g>
<g transform="translate(144,320) scale(2.7466666666667)"><rect width="6" height="6"/></g>
<g transform="translate(160,320) scale(2.7466666666667)"><rect width="6" height="6"/></g>
<g transform="translate(176,320) scale(2.7466666666667)"><path d="M3,6H0V0l6,0v3C6,4.7,4.7,6,3,6z"/></g>
<g transform="translate(208,320) scale(2.7466666666667)"><path d="M3,6L3,6C1.3,6,0,4.7,0,3V0h6v3C6,4.7,4.7,6,3,6z"/></g>
<g transform="translate(240,320) scale(2.7466666666667)"><rect width="6" height="6"/></g>
<g transform="translate(320,320) scale(2.7466666666667)"><path d="M3,6L3,6C1.3,6,0,4.7,0,3V0h6v3C6,4.7,4.7,6,3,6z"/></g>
<g transform="translate(352,320) scale(2.7466666666667)"><rect width="6" height="6"/></g>
<g transform="translate(384,320) scale(2.7466666666667)"><rect width="6" height="6"/></g>
<g transform="translate(400,320) scale(2.7466666666667)"><rect width="6" height="6"/></g>
<g transform="translate(416,320) scale(2.7466666666667)"><rect width="6" height="6"/></g>
<g transform="translate(448,320) scale(2.7466666666667)"><path d="M3,6L3,6C1.3,6,0,4.7,0,3V0h6v3C6,4.7,4.7,6,3,6z"/></g>
<g transform="translate(32,336) scale(2.7466666666667)"><rect width="6" height="6"/></g>
<g transform="translate(80,336) scale(2.7466666666667)"><circle cx="3" cy="3" r="3"/></g>
<g transform="translate(112,336) scale(2.7466666666667)"><path d="M3,6L3,6C1.3,6,0,4.7,0,3V0h6v3C6,4.7,4.7,6,3,6z"/></g>
<g transform="translate(144,336) scale(2.7466666666667)"><rect width="6" height="6"/></g>
<g transform="translate(160,336) scale(2.7466666666667)"><path d="M3,6H0V0l6,0v3C6,4.7,4.7,6,3,6z"/></g>
<g transform="translate(192,336) scale(2.7466666666667)"><path d="M6,6H0V3c0-1.7,1.3-3,3-3h0c1.7,0,3,1.3,3,3V6z"/></g>
<g transform="translate(224,336) scale(2.7466666666667)"><path d="M6,6H0V3c0-1.7,1.3-3,3-3l3,0V6z"/></g>
<g transform="translate(240,336) scale(2.7466666666667)"><path d="M3,6H0V0l6,0v3C6,4.7,4.7,6,3,6z"/></g>
<g transform="translate(288,336) scale(2.7466666666667)"><circle cx="3" cy="3" r="3"/></g>
<g transform="translate(336,336) scale(2.7466666666667)"><path d="M6,6H3C1.3,6,0,4.7,0,3v0c0-1.7,1.3-3,3-3h3C6,0,6,6,6,6z"/></g>
<g transform="translate(352,336) scale(2.7466666666667)"><rect width="6" height="6"/></g>
<g transform="translate(384,336) scale(2.7466666666667)"><rect width="6" height="6"/></g>
<g transform="translate(400,336) scale(2.7466666666667)"><rect width="6" height="6"/></g>
<g transform="translate(416,336) scale(2.7466666666667)"><rect width="6" height="6"/></g>
<g transform="translate(432,336) scale(2.7466666666667)"><path d="M3,6H0V0l3,0c1.7,0,3,1.3,3,3v0C6,4.7,4.7,6,3,6z"/></g>
<g transform="translate(480,336) scale(2.7466666666667)"><path d="M6,6H0V3c0-1.7,1.3-3,3-3h0c1.7,0,3,1.3,3,3V6z"/></g>
<g transform="translate(32,352) scale(2.7466666666667)"><path d="M3,6L3,6C1.3,6,0,4.7,0,3V0h6v3C6,4.7,4.7,6,3,6z"/></g>
<g transform="translate(128,352) scale(2.7466666666667)"><path d="M6,6H3C1.3,6,0,4.7,0,3v0c0-1.7,1.3-3,3-3h3C6,0,6,6,6,6z"/></g>
<g transform="translate(144,352) scale(2.7466666666667)"><path d="M3,6H0V0l6,0v3C6,4.7,4.7,6,3,6z"/></g>
<g transform="translate(176,352) scale(2.7466666666667)"><path d="M6,6H0V3c0-1.7,1.3-3,3-3l3,0V6z"/></g>
<g transform="translate(192,352) scale(2.7466666666667)"><rect width="6" height="6"/></g>
<g transform="translate(208,352) scale(2.7466666666667)"><rect width="6" height="6"/></g>
<g transform="translate(224,352) scale(2.7466666666667)"><rect width="6" height="6"/></g>
<g transform="translate(304,352) scale(2.7466666666667)"><circle cx="3" cy="3" r="3"/></g>
<g transform="translate(352,352) scale(2.7466666666667)"><rect width="6" height="6"/></g>
<g transform="translate(368,352) scale(2.7466666666667)"><rect width="6" height="6"/></g>
<g transform="translate(384,352) scale(2.7466666666667)"><rect width="6" height="6"/></g>
<g transform="translate(400,352) scale(2.7466666666667)"><rect width="6" height="6"/></g>
<g transform="translate(416,352) scale(2.7466666666667)"><rect width="6" height="6"/></g>
<g transform="translate(448,352) scale(2.7466666666667)"><circle cx="3" cy="3" r="3"/></g>
<g transform="translate(480,352) scale(2.7466666666667)"><rect width="6" height="6"/></g>
<g transform="translate(160,368) scale(2.7466666666667)"><path d="M6,6H0V3c0-1.7,1.3-3,3-3l3,0V6z"/></g>
<g transform="translate(176,368) scale(2.7466666666667)"><path d="M3,6H0V0l6,0v3C6,4.7,4.7,6,3,6z"/></g>
<g transform="translate(208,368) scale(2.7466666666667)"><rect width="6" height="6"/></g>
<g transform="translate(224,368) scale(2.7466666666667)"><path d="M3,6H0V0l6,0v3C6,4.7,4.7,6,3,6z"/></g>
<g transform="translate(256,368) scale(2.7466666666667)"><path d="M6,6H0V3c0-1.7,1.3-3,3-3h0c1.7,0,3,1.3,3,3V6z"/></g>
<g transform="translate(288,368) scale(2.7466666666667)"><circle cx="3" cy="3" r="3"/></g>
<g transform="translate(320,368) scale(2.7466666666667)"><circle cx="3" cy="3" r="3"/></g>
<g transform="translate(352,368) scale(2.7466666666667)"><rect width="6" height="6"/></g>
<g transform="translate(416,368) scale(2.7466666666667)"><rect width="6" height="6"/></g>
<g transform="translate(432,368) scale(2.7466666666667)"><path d="M3,6H0V0l3,0c1.7,0,3,1.3,3,3v0C6,4.7,4.7,6,3,6z"/></g>
<g transform="translate(464,368) scale(2.7466666666667)"><path d="M6,6H3C1.3,6,0,4.7,0,3v0c0-1.7,1.3-3,3-3h3C6,0,6,6,6,6z"/></g>
<g transform="translate(480,368) scale(2.7466666666667)"><path d="M3,6H0V0l6,0v3C6,4.7,4.7,6,3,6z"/></g>
<g transform="translate(160,384) scale(2.7466666666667)"><rect width="6" height="6"/></g>
<g transform="translate(208,384) scale(2.7466666666667)"><path d="M3,6L3,6C1.3,6,0,4.7,0,3V0h6v3C6,4.7,4.7,6,3,6z"/></g>
<g transform="translate(240,384) scale(2.7466666666667)"><path d="M6,6H3C1.3,6,0,4.7,0,3v0c0-1.7,1.3-3,3-3h3C6,0,6,6,6,6z"/></g>
<g transform="translate(256,384) scale(2.7466666666667)"><rect width="6" height="6"/></g>
<g transform="translate(272,384) scale(2.7466666666667)"><path d="M6,6H0V0l3,0c1.7,0,3,1.3,3,3V6z"/></g>
<g transform="translate(304,384) scale(2.7466666666667)"><circle cx="3" cy="3" r="3"/></g>
<g transform="translate(336,384) scale(2.7466666666667)"><path d="M6,6H0V3c0-1.7,1.3-3,3-3l3,0V6z"/></g>
<g transform="translate(352,384) scale(2.7466666666667)"><rect width="6" height="6"/></g>
<g transform="translate(384,384) scale(2.7466666666667)"><circle cx="3" cy="3" r="3"/></g>
<g transform="translate(416,384) scale(2.7466666666667)"><rect width="6" height="6"/></g>
<g transform="translate(160,400) scale(2.7466666666667)"><rect width="6" height="6"/></g>
<g transform="translate(176,400) scale(2.7466666666667)"><rect width="6" height="6"/></g>
<g transform="translate(192,400) scale(2.7466666666667)"><path d="M3,6H0V0l3,0c1.7,0,3,1.3,3,3v0C6,4.7,4.7,6,3,6z"/></g>
<g transform="translate(256,400) scale(2.7466666666667)"><path d="M6,6H3C1.3,6,0,4.7,0,3V0l6,0V6z"/></g>
<g transform="translate(272,400) scale(2.7466666666667)"><rect width="6" height="6"/></g>
<g transform="translate(288,400) scale(2.7466666666667)"><path d="M3,6H0V0l3,0c1.7,0,3,1.3,3,3v0C6,4.7,4.7,6,3,6z"/></g>
<g transform="translate(320,400) scale(2.7466666666667)"><path d="M6,6H3C1.3,6,0,4.7,0,3v0c0-1.7,1.3-3,3-3h3C6,0,6,6,6,6z"/></g>
<g transform="translate(336,400) scale(2.7466666666667)"><rect width="6" height="6"/></g>
<g transform="translate(352,400) scale(2.7466666666667)"><rect width="6" height="6"/></g>
<g transform="translate(416,400) scale(2.7466666666667)"><rect width="6" height="6"/></g>
<g transform="translate(432,400) scale(2.7466666666667)"><path d="M6,6H0V0l3,0c1.7,0,3,1.3,3,3V6z"/></g>
<g transform="translate(160,416) scale(2.7466666666667)"><rect width="6" height="6"/></g>
<g transform="translate(208,416) scale(2.7466666666667)"><path d="M6,6H0V3c0-1.7,1.3-3,3-3h0c1.7,0,3,1.3,3,3V6z"/></g>
<g transform="translate(240,416) scale(2.7466666666667)"><path d="M6,6H0V3c0-1.7,1.3-3,3-3h0c1.7,0,3,1.3,3,3V6z"/></g>
<g transform="translate(272,416) scale(2.7466666666667)"><rect width="6" height="6"/></g>
<g transform="translate(304,416) scale(2.7466666666667)"><path d="M6,6H0V3c0-1.7,1.3-3,3-3h0c1.7,0,3,1.3,3,3V6z"/></g>
<g transform="translate(352,416) scale(2.7466666666667)"><rect width="6" height="6"/></g>
<g transform="translate(368,416) scale(2.7466666666667)"><rect width="6" height="6"/></g>
<g transform="translate(384,416) scale(2.7466666666667)"><rect width="6" height="6"/></g>
<g transform="translate(400,416) scale(2.7466666666667)"><rect width="6" height="6"/></g>
<g transform="translate(416,416) scale(2.7466666666667)"><rect width="6" height="6"/></g>
<g transform="translate(432,416) scale(2.7466666666667)"><rect width="6" height="6"/></g>
<g transform="translate(448,416) scale(2.7466666666667)"><rect width="6" height="6"/></g>
<g transform="translate(464,416) scale(2.7466666666667)"><rect width="6" height="6"/></g>
<g transform="translate(480,416) scale(2.7466666666667)"><path d="M3,6H0V0l3,0c1.7,0,3,1.3,3,3v0C6,4.7,4.7,6,3,6z"/></g>
<g transform="translate(160,432) scale(2.7466666666667)"><rect width="6" height="6"/></g>
<g transform="translate(176,432) scale(2.7466666666667)"><path d="M6,6H0V0l3,0c1.7,0,3,1.3,3,3V6z"/></g>
<g transform="translate(208,432) scale(2.7466666666667)"><path d="M3,6L3,6C1.3,6,0,4.7,0,3V0h6v3C6,4.7,4.7,6,3,6z"/></g>
<g transform="translate(240,432) scale(2.7466666666667)"><rect width="6" height="6"/></g>
<g transform="translate(256,432) scale(2.7466666666667)"><rect width="6" height="6"/></g>
<g transform="translate(272,432) scale(2.7466666666667)"><rect width="6" height="6"/></g>
<g transform="translate(304,432) scale(2.7466666666667)"><rect width="6" height="6"/></g>
<g transform="translate(336,432) scale(2.7466666666667)"><path d="M6,6H0V3c0-1.7,1.3-3,3-3l3,0V6z"/></g>
<g transform="translate(352,432) scale(2.7466666666667)"><rect width="6" height="6"/></g>
<g transform="translate(368,432) scale(2.7466666666667)"><rect width="6" height="6"/></g>
<g transform="translate(400,432) scale(2.7466666666667)"><rect width="6" height="6"/></g>
<g transform="translate(160,448) scale(2.7466666666667)"><rect width="6" height="6"/></g>
<g transform="translate(176,448) scale(2.7466666666667)"><path d="M3,6H0V0l6,0v3C6,4.7,4.7,6,3,6z"/></g>
<g transform="translate(224,448) scale(2.7466666666667)"><path d="M6,6H0V3c0-1.7,1.3-3,3-3l3,0V6z"/></g>
<g transform="translate(240,448) scale(2.7466666666667)"><rect width="6" height="6"/></g>
<g transform="translate(272,448) scale(2.7466666666667)"><path d="M3,6L3,6C1.3,6,0,4.7,0,3V0h6v3C6,4.7,4.7,6,3,6z"/></g>
<g transform="translate(304,448) scale(2.7466666666667)"><path d="M3,6L3,6C1.3,6,0,4.7,0,3V0h6v3C6,4.7,4.7,6,3,6z"/></g>
<g transform="translate(336,448) scale(2.7466666666667)"><path d="M6,6H3C1.3,6,0,4.7,0,3V0l6,0V6z"/></g>
<g transform="translate(352,448) scale(2.7466666666667)"><rect width="6" height="6"/></g>
<g transform="translate(368,448) scale(2.7466666666667)"><rect width="6" height="6"/></g>
<g transform="translate(384,448) scale(2.7466666666667)"><rect width="6" height="6"/></g>
<g transform="translate(400,448) scale(2.7466666666667)"><rect width="6" height="6"/></g>
<g transform="translate(416,448) scale(2.7466666666667)"><path d="M6,6H0V0l3,0c1.7,0,3,1.3,3,3V6z"/></g>
<g transform="translate(448,448) scale(2.7466666666667)"><path d="M6,6H3C1.3,6,0,4.7,0,3v0c0-1.7,1.3-3,3-3h3C6,0,6,6,6,6z"/></g>
<g transform="translate(464,448) scale(2.7466666666667)"><path d="M6,6H0V0l3,0c1.7,0,3,1.3,3,3V6z"/></g>
<g transform="translate(160,464) scale(2.7466666666667)"><path d="M3,6L3,6C1.3,6,0,4.7,0,3V0h6v3C6,4.7,4.7,6,3,6z"/></g>
<g transform="translate(224,464) scale(2.7466666666667)"><rect width="6" height="6"/></g>
<g transform="translate(240,464) scale(2.7466666666667)"><rect width="6" height="6"/></g>
<g transform="translate(320,464) scale(2.7466666666667)"><circle cx="3" cy="3" r="3"/></g>
<g transform="translate(352,464) scale(2.7466666666667)"><path d="M3,6L3,6C1.3,6,0,4.7,0,3V0h6v3C6,4.7,4.7,6,3,6z"/></g>
<g transform="translate(384,464) scale(2.7466666666667)"><rect width="6" height="6"/></g>
<g transform="translate(416,464) scale(2.7466666666667)"><rect width="6" height="6"/></g>
<g transform="translate(432,464) scale(2.7466666666667)"><path d="M3,6H0V0l3,0c1.7,0,3,1.3,3,3v0C6,4.7,4.7,6,3,6z"/></g>
<g transform="translate(464,464) scale(2.7466666666667)"><path d="M3,6L3,6C1.3,6,0,4.7,0,3V0h6v3C6,4.7,4.7,6,3,6z"/></g>
<g transform="translate(192,480) scale(2.7466666666667)"><path d="M6,6H3C1.3,6,0,4.7,0,3v0c0-1.7,1.3-3,3-3h3C6,0,6,6,6,6z"/></g>
<g transform="translate(208,480) scale(2.7466666666667)"><rect width="6" height="6"/></g>
<g transform="translate(224,480) scale(2.7466666666667)"><rect width="6" height="6"/></g>
<g transform="translate(240,480) scale(2.7466666666667)"><rect width="6" height="6"/></g>
<g transform="translate(256,480) scale(2.7466666666667)"><rect width="6" height="6"/></g>
<g transform="translate(272,480) scale(2.7466666666667)"><rect width="6" height="6"/></g>
<g transform="translate(288,480) scale(2.7466666666667)"><rect width="6" height="6"/></g>
<g transform="translate(304,480) scale(2.7466666666667)"><path d="M3,6H0V0l3,0c1.7,0,3,1.3,3,3v0C6,4.7,4.7,6,3,6z"/></g>
<g transform="translate(336,480) scale(2.7466666666667)"><circle cx="3" cy="3" r="3"/></g>
<g transform="translate(368,480) scale(2.7466666666667)"><path d="M6,6H3C1.3,6,0,4.7,0,3v0c0-1.7,1.3-3,3-3h3C6,0,6,6,6,6z"/></g>
<g transform="translate(384,480) scale(2.7466666666667)"><path d="M3,6H0V0l6,0v3C6,4.7,4.7,6,3,6z"/></g>
<g transform="translate(416,480) scale(2.7466666666667)"><path d="M3,6L3,6C1.3,6,0,4.7,0,3V0h6v3C6,4.7,4.7,6,3,6z"/></g>
<g transform="translate(448,480) scale(2.7466666666667)"><circle cx="3" cy="3" r="3"/></g>
<g transform="translate(32,32)"><g transform="scale(8)"><path d="M4.5,14h5.1C12,14,14,12,14,9.6V4.5C14,2,12,0,9.5,0H4.4C2,0,0,2,0,4.4v5.1C0,12,2,14,4.5,14z M12,4.8v4.4 c0,1.5-1.3,2.8-2.8,2.8H4.8C3.2,12,2,10.8,2,9.2V4.8C2,3.3,3.3,2,4.8,2h4.4C10.8,2,12,3.2,12,4.8z"/></g></g>
<g transform="translate(384,32)"><g transform="scale(8)"><path d="M4.5,14h5.1C12,14,14,12,14,9.6V4.5C14,2,12,0,9.5,0H4.4C2,0,0,2,0,4.4v5.1C0,12,2,14,4.5,14z M12,4.8v4.4 c0,1.5-1.3,2.8-2.8,2.8H4.8C3.2,12,2,10.8,2,9.2V4.8C2,3.3,3.3,2,4.8,2h4.4C10.8,2,12,3.2,12,4.8z"/></g></g>
<g transform="translate(32,384)"><g transform="scale(8)"><path d="M4.5,14h5.1C12,14,14,12,14,9.6V4.5C14,2,12,0,9.5,0H4.4C2,0,0,2,0,4.4v5.1C0,12,2,14,4.5,14z M12,4.8v4.4 c0,1.5-1.3,2.8-2.8,2.8H4.8C3.2,12,2,10.8,2,9.2V4.8C2,3.3,3.3,2,4.8,2h4.4C10.8,2,12,3.2,12,4.8z"/></g></g>
<g transform="translate(64,64)"><g transform="scale(8)"><rect width="6" height="6"/></g></g>
<g transform="translate(416,64)"><g transform="scale(8)"><rect width="6" height="6"/></g></g>
<g transform="translate(64,416)"><g transform="scale(8)"><rect width="6" height="6"/></g></g>
</g></g></mask></defs><rect width="528" height="528" fill="#ffffff" x="0" y="0"/><rect x="0" y="0" width="528" height="528" mask="url(#qrmask)" fill="#000000"/></svg>
