<svg width="1341" height="408" viewBox="0 0 1341 408" fill="none" xmlns="http://www.w3.org/2000/svg">
<path d="M435.95 168.17H454.05V173.58C458.9 168.88 465.02 165.32 473.86 165.32C482.7 165.32 490.96 169.31 495.66 177.01C500.79 170.74 507.63 165.32 519.74 165.32C534.56 165.32 546.24 175.58 546.24 195.82V239.99H528V196.53C528 187.84 523.3 182.42 515.18 182.42C507.06 182.42 503.07 187.83 500.22 192.68C500.36 193.68 500.36 194.68 500.36 195.82V239.99H482.12V196.53C482.12 187.84 477.42 182.42 469.3 182.42C461.18 182.42 456.76 188.54 454.05 193.11V239.99H435.95V168.18V168.17ZM562.9 220.6C562.9 209.78 571.31 201.65 586.7 199.09L608.65 195.39V193.54C608.65 185.99 602.95 181.14 594.69 181.14C587.7 181.14 582.29 184.42 578.44 189.69L565.19 179.58C571.6 170.74 582.15 165.33 595.25 165.33C616.05 165.33 626.74 177.73 626.74 193.54V239.99H608.64V233C604.08 238.56 595.53 242.12 587.13 242.12C572.74 242.12 562.91 233.86 562.91 220.61L562.9 220.6ZM590.82 227.72C599.08 227.72 605.07 223.87 608.63 218.17V208.06L591.53 210.91C583.98 212.2 580.84 215.32 580.84 219.75C580.84 224.6 584.69 227.73 590.81 227.73L590.82 227.72ZM736.58 217.46L750.69 228.28C743.99 237.12 733.45 242.82 720.34 242.82C695.54 242.82 680.73 225.01 680.73 204.06C680.73 183.11 695.55 165.3 720.34 165.3C733.45 165.3 743.99 171 750.69 179.84L736.58 190.66C733.16 185.67 727.46 182.4 720.06 182.4C708.24 182.4 699.54 191.52 699.54 204.06C699.54 216.6 708.23 225.72 720.34 225.72C727.46 225.72 733.16 222.44 736.59 217.46H736.58ZM758.95 220.6C758.95 209.78 767.36 201.65 782.75 199.09L804.7 195.39V193.54C804.7 185.99 799 181.14 790.74 181.14C783.75 181.14 778.34 184.42 774.49 189.69L761.24 179.58C767.65 170.74 778.2 165.33 791.3 165.33C812.1 165.33 822.79 177.73 822.79 193.54V239.99H804.69V233C800.13 238.56 791.58 242.12 783.18 242.12C768.79 242.12 758.96 233.86 758.96 220.61L758.95 220.6ZM786.87 227.72C795.13 227.72 801.12 223.87 804.68 218.17V208.06L787.58 210.91C780.03 212.2 776.89 215.32 776.89 219.75C776.89 224.6 780.74 227.73 786.86 227.73L786.87 227.72ZM843.44 168.16H861.54V173.86C866.53 169.01 873.23 165.31 882.77 165.31C898.3 165.31 910.69 176 910.69 197.23V239.98H892.45V197.95C892.45 188.4 887.04 182.42 878.2 182.42C869.36 182.42 864.24 188.54 861.53 193.11V239.99H843.43V168.18L843.44 168.16ZM935.77 184.41H922.37V168.16H935.77V150.21H954.01V168.16H975.96V184.41H954.01V213.76C954.01 221.74 958.28 224.87 965.41 224.87C970.4 224.87 973.67 224.3 976.1 223.31V239.12C972.54 240.68 968.26 241.4 962.28 241.4C944.33 241.4 935.78 231.29 935.78 213.75V184.4L935.77 184.41ZM989.49 143.8C989.49 137.39 994.9 131.98 1001.31 131.98C1007.72 131.98 1013 137.39 1013 143.8C1013 150.21 1007.73 155.62 1001.31 155.62C994.89 155.62 989.49 150.21 989.49 143.8ZM992.2 168.16H1010.3V239.97H992.2V168.16ZM1031.95 168.16H1050.05V173.86C1055.04 169.01 1061.74 165.31 1071.28 165.31C1086.81 165.31 1099.2 176 1099.2 197.23V239.98H1080.96V197.95C1080.96 188.4 1075.55 182.42 1066.71 182.42C1057.87 182.42 1052.75 188.54 1050.04 193.11V239.99H1031.94V168.18L1031.95 168.16ZM1154.49 242.82C1128.98 242.82 1114.59 225.01 1114.59 204.06C1114.59 183.11 1127.99 165.3 1151.49 165.3C1171.44 165.3 1184.55 178.84 1184.55 197.65C1184.55 201.64 1183.98 205.35 1183.41 207.76H1133.11C1134.82 221.16 1143.08 226.57 1154.34 226.57C1162.18 226.57 1169.01 223.15 1172.86 218.02L1185.82 228.28C1179.12 237.25 1168.01 242.82 1154.47 242.82H1154.49ZM1133.69 194.66H1166.75C1166.46 187.4 1161.19 180.12 1151.08 180.12C1141.82 180.12 1135.69 185.25 1133.69 194.66Z" fill="black"/>
<path d="M353.43 151.54L364.07 222.75C367.01 242.41 353.45 260.74 333.79 263.68L172.09 287.85C152.43 290.79 134.1 277.23 131.16 257.57L120.52 186.36C117.58 166.7 131.14 148.37 150.8 145.43L312.5 121.26C332.16 118.32 350.49 131.88 353.43 151.54Z" fill="#E2E2FC"/>
<path d="M209.67 242.91L206.02 237.22C205.09 235.76 203.64 234.68 201.96 234.18L195.78 232.35L186.71 248.06C185.7 249.82 187.19 251.96 189.19 251.61L202.81 249.24L207.57 262.22C208.27 264.12 210.87 264.35 211.88 262.59L218.88 250.48C215.14 249.02 211.91 246.42 209.67 242.92V242.91Z" fill="#6A6AF3"/>
<path d="M286.04 232.38L280.14 234.13C278.46 234.63 277.01 235.72 276.08 237.18L272.45 242.87C270.16 246.46 266.83 249.11 262.97 250.54L269.92 262.57C270.93 264.33 273.54 264.1 274.23 262.2L278.99 249.22L292.61 251.59C294.61 251.94 296.1 249.8 295.09 248.04L286.04 232.37V232.38Z" fill="#6A6AF3"/>
<path d="M241.02 218.4C260.726 218.4 276.7 202.426 276.7 182.72C276.7 163.014 260.726 147.04 241.02 147.04C221.315 147.04 205.34 163.014 205.34 182.72C205.34 202.426 221.315 218.4 241.02 218.4Z" fill="#000090"/>
<path d="M301.26 174.85L296.52 168.55C294.7 166.13 293.77 163.17 293.88 160.15L294.17 152.21C294.39 146.19 290.49 140.77 284.69 139.05L278.29 137.15C275.23 136.24 272.59 134.26 270.88 131.58L267.24 125.89C263.84 120.58 257.15 118.39 251.25 120.66L245.7 122.8C242.62 123.99 239.2 123.99 236.12 122.8L230.57 120.66C224.67 118.39 217.97 120.58 214.58 125.89L210.94 131.58C209.22 134.27 206.59 136.24 203.53 137.15L197.13 139.05C191.33 140.77 187.43 146.18 187.65 152.21L187.94 160.15C188.05 163.17 187.12 166.14 185.3 168.55L180.56 174.85C177.03 179.55 177.03 186 180.56 190.7L185.3 197C187.12 199.42 188.05 202.38 187.94 205.4L187.65 213.34C187.43 219.37 191.33 224.78 197.13 226.5L203.53 228.4C206.59 229.31 209.23 231.29 210.94 233.97L214.58 239.66C217.98 244.97 224.67 247.16 230.57 244.89L236.12 242.75C239.2 241.56 242.62 241.56 245.7 242.75L251.25 244.89C257.15 247.16 263.85 244.97 267.24 239.66L270.88 233.97C272.6 231.28 275.23 229.31 278.29 228.4L284.69 226.5C290.49 224.78 294.39 219.37 294.17 213.34L293.88 205.4C293.77 202.38 294.7 199.42 296.52 197L301.26 190.7C304.79 186 304.79 179.55 301.26 174.85ZM241.02 224.4C218.04 224.4 199.34 205.7 199.34 182.72C199.34 159.74 218.04 141.04 241.02 141.04C264 141.04 282.7 159.74 282.7 182.72C282.7 205.7 264 224.4 241.02 224.4Z" fill="#000090"/>
<path d="M155.31 171.06L159.11 188.92L156.76 189.42L155.58 189.67L151.78 171.81L148.26 172.56L152.06 190.42L150.89 190.67L148.54 191.17L144.74 173.31L141.22 174.06L145.02 191.92L146.14 197.2C146.51 198.94 147.63 200.43 149.21 201.26L151.15 202.28C152.73 203.11 153.85 204.6 154.22 206.34L165.69 260.31L171.56 259.06L160.09 205.09C159.72 203.35 160.14 201.53 161.24 200.13L162.59 198.41C163.69 197.01 164.11 195.19 163.74 193.45L162.62 188.16L158.82 170.3L155.3 171.05L155.31 171.06Z" fill="#000090"/>
<path d="M331.69 151.43L323.86 240.98L317.88 240.46L320.92 205.67C317.73 205.39 315.49 202.4 316.11 199.26L324.54 156.79C325.2 153.44 328.28 151.13 331.69 151.43Z" fill="#000090"/>
</svg>
