<svg width="100" height="90" viewBox="0 0 100 90" fill="none" xmlns="http://www.w3.org/2000/svg">
<rect width="33" height="12" transform="translate(12 12)" fill="white"/>
<path d="M22.6562 22.5498C22.6602 22.5498 22.6642 22.5439 22.6642 22.5439C22.696 22.5203 22.7279 22.4909 22.7558 22.4556C22.7518 22.4556 22.7478 22.4556 22.7438 22.4498C22.7159 22.4792 22.6841 22.5145 22.6562 22.5498Z" fill="#000091"/>
<path d="M27.0694 21.0629L26.9997 21.1229C27.0396 21.1129 27.0694 21.1029 27.0694 21.0629Z" fill="#000091"/>
<path fill-rule="evenodd" clip-rule="evenodd" d="M25.6426 22.5817C25.7704 22.4532 25.8983 22.3168 26.0261 22.1765H26.0222C26.2624 21.9038 26.4948 21.6428 26.7737 21.4051C26.8589 21.3272 26.9402 21.261 27.0177 21.2064C27.0291 21.195 27.0349 21.1779 27.0406 21.1612C27.0465 21.1438 27.0523 21.1268 27.0642 21.1168C27.009 21.1379 26.965 21.1712 26.9207 21.2047C26.8749 21.2394 26.8289 21.2742 26.7698 21.296C26.7466 21.296 26.7233 21.2727 26.7466 21.2493C26.8279 21.1908 26.9092 21.1285 26.9867 21.0662H26.9712C26.948 21.0662 26.948 21.0428 26.948 21.0194C26.6596 20.9736 26.4381 21.1708 26.2399 21.3473L26.2275 21.3584C26.1966 21.3739 26.1675 21.3585 26.1446 21.3464C26.133 21.3403 26.123 21.335 26.1152 21.335C25.9398 21.3938 25.7885 21.5022 25.6362 21.6114C25.4959 21.7119 25.3548 21.813 25.1933 21.8765V21.8298C25.1384 21.8487 25.0842 21.8734 25.0298 21.8981C24.9498 21.9345 24.8696 21.971 24.7865 21.9895C24.6349 22.0247 24.4943 22.0202 24.358 22.0158C24.3133 22.0143 24.2689 22.0129 24.2249 22.0129C23.9768 22.0375 23.7319 22.0906 23.4872 22.1437L23.4076 22.161C23.4037 22.1629 23.3998 22.1639 23.3959 22.1649C23.3921 22.1658 23.3882 22.1668 23.3843 22.1688C23.2371 22.2077 23.1016 22.2623 22.966 22.3402L22.9505 22.348C22.9452 22.3551 22.9398 22.3614 22.9349 22.3673C22.929 22.3743 22.9237 22.3806 22.9195 22.3869C22.873 22.4415 22.8304 22.4882 22.7646 22.5233C22.6673 22.5722 22.5832 22.6476 22.5005 22.7219C22.4647 22.754 22.429 22.7861 22.3927 22.8155C22.385 22.8233 22.3695 22.8272 22.3578 22.8272C22.2378 22.9441 22.1177 23.061 21.9937 23.1739C21.986 23.1817 21.9511 23.1856 21.924 23.1817C21.924 23.1817 21.9279 23.1817 21.9279 23.1778L21.9395 23.1545L21.9976 23.061C22.0092 23.0434 22.0199 23.0259 22.0305 23.0084C22.0412 22.9908 22.0518 22.9733 22.0635 22.9558C22.0944 22.909 22.1255 22.8622 22.1603 22.8194C22.168 22.8077 22.168 22.796 22.1603 22.7882C22.1525 22.7804 22.1409 22.7765 22.1293 22.7765C22.2416 22.6675 22.3733 22.5739 22.5089 22.4921V22.4882C22.4934 22.4921 22.4702 22.4804 22.4818 22.4649C22.4932 22.4506 22.5024 22.4342 22.5112 22.4188L22.5205 22.4025C22.5225 22.3986 22.5234 22.3957 22.5244 22.3928C22.5254 22.3899 22.5263 22.3869 22.5283 22.383C22.5263 22.3791 22.5234 22.3762 22.5205 22.3733C22.5176 22.3704 22.5147 22.3675 22.5128 22.3636L22.4893 22.3791C22.4612 22.3974 22.4324 22.4163 22.4082 22.4376C22.3911 22.4523 22.3751 22.4725 22.3588 22.4932C22.3232 22.5382 22.2857 22.5856 22.23 22.5856C22.2261 22.5856 22.2068 22.5856 22.1952 22.5817C22.1835 22.5817 22.1758 22.5778 22.1719 22.5739C22.1719 22.572 22.1719 22.571 22.1724 22.5705C22.1729 22.57 22.1738 22.57 22.1758 22.57C22.1758 22.57 22.1797 22.5662 22.1797 22.5623C22.1797 22.5623 22.1797 22.5584 22.1835 22.5584C22.1855 22.5545 22.1874 22.5515 22.1893 22.5486C22.1913 22.5457 22.1932 22.5428 22.1952 22.5389C22.1971 22.535 22.199 22.5321 22.201 22.5291C22.2029 22.5262 22.2048 22.5233 22.2068 22.5194C22.2087 22.5175 22.2097 22.5145 22.2106 22.5116C22.2116 22.5087 22.2126 22.5058 22.2145 22.5038L22.2189 22.4958C22.2227 22.4889 22.2273 22.4808 22.23 22.4726C22.2319 22.4688 22.2339 22.4658 22.2358 22.4629C22.2378 22.46 22.2397 22.4571 22.2416 22.4532C22.2474 22.4454 22.2523 22.4366 22.2571 22.4278C22.262 22.4191 22.2668 22.4103 22.2726 22.4025C22.2765 22.3947 22.2804 22.3869 22.2881 22.3791C22.292 22.3713 22.2959 22.3645 22.2997 22.3577C22.3036 22.3509 22.3075 22.3441 22.3114 22.3363C22.323 22.3168 22.3114 22.3012 22.2959 22.2973C22.3385 22.2428 22.3888 22.196 22.4508 22.161H22.4431C22.4965 22.1341 22.5515 22.1026 22.6062 22.0713C22.6384 22.0528 22.671 22.0341 22.7026 22.0168C22.7142 22.0051 22.7258 21.9934 22.7413 21.9856C22.6135 22.0285 22.4973 22.0869 22.385 22.1649C22.385 22.1649 22.354 22.1765 22.3462 22.1843C22.3462 22.1843 22.323 22.1921 22.292 22.1649C22.2881 22.161 22.2881 22.1571 22.2881 22.1493C22.3016 22.1222 22.3293 22.1043 22.3594 22.0849C22.3812 22.0708 22.4041 22.056 22.4237 22.0363C22.4469 22.0363 22.4663 22.0363 22.4663 22.0597C22.9124 21.7099 23.4625 21.6289 24.0144 21.5477C24.3539 21.4978 24.6941 21.4478 25.0112 21.335C25.0441 21.3116 25.078 21.2892 25.1119 21.2668C25.1458 21.2444 25.1797 21.222 25.2126 21.1986C25.2691 21.1751 25.3198 21.1348 25.3734 21.0922C25.4263 21.0501 25.4822 21.0056 25.5496 20.9727C25.7278 20.8363 25.8634 20.6805 25.9331 20.4506C25.9331 20.4272 25.9099 20.4038 25.9099 20.4038C25.6155 20.7194 25.2785 20.9688 24.9182 21.1519C24.5747 21.3331 24.2067 21.36 23.8423 21.3866C23.7054 21.3966 23.569 21.4065 23.4347 21.4246C23.4579 21.3778 23.5044 21.3779 23.547 21.3779C23.547 21.3225 23.5735 21.2987 23.6075 21.2682C23.6166 21.26 23.6263 21.2514 23.6361 21.2415H23.702C23.7136 21.2415 23.7194 21.2298 23.7252 21.2181C23.731 21.2064 23.7368 21.1947 23.7484 21.1947C23.7949 21.1947 23.8608 21.1714 23.8375 21.1714C23.802 21.1257 23.7504 21.1438 23.6934 21.1637C23.6386 21.1829 23.5789 21.2038 23.5238 21.1714C23.5443 21.1489 23.5504 21.1219 23.556 21.0974C23.5621 21.0708 23.5675 21.0471 23.5896 21.035H23.6787C23.6787 20.9882 23.7252 20.9454 23.7252 20.9454C23.9272 20.8239 24.1223 20.7179 24.3137 20.6138C24.4416 20.5443 24.568 20.4756 24.6936 20.4038C24.6682 20.4038 24.6456 20.4143 24.6238 20.4244C24.589 20.4406 24.5558 20.4559 24.5154 20.4272C24.5386 20.4272 24.5386 20.4107 24.5386 20.3941C24.5386 20.3775 24.5386 20.361 24.5619 20.361C24.7072 20.3222 24.8365 20.2592 24.9686 20.195C25.0619 20.1496 25.1565 20.1036 25.2591 20.0649C25.2287 20.0649 25.2005 20.0731 25.173 20.0811C25.1201 20.0964 25.0699 20.111 25.0112 20.0649C25.0266 20.0571 25.039 20.0473 25.0513 20.0375C25.076 20.0178 25.1002 19.9986 25.1468 19.9986V19.9324C25.1468 19.909 25.17 19.909 25.1933 19.909C25.17 19.909 25.1468 19.8857 25.1468 19.8857C25.1591 19.8609 25.1833 19.8558 25.2103 19.8501C25.2343 19.8451 25.2605 19.8396 25.2824 19.8194C25.2591 19.8194 25.2165 19.8194 25.2165 19.796C25.2824 19.7064 25.3947 19.6831 25.507 19.6597C25.4954 19.6363 25.4731 19.6363 25.4538 19.6363C25.4344 19.6363 25.4179 19.6363 25.4179 19.6129C25.4179 19.5896 25.4412 19.5896 25.4644 19.5896H25.4179C25.3815 19.5712 25.3879 19.5385 25.3924 19.5158C25.3936 19.5096 25.3947 19.5041 25.3947 19.4999C25.4857 19.3927 25.5156 19.2662 25.5454 19.1404C25.5599 19.0788 25.5745 19.0173 25.5961 18.9584C25.5729 18.9584 25.5496 18.9584 25.5496 18.935C25.3318 19.1767 24.9866 19.2683 24.6587 19.3554L24.6277 19.3636H24.5154C24.4031 19.4103 24.2443 19.4103 24.1319 19.3402C24.0785 19.3122 24.0404 19.2771 23.9993 19.2393C23.9718 19.214 23.9429 19.1875 23.9073 19.161C23.7252 19.048 23.547 18.9584 23.3456 18.8883C22.7839 18.709 22.199 18.6155 21.6141 18.6389C21.7775 18.5491 21.9509 18.5133 22.1266 18.4771C22.2176 18.4584 22.3093 18.4395 22.4004 18.4129C22.458 18.396 22.515 18.3785 22.5716 18.3611C22.8929 18.2626 23.2046 18.1671 23.547 18.187C23.5022 18.1711 23.4448 18.1768 23.392 18.1821C23.3672 18.1846 23.3434 18.187 23.3224 18.187C23.0634 18.1677 22.8019 18.2253 22.529 18.2855C22.4712 18.2982 22.4129 18.3111 22.354 18.3233C22.2471 18.3456 22.1455 18.3775 22.0437 18.4095C21.9315 18.4448 21.8191 18.4801 21.6993 18.5025C21.6474 18.5205 21.6056 18.551 21.565 18.5807C21.4996 18.6285 21.437 18.6743 21.3391 18.6623V18.5922C21.5638 18.3194 21.8349 18.0506 22.1952 18.0272C22.5434 17.9705 22.8717 18.0109 23.2142 18.053C23.2718 18.0601 23.3297 18.0673 23.3882 18.074C23.669 18.0966 23.9317 18.1592 24.2148 18.2267L24.2443 18.2337C24.3062 18.2337 24.3411 18.2883 24.3748 18.3411C24.4023 18.384 24.429 18.4258 24.4689 18.4363C24.5241 18.4553 24.5792 18.4589 24.6344 18.4624C24.7148 18.4676 24.7952 18.4728 24.8756 18.5259C24.8756 18.5102 24.873 18.4949 24.8704 18.4798C24.8653 18.4499 24.8602 18.4206 24.8756 18.3896C24.9256 18.3393 24.9829 18.3528 25.0393 18.3661C25.0834 18.3764 25.127 18.3867 25.1662 18.3662C25.289 18.29 25.1738 18.1729 25.0585 18.0558C25.0029 17.9993 24.9472 17.9428 24.9182 17.8909C24.9182 17.8675 24.9415 17.8441 24.9415 17.8441C24.9924 17.8897 25.0398 17.9369 25.0867 17.9837C25.2043 18.1008 25.3194 18.2153 25.4799 18.2961C25.5922 18.3428 25.8634 18.409 25.8169 18.2727C25.7373 18.0961 25.6014 17.9429 25.4642 17.7883C25.4077 17.7246 25.351 17.6607 25.2979 17.5948V17.5052C25.2625 17.5052 25.2541 17.4917 25.2435 17.4749C25.2402 17.4696 25.2367 17.464 25.232 17.4584V17.3688C25.1752 17.339 25.1625 17.2918 25.1497 17.2443C25.1424 17.2173 25.1351 17.1902 25.1197 17.1662C25.0808 17.1033 25.0781 17.0259 25.0752 16.946C25.0729 16.8825 25.0705 16.8175 25.0499 16.7571C25.0035 16.6207 24.9841 16.5078 24.9609 16.3714C24.9356 16.2319 24.9079 16.0985 24.8807 15.9679C24.8328 15.7374 24.7866 15.5157 24.7594 15.2844C24.7236 14.9538 24.8905 14.6743 25.0612 14.3885C25.1118 14.3037 25.1627 14.2185 25.2088 14.1312C25.3676 13.8584 25.5458 13.5896 25.8401 13.4065C25.9044 13.1405 26.0791 12.919 26.253 12.6985L26.2662 12.6818C26.4379 12.4679 26.7245 12.3371 26.9357 12.2408L26.9596 12.2299C27.2734 12.0896 27.5561 12 27.56 12H12V23.996H23.0396C23.3348 23.782 23.6283 23.6469 23.9775 23.4862C24.1369 23.4129 24.3079 23.3342 24.496 23.2402C24.5359 23.2201 24.5832 23.1968 24.6357 23.171C24.951 23.0159 25.4534 22.7687 25.6426 22.5817ZM22.1396 20.9633C22.0958 20.9677 22.0494 20.9723 22.0669 20.9372C22.0832 20.8583 22.1639 20.8347 22.2428 20.8116C22.2765 20.8017 22.31 20.7919 22.3378 20.7779L22.3505 20.7714L22.3598 20.7664C22.4035 20.7432 22.457 20.7148 22.4965 20.7313C22.5231 20.7692 22.5561 20.779 22.5881 20.7884C22.612 20.7955 22.6353 20.8024 22.6551 20.8207C22.5714 20.9047 22.4737 20.913 22.3747 20.9214C22.3089 20.9269 22.2425 20.9326 22.1791 20.9605C22.1678 20.9605 22.1538 20.9619 22.1396 20.9633ZM18.7126 20.4154C18.7126 20.4388 18.7359 20.4622 18.7359 20.4622C19.2782 19.8505 19.7701 19.3284 20.4673 18.8959C20.486 18.8881 20.4791 18.8979 20.4698 18.9109C20.4561 18.9302 20.4373 18.9567 20.4906 18.9427C20.7214 18.8901 20.8251 18.6923 20.9259 18.5C20.952 18.4502 20.9779 18.4008 21.0058 18.3544C21.1115 18.1823 21.2618 18.0721 21.4132 17.9611C21.5223 17.881 21.6321 17.8004 21.7262 17.696C21.7262 17.7193 21.7262 17.7427 21.703 17.7661C21.7262 17.7895 21.7495 17.7895 21.7727 17.7895C21.8136 17.7586 21.8582 17.7459 21.901 17.7336C21.9555 17.718 22.007 17.7033 22.0439 17.6531C21.8657 17.583 21.6372 17.5596 21.459 17.6297C20.9864 17.8557 20.5836 18.218 20.2001 18.6271C19.9677 18.8726 19.7275 19.1024 19.4331 19.2622C19.2317 19.6674 19.007 20.0297 18.7126 20.4154ZM20.6037 18.9664C20.5916 18.9908 20.5794 19.0035 20.5678 19.0156C20.5573 19.0266 20.5471 19.0372 20.5379 19.0557C20.5147 19.1023 20.4915 19.1217 20.4489 19.145C20.4257 19.145 20.4025 19.145 20.4025 19.1217C20.4257 19.0324 20.4915 18.9431 20.5805 18.9198C20.6037 18.9237 20.6037 18.947 20.6037 18.9664ZM21.5942 22.4264C21.6136 22.4069 21.6368 22.3835 21.6484 22.3601C21.6677 22.3134 21.5478 22.3251 21.5284 22.3368C21.5109 22.3509 21.4997 22.365 21.4862 22.3821L21.482 22.3874C21.4659 22.406 21.447 22.4232 21.4278 22.4406C21.4148 22.4525 21.4016 22.4644 21.3891 22.477C21.3349 22.5316 21.2808 22.5861 21.2227 22.6368C21.184 22.6718 21.3078 22.6874 21.3349 22.664C21.3659 22.6407 21.393 22.6134 21.4201 22.5861C21.4304 22.5861 21.4407 22.5844 21.4476 22.5832L21.4523 22.5825L21.4549 22.5822C21.5191 22.5607 21.5668 22.516 21.6132 22.4726L21.6252 22.4614C21.6407 22.4459 21.6213 22.4303 21.5942 22.4264ZM21.244 22.173C21.2436 22.1731 21.2433 22.1732 21.243 22.1734C21.2426 22.1739 21.2426 22.1749 21.2426 22.1768C21.2188 22.1931 21.1953 22.2097 21.1719 22.2263C21.1114 22.2691 21.0512 22.3117 20.9869 22.3483C20.9255 22.3829 20.8625 22.4128 20.7989 22.4429C20.7623 22.4603 20.7255 22.4778 20.6886 22.4963C20.6886 22.4963 20.6886 22.4924 20.6848 22.4924C20.677 22.4807 20.6615 22.4768 20.646 22.4846C20.5608 22.5314 20.4872 22.5937 20.4214 22.6599C20.4097 22.6677 20.3981 22.6794 20.3904 22.6911L20.3555 22.7262V22.7301C20.34 22.7457 20.3245 22.7612 20.3052 22.7846C20.3011 22.7887 20.298 22.7927 20.2951 22.7966C20.2895 22.8039 20.2843 22.8107 20.2742 22.8158C20.2587 22.8236 20.2199 22.8236 20.2238 22.8002V22.7963C20.2122 22.8041 20.1967 22.8119 20.1851 22.8158C20.1793 22.8197 20.1735 22.8226 20.1677 22.8255C20.1618 22.8284 20.156 22.8314 20.1502 22.8353C20.1463 22.8314 20.1386 22.8314 20.1347 22.8314C20.1309 22.8314 20.1231 22.8314 20.1192 22.8353C20.1102 22.8431 20.1012 22.8504 20.0921 22.8578C20.074 22.8725 20.056 22.8872 20.0379 22.9054C19.9914 22.9483 19.9488 22.995 19.9062 23.0457C19.9062 23.0457 19.9062 23.0495 19.9023 23.0495C19.9023 23.0515 19.9013 23.0525 19.9004 23.0534C19.8994 23.0544 19.8984 23.0554 19.8984 23.0573L19.8907 23.0651C19.8892 23.0666 19.8883 23.0681 19.8875 23.0694C19.8863 23.0714 19.8853 23.0729 19.8829 23.0729L19.8791 23.0768C19.8752 23.0846 19.8713 23.0924 19.8636 23.1002C19.8597 23.1041 19.852 23.108 19.8442 23.108C19.8403 23.1041 19.8365 23.1002 19.8365 23.0963C19.8345 23.0944 19.8336 23.0924 19.8326 23.0905C19.8316 23.0885 19.8307 23.0866 19.8287 23.0846C19.8248 23.0788 19.8219 23.0729 19.819 23.0671C19.8161 23.0612 19.8132 23.0554 19.8094 23.0495V23.0457C19.8094 23.0437 19.8084 23.0418 19.8074 23.0398C19.8064 23.0379 19.8055 23.0359 19.8055 23.034L19.8752 22.9521L19.8791 22.9483C19.8829 22.9444 19.8868 22.9395 19.8907 22.9346C19.8946 22.9298 19.8984 22.9249 19.9023 22.921C19.9081 22.9132 19.9149 22.9054 19.9217 22.8976C19.9285 22.8898 19.9352 22.882 19.9411 22.8742C19.943 22.8703 19.9449 22.8674 19.9469 22.8645C19.9488 22.8616 19.9507 22.8586 19.9527 22.8547C19.9759 22.8236 19.9992 22.7924 20.0224 22.7573V22.7534C20.0263 22.7496 20.0301 22.7457 20.0301 22.7379C20.0418 22.7223 20.0534 22.7067 20.0611 22.6911L20.0844 22.6444V22.6405L20.0882 22.6366C20.0882 22.6346 20.0892 22.6336 20.0902 22.6327C20.0912 22.6317 20.0921 22.6307 20.0921 22.6288C20.096 22.619 20.0999 22.6103 20.1037 22.6015C20.1076 22.5928 20.1115 22.584 20.1154 22.5742V22.5703L20.1192 22.5547C20.1212 22.5509 20.1221 22.547 20.1231 22.5431C20.1241 22.5392 20.125 22.5353 20.127 22.5314V22.5275C20.1289 22.5216 20.1299 22.5158 20.1309 22.5099C20.1318 22.5041 20.1328 22.4983 20.1347 22.4924C20.1347 22.4885 20.1347 22.4807 20.1309 22.4768C20.1541 22.434 20.1851 22.395 20.2199 22.356C20.218 22.356 20.2161 22.357 20.2141 22.358C20.213 22.3586 20.2119 22.3591 20.2108 22.3595C20.21 22.3598 20.2092 22.3599 20.2083 22.3599C20.1911 22.3708 20.1762 22.3852 20.1611 22.4C20.1491 22.4117 20.1369 22.4236 20.1231 22.434C20.0999 22.4535 20.0534 22.4223 20.0844 22.3989C20.1037 22.3833 20.1192 22.3677 20.1347 22.3522C20.1347 22.3522 20.1347 22.3483 20.1386 22.3483C20.154 22.3343 20.1689 22.3184 20.1838 22.3025C20.2064 22.2784 20.2292 22.254 20.2548 22.2353C20.2819 22.2158 20.3013 22.2002 20.3245 22.1807C20.3284 22.1768 20.3323 22.1729 20.3362 22.1729C20.3516 22.1535 20.3671 22.134 20.3865 22.1145C20.3865 22.1145 20.3904 22.1145 20.3904 22.1106C20.5234 21.9816 20.7103 21.9361 20.9011 21.8896C21.0214 21.8603 21.1433 21.8307 21.2542 21.7794C21.3168 21.7534 21.3866 21.7636 21.4556 21.7738C21.5104 21.7818 21.5647 21.7898 21.6144 21.7794C21.6803 21.7794 21.75 21.7794 21.8158 21.8262C21.6627 21.9077 21.5165 22.001 21.3719 22.0933C21.33 22.12 21.2882 22.1467 21.2464 22.1729C21.2454 22.1729 21.2446 22.1729 21.244 22.173ZM21.7281 20.5851C21.7099 20.5872 21.6982 20.5885 21.7082 20.5986C21.7741 20.6649 21.9097 20.6415 22.0026 20.5909C22.0685 20.5441 22.1382 20.5441 22.2273 20.5441C22.2505 20.5441 22.2505 20.5012 22.2505 20.4779C22.3164 20.5012 22.3629 20.5012 22.4287 20.5012C22.9671 20.3883 23.4862 20.2753 23.982 20.0259C23.4803 19.6383 22.8618 19.4656 22.256 19.2965C22.1555 19.2684 22.0554 19.2405 21.9561 19.2116C21.978 19.2116 21.9998 19.2189 22.0217 19.2262C22.066 19.241 22.1109 19.2559 22.1576 19.2116C22.0961 19.1626 22.0277 19.1532 21.9599 19.144C21.9038 19.1363 21.8482 19.1286 21.7973 19.0987C21.8026 19.0987 21.809 19.0999 21.8158 19.1012C21.839 19.1057 21.8685 19.1114 21.8864 19.0753C21.7688 19.0161 21.6511 18.996 21.5323 18.9757C21.4712 18.9653 21.4098 18.9548 21.348 18.9389C21.4603 18.9155 21.5301 18.8259 21.5301 18.7129C21.5301 18.6896 21.4836 18.6896 21.4603 18.6896C21.1931 18.8259 21.011 19.0753 20.8987 19.3675C20.9999 19.4271 21.1091 19.4202 21.2161 19.4134C21.2769 19.4096 21.3369 19.4058 21.3945 19.4142C21.3437 19.4625 21.2703 19.4756 21.1997 19.4882C21.1734 19.4929 21.1475 19.4975 21.1233 19.5038C21.0536 19.5194 20.9878 19.5701 21.011 19.6168C21.0265 19.6363 21.042 19.6441 21.0614 19.648C21.011 19.6636 20.9645 19.687 20.9219 19.7298C20.9857 19.78 21.0514 19.7703 21.1163 19.7608C21.1421 19.757 21.1677 19.7532 21.1931 19.7532C21.1931 19.7815 21.2116 19.7911 21.2309 19.8011C21.2409 19.8062 21.251 19.8115 21.2589 19.8194C21.1466 19.8623 21.0575 19.9558 21.0342 20.022C21.0065 20.0895 20.9552 20.1334 20.9044 20.1768C20.8701 20.2062 20.8361 20.2353 20.8096 20.2714V20.3415C20.7348 20.4078 20.6578 20.4671 20.582 20.5255C20.4262 20.6455 20.2748 20.7621 20.155 20.9298C20.1782 20.9298 20.1782 20.9532 20.1782 20.9766C20.1568 21.0089 20.1263 21.0313 20.0974 21.0525C20.0636 21.0774 20.0319 21.1006 20.0194 21.1363C20.0194 21.1597 20.0194 21.1831 20.0426 21.1831C20.1848 21.1361 20.3077 21.057 20.4283 20.9794C20.5377 20.9091 20.6452 20.84 20.7631 20.7973C20.8595 20.7742 20.9434 20.7305 21.0253 20.6878C21.0948 20.6516 21.1628 20.6162 21.2357 20.5947C21.2918 20.5831 21.3538 20.5665 21.4158 20.5499C21.4778 20.5334 21.5397 20.5168 21.5959 20.5051C21.5959 20.5285 21.5959 20.5519 21.6192 20.5519H21.7973C21.7864 20.5784 21.7518 20.5824 21.7281 20.5851Z" fill="#000091"/>
<path d="M45.0002 12H32.0968C32.0968 12 32.1202 12.0039 32.2177 12.0546C32.323 12.1092 32.4595 12.1834 32.5415 12.2263C32.7092 12.3121 32.8691 12.4213 32.9744 12.5891C33.0212 12.6554 33.0876 12.7919 33.0446 12.8817C32.9978 12.9948 32.9744 13.1782 32.8613 13.2211C32.7248 13.2913 32.5454 13.2913 32.3854 13.2679C32.2957 13.2679 32.206 13.2445 32.1124 13.2211C32.4517 13.3576 32.7716 13.5176 32.9978 13.8336C33.0212 13.8804 33.111 13.8999 33.2007 13.8999C33.2241 13.8999 33.2241 13.9467 33.2241 13.9662C33.1773 14.013 33.1344 14.0364 33.1578 14.1027H33.2241C33.3372 14.0559 33.3138 13.8296 33.4737 13.8999C33.5868 13.9662 33.6336 14.1261 33.5634 14.2393C33.4737 14.329 33.384 14.3992 33.2904 14.4655C33.267 14.5124 33.267 14.5787 33.2904 14.6255C33.3567 14.7152 33.3801 14.8049 33.4035 14.8986C33.4737 15.0585 33.4932 15.238 33.5634 15.3979C33.6532 15.7373 33.7429 16.0767 33.7234 16.42C33.7234 16.5995 33.6336 16.7594 33.7 16.9428C33.7468 17.1222 33.8599 17.2588 33.9496 17.4187C34.0393 17.5553 34.129 17.645 34.1992 17.7815C34.3358 18.0078 34.5854 18.2341 34.4723 18.5072C34.406 18.6671 34.1563 18.6437 33.9964 18.7334C33.8599 18.8466 33.973 19.0299 34.0432 19.143C34.1563 19.3459 33.9067 19.4824 33.7468 19.5527C33.7936 19.6229 33.8833 19.5995 33.9067 19.6424C33.9301 19.7555 34.0432 19.8218 33.973 19.9389C33.8833 20.0754 33.6102 20.1417 33.7468 20.3485C33.8365 20.5085 33.778 20.684 33.7234 20.8479C33.6571 21.0507 33.4737 21.1404 33.3138 21.1873C33.1773 21.2341 33.0173 21.2341 32.8847 21.2107C32.8379 21.1873 32.795 21.1638 32.7482 21.1638C32.362 21.117 31.9759 21.0078 31.5936 21.0078C31.4805 21.0312 31.3674 21.0507 31.2776 21.0975C31.1762 21.1717 31.0826 21.2536 31.0046 21.3394C31.0046 21.3394 31.0046 21.3394 31.0007 21.3433C30.9851 21.3628 30.9656 21.3784 30.95 21.3979C30.9422 21.4096 30.9305 21.4213 30.9227 21.433C30.9149 21.4408 30.911 21.4486 30.9032 21.4564C30.8369 21.5384 30.7784 21.6281 30.7238 21.7178C30.7199 21.7256 30.716 21.7295 30.7121 21.7334C30.7082 21.7451 30.7004 21.7529 30.6925 21.7646C30.6184 21.9012 30.5638 22.0416 30.5209 22.1821C30.3649 22.7009 30.4351 23.1456 30.5443 23.2549C30.5755 23.2861 31.2933 23.5085 31.7925 23.7308C32.0266 23.8362 32.1904 23.9142 32.3269 24H44.9963V12H45.0002Z" fill="#E1000F"/>
<path d="M32.8631 16.3748C32.9526 16.3981 33.0888 16.3981 33.0888 16.4449C33.0421 16.6241 32.7736 16.6709 32.6375 16.854H32.5674C32.5013 16.9007 32.5208 17.0137 32.4546 17.0137C32.3885 16.9903 32.3185 17.0137 32.2523 17.0371C32.3418 17.1267 32.4546 17.1968 32.5908 17.1735C32.6141 17.1735 32.6569 17.2202 32.6569 17.2631C32.6569 17.2631 32.6803 17.2631 32.7036 17.2397C32.727 17.2397 32.7503 17.2397 32.7503 17.2631V17.3527C32.6842 17.4423 32.5674 17.3994 32.478 17.4189C32.6608 17.4657 32.8398 17.4657 32.9993 17.4189C33.1355 17.3722 32.9993 17.1462 33.0888 17.0332C33.0421 17.0332 33.0888 16.9631 33.0421 16.9631C33.0888 16.9163 33.1316 16.8501 33.1782 16.8267C33.2249 16.8267 33.2911 16.8033 33.3144 16.7566C33.3144 16.7098 33.2249 16.6903 33.2444 16.6436C33.3806 16.554 33.4934 16.4176 33.4467 16.2813C33.4233 16.2111 33.2444 16.2111 33.1316 16.1683C33.0187 16.1254 32.8826 16.1683 32.7464 16.1917C32.6336 16.1917 32.5208 16.2618 32.4079 16.2813C32.2484 16.328 32.1123 16.4176 31.98 16.5072C32.1395 16.441 32.2951 16.4176 32.478 16.3709C32.6141 16.3748 32.727 16.3436 32.8631 16.3748" fill="#808080"/>
<path d="M13.236 39V30.6H15.804C17.652 30.6 18.792 31.548 18.792 33.108C18.792 34.128 18.3 34.884 17.436 35.28L20.064 39H18.06L15.816 35.604H14.94V39H13.236ZM15.9 32.016H14.94V34.188H15.9C16.62 34.188 17.04 33.768 17.04 33.084C17.04 32.448 16.62 32.016 15.9 32.016ZM24.5273 29.88H22.9793L24.3353 28.26H26.0873L24.5273 29.88ZM21.3233 39V30.6H26.2193V32.016H23.0273V34.008H25.7393V35.424H23.0273V37.584H26.2193V39H21.3233ZM28.3794 39V30.6H31.1514C32.9994 30.6 34.1274 31.548 34.1274 33.108C34.1274 34.656 32.9994 35.604 31.1514 35.604H30.0834V39H28.3794ZM31.2234 32.016H30.0834V34.188H31.2234C31.9434 34.188 32.3754 33.768 32.3754 33.084C32.3754 32.448 31.9434 32.016 31.2234 32.016ZM40.6705 35.856V30.6H42.3745V35.712C42.3745 37.92 41.0785 39.24 38.9665 39.24C36.8665 39.24 35.5705 37.92 35.5705 35.712V30.6H37.2745V35.856C37.2745 36.984 37.9105 37.644 38.9785 37.644C40.0225 37.644 40.6705 36.984 40.6705 35.856ZM44.6713 39V30.6H47.1433C48.8953 30.6 49.9633 31.464 49.9633 32.88C49.9633 33.564 49.6513 34.152 49.0633 34.536C49.9513 34.932 50.4433 35.652 50.4433 36.528C50.4433 38.064 49.2553 39 47.3233 39H44.6713ZM47.1793 32.016H46.3753V33.912H47.1793C47.8273 33.912 48.2113 33.564 48.2113 32.952C48.2113 32.364 47.8273 32.016 47.1793 32.016ZM47.4193 35.328H46.3753V37.584H47.4193C48.2113 37.584 48.6913 37.164 48.6913 36.456C48.6913 35.736 48.2113 35.328 47.4193 35.328ZM52.3719 39V30.6H54.0759V37.452H57.2679V39H52.3719ZM58.9476 39V30.6H60.6516V39H58.9476ZM70.2234 38.784C70.8714 39.372 71.4474 39.588 71.9874 39.588C72.1674 39.588 72.4074 39.564 72.5874 39.492V40.932C72.3114 41.04 72.0714 41.088 71.6994 41.088C70.7634 41.088 69.8994 40.704 69.0714 39.984L68.0754 39.096C67.7154 39.192 67.3314 39.24 66.9234 39.24C64.2714 39.24 62.4594 37.2 62.4594 34.8C62.4594 32.4 64.2714 30.36 66.9234 30.36C69.5634 30.36 71.3754 32.4 71.3754 34.8C71.3754 36.204 70.7514 37.488 69.7194 38.304L70.2234 38.784ZM66.9234 37.644C68.4954 37.644 69.6234 36.408 69.6234 34.8C69.6234 33.192 68.4954 31.956 66.9234 31.956C65.3394 31.956 64.2114 33.192 64.2114 34.8C64.2114 36.408 65.3394 37.644 66.9234 37.644ZM78.1424 35.856V30.6H79.8464V35.712C79.8464 37.92 78.5504 39.24 76.4384 39.24C74.3384 39.24 73.0424 37.92 73.0424 35.712V30.6H74.7464V35.856C74.7464 36.984 75.3824 37.644 76.4504 37.644C77.4944 37.644 78.1424 36.984 78.1424 35.856ZM82.1432 39V30.6H87.0392V32.016H83.8472V34.008H86.5592V35.424H83.8472V37.584H87.0392V39H82.1432ZM13.236 51V42.6H18.132V44.016H14.94V46.008H17.652V47.424H14.94V51H13.236ZM19.8116 51V42.6H22.3796C24.2276 42.6 25.3676 43.548 25.3676 45.108C25.3676 46.128 24.8756 46.884 24.0116 47.28L26.6396 51H24.6356L22.3916 47.604H21.5156V51H19.8116ZM22.4756 44.016H21.5156V46.188H22.4756C23.1956 46.188 23.6156 45.768 23.6156 45.084C23.6156 44.448 23.1956 44.016 22.4756 44.016ZM27.2062 51L30.3862 42.6H32.6183L35.7982 51H33.9863L33.1823 48.816H29.8223L29.0182 51H27.2062ZM30.3503 47.364H32.6543L31.5023 44.208L30.3503 47.364ZM37.2754 51V42.6H39.4594L43.2154 48.672V42.6H44.9194V51H42.7354L38.9794 44.928V51H37.2754ZM51.1927 49.644C52.1527 49.644 52.9087 49.176 53.3887 48.492L54.7327 49.524C54.0847 50.412 53.0767 51.036 51.8527 51.192L50.8087 52.932H49.2967L50.3527 51.168C48.1687 50.784 46.7287 48.936 46.7287 46.8C46.7287 44.4 48.5407 42.36 51.1927 42.36C52.7167 42.36 53.9647 43.044 54.7327 44.064L53.3887 45.108C52.9087 44.424 52.1527 43.956 51.1927 43.956C49.6087 43.956 48.4807 45.192 48.4807 46.8C48.4807 48.408 49.6087 49.644 51.1927 49.644ZM55.2769 51L58.4569 42.6H60.6889L63.8689 51H62.0569L61.2529 48.816H57.8929L57.0889 51H55.2769ZM58.4209 47.364H60.7249L59.5729 44.208L58.4209 47.364ZM65.346 51V42.6H67.05V51H65.346ZM68.8219 49.836L70.0579 48.696C70.5619 49.344 71.2339 49.728 71.9179 49.728C72.5899 49.728 72.9979 49.368 72.9979 48.768C72.9979 47.22 69.1819 47.64 69.1819 44.796C69.1819 43.464 70.2859 42.36 71.8939 42.36C73.1539 42.36 74.1139 42.924 74.8339 43.776L73.5859 44.904C73.0939 44.268 72.5419 43.848 71.9059 43.848C71.3059 43.848 70.9099 44.232 70.9099 44.736C70.9099 46.26 74.7259 45.828 74.7259 48.708C74.7019 50.292 73.4779 51.24 71.9299 51.24C70.5139 51.24 69.5659 50.724 68.8219 49.836ZM76.6926 51V42.6H81.5886V44.016H78.3966V46.008H81.1086V47.424H78.3966V49.584H81.5886V51H76.6926Z" fill="#161616"/>
<path fill-rule="evenodd" clip-rule="evenodd" d="M43.18 72.614L42.0638 73.6339H41.7758L42.4359 72.47H43.18V72.614ZM42.3759 76.5614H42.1359C41.8358 76.9214 41.4998 77.2093 41.1757 77.2093C40.8397 77.2093 40.6717 77.0054 40.6717 76.5614C40.6717 76.3814 40.6957 76.1894 40.7317 76.0214L42.688 75.3735C43.072 74.4615 42.6159 74.0655 42.0759 74.0655C41.1517 74.0655 40.0956 75.6854 40.0956 76.9814C40.0956 77.5933 40.3836 77.9293 40.8397 77.9293C41.3678 77.9173 41.9198 77.4013 42.3759 76.5614ZM41.7046 74.5938C41.9686 74.5938 42.1966 74.7978 42.0766 75.2658L40.8644 75.5898C41.0565 75.0138 41.4165 74.5938 41.7046 74.5938ZM37.8886 74.6175H38.5367L37.5045 77.4494C37.4085 77.6893 37.5405 77.9293 37.7925 77.9293C38.5247 77.9293 39.4008 77.3054 39.7368 76.4174H39.5568C39.2928 76.7894 38.7167 77.1974 38.2846 77.2694L39.2328 74.6175H40.2049L40.3249 74.2095H39.3768L39.7368 73.1896H39.3648L38.6927 74.2095L37.8886 74.3175V74.6175ZM36.9878 74.0782C37.1198 74.0782 37.2998 74.2222 37.2158 74.4862L36.0516 77.306C36.3517 77.258 36.6637 76.9701 36.8438 76.7061H37.0358C36.7597 77.414 36.1356 77.93 35.5956 77.93C35.4636 77.93 35.2715 77.786 35.3675 77.522L36.4477 74.7022C36.1477 74.7502 35.8356 75.0382 35.6556 75.3022H35.4756C35.7516 74.5822 36.4237 74.0782 36.9878 74.0782ZM37.3246 73.3579C37.5647 73.3579 37.7687 73.166 37.7687 72.914C37.7687 72.674 37.5647 72.47 37.3246 72.47C37.0726 72.47 36.8806 72.674 36.8806 72.914C36.8806 73.154 37.0846 73.3579 37.3246 73.3579ZM32.0797 75.6981C32.3437 75.1222 32.2477 74.8582 32.0797 74.8582C31.9357 74.8582 31.7676 75.0142 31.5996 75.3022H31.4196C31.6956 74.6902 32.0557 74.0782 32.4517 74.0782C32.7878 74.0782 32.9078 74.4142 32.9078 74.7862V75.3142C32.9618 75.2513 33.0144 75.1896 33.0658 75.1294L33.0667 75.1282L33.0675 75.1274C33.5745 74.5324 33.9617 74.0782 34.408 74.0782C34.7561 74.0782 34.9361 74.2942 34.9361 74.6182C34.9361 74.8102 34.8761 75.0502 34.7441 75.3022L33.7479 77.306C34.048 77.258 34.36 76.9701 34.54 76.7061H34.7201C34.444 77.426 33.7719 77.93 33.2079 77.93C32.9558 77.93 32.8118 77.666 32.9198 77.45L34.072 75.2302C34.204 74.9782 34.228 74.8102 34.024 74.8102C33.7479 74.8102 33.0998 75.2662 32.7518 75.6861L31.9957 77.678C31.9117 77.882 31.8277 77.93 31.6356 77.93C31.3236 77.93 31.1676 77.726 31.3116 77.402L32.0797 75.6981ZM31.2987 74.9295C31.4307 74.4735 31.3587 74.0655 31.0106 74.0655C30.5766 74.0655 30.4407 74.3521 30.02 75.2392L29.9905 75.3015V74.7735C29.9905 74.4015 29.8705 74.0655 29.5344 74.0655C29.1384 74.0655 28.7783 74.6775 28.5023 75.2895H28.6823C28.8743 75.0135 29.0544 74.8455 29.1984 74.8455C29.3664 74.8455 29.4624 75.1095 29.1984 75.6854L28.4303 77.3893C28.2863 77.7133 28.4423 77.9173 28.7543 77.9173C28.9464 77.9173 29.0304 77.8693 29.1144 77.6653L29.8705 75.6734C30.0865 75.4095 30.2785 75.1815 30.5186 74.9295H31.2987ZM27.5064 75.2658C27.6264 74.7978 27.3984 74.5938 27.1344 74.5938C26.8463 74.5938 26.4863 75.0138 26.2942 75.5898L27.5064 75.2658ZM27.8057 76.5614H27.5657C27.2656 76.9214 26.9296 77.2093 26.6055 77.2093C26.2695 77.2093 26.1015 77.0054 26.1015 76.5614C26.1015 76.3814 26.1255 76.1894 26.1615 76.0214L28.1178 75.3735C28.5018 74.4615 28.0458 74.0655 27.5057 74.0655C26.5815 74.0655 25.5254 75.6854 25.5254 76.9814C25.5254 77.5933 25.8134 77.9293 26.2695 77.9293C26.7976 77.9173 27.3497 77.4013 27.8057 76.5614ZM23.9665 74.6175H23.3184V74.3175L24.1225 74.2095L24.7946 73.1896H25.1666L24.8066 74.2095H25.7547L25.6347 74.6175H24.6626L23.7144 77.2694C24.1465 77.1974 24.7226 76.7894 24.9866 76.4174H25.1666C24.8306 77.3054 23.9545 77.9293 23.2224 77.9293C22.9703 77.9293 22.8383 77.6893 22.9343 77.4494L23.9665 74.6175ZM19.8865 76.8137C19.8865 75.9377 20.8586 74.7618 21.3987 74.7618C21.5187 74.7618 21.6387 74.7738 21.7347 74.8098L21.1707 76.3217C20.8466 76.7177 20.3425 77.1976 20.1025 77.1976C19.9705 77.1976 19.8865 77.0776 19.8865 76.8137ZM22.5632 73.8859L22.8632 73.9099L21.8191 76.3097C21.567 76.8857 21.675 77.1497 21.8191 77.1497C21.9631 77.1497 22.1431 76.9817 22.3351 76.7057H22.5152C22.2391 77.3177 21.8791 77.9296 21.483 77.9296C21.147 77.9296 20.9429 77.5696 21.0029 76.9217L21.0269 76.6937L20.9616 76.785C20.5317 77.3859 20.1427 77.9296 19.7428 77.9296C19.3947 77.9296 19.2147 77.7136 19.2147 77.3896C19.2147 75.9977 20.7389 74.2218 22.1671 74.2218H22.2271L22.5632 73.8859ZM19.814 74.9295C19.946 74.4735 19.874 74.0655 19.526 74.0655C19.0919 74.0655 18.956 74.3521 18.5354 75.2392L18.5058 75.3015V74.7735C18.5058 74.4015 18.3858 74.0655 18.0498 74.0655C17.6537 74.0655 17.2937 74.6775 17.0176 75.2895H17.1976C17.3897 75.0135 17.5697 74.8455 17.7017 74.8455C17.8697 74.8455 17.9658 75.1095 17.7017 75.6854L16.9336 77.4013C16.7896 77.7253 16.9456 77.9293 17.2576 77.9293C17.4497 77.9293 17.5337 77.8813 17.6177 77.6773L18.3738 75.6854C18.5898 75.4215 18.7819 75.1935 19.0219 74.9415H19.814V74.9295ZM14.8684 77.5686L14.7964 77.7846H12L12.072 77.5566C12.9361 77.4006 13.0802 77.3286 13.4402 76.3567L14.2203 74.2688C14.5684 73.2968 14.4964 73.2248 13.7403 73.0689L13.8123 72.8529H17.4488L17.2328 74.0168H16.9687C16.9687 73.3208 16.8967 73.1409 16.2366 73.1409H16.0686C15.4205 73.1409 15.3365 73.2368 15.1565 73.7408L14.6404 75.1447H15.3965C15.9006 75.1447 16.0926 74.8328 16.3206 74.4248H16.5847L15.9606 76.1287H15.6965C15.7565 75.6127 15.7565 75.4087 15.2885 75.4087H14.5324L14.1843 76.3687C13.8081 77.3678 13.9156 77.3882 14.8115 77.5578C14.8301 77.5613 14.8491 77.5649 14.8684 77.5686Z" fill="black"/>
<path fill-rule="evenodd" clip-rule="evenodd" d="M17.2448 63.4341L16.1286 64.2385V64.2505H15.8405L16.5006 63.29H17.2448V63.4341ZM25.0472 69.0648L26.8355 64.3104L26.7755 64.2384L25.5393 64.3825V64.5265L25.7793 64.7066C25.9843 64.8661 25.93 65.0147 25.76 65.4805L25.7313 65.559L24.3631 69.2088C24.2551 69.4249 24.3991 69.6891 24.6511 69.6891C25.2152 69.6891 25.8153 69.1728 26.0914 68.4645H25.9114C25.7193 68.7286 25.3353 69.0167 25.0472 69.0648ZM33.2438 65.403L34.36 64.3825V64.2384H33.6159L32.9558 65.403H33.2438ZM33.315 68.3204H33.5551C33.111 69.1728 32.5589 69.6891 32.0308 69.6891C31.5747 69.6891 31.2867 69.3529 31.2867 68.7406C31.2867 67.444 32.3429 65.8232 33.267 65.8232C33.7951 65.8232 34.2632 66.2193 33.8791 67.1318L31.9108 67.7801C31.8748 67.9482 31.8508 68.1403 31.8508 68.3204C31.8508 68.7646 32.0188 68.9687 32.3549 68.9687C32.6789 68.9687 33.015 68.6806 33.315 68.3204ZM33.2544 67.0238C33.3745 66.5676 33.1464 66.3635 32.8824 66.3635C32.6063 66.3635 32.2463 66.7837 32.0422 67.3479L33.2544 67.0238ZM29.7258 66.3872H29.0777V66.087L29.8818 65.979L30.554 64.9585H30.926L30.566 65.979H31.5141L31.3941 66.3872H30.4219L29.4738 69.0405C29.9058 68.9684 30.4819 68.5602 30.746 68.1881H30.926C30.59 69.0765 29.7138 69.7008 28.9817 69.7008C28.7296 69.7008 28.5976 69.4607 28.6936 69.2206L29.7258 66.3872ZM28.4055 66.2431C28.4775 65.9789 28.3095 65.8349 28.1655 65.8349C27.6014 65.8349 26.9292 66.3511 26.6532 67.0595H26.8332C27.0133 66.7954 27.3253 66.5072 27.6254 66.4592L26.5452 69.2806C26.4492 69.5447 26.6412 69.6888 26.7732 69.6888C27.3133 69.6888 27.9374 69.1725 28.2135 68.4642H28.0334C27.8534 68.7283 27.5413 69.0164 27.2413 69.0645L28.4055 66.2431ZM28.9585 64.6826C28.9585 64.9227 28.7544 65.1268 28.5144 65.1268C28.2744 65.1268 28.0703 64.9227 28.0703 64.6826C28.0703 64.4425 28.2624 64.2384 28.5144 64.2384C28.7544 64.2384 28.9585 64.4425 28.9585 64.6826ZM22.8987 66.5315C22.3586 66.5315 21.3864 67.7081 21.3864 68.5845C21.3864 68.8487 21.4704 68.9687 21.6145 68.9687C21.8425 68.9687 22.3466 68.4885 22.6706 68.0923L23.2347 66.5795C23.1267 66.5435 23.0187 66.5315 22.8987 66.5315ZM24.3632 65.6791L24.0632 65.6551L23.7271 65.9913H23.6671C22.2389 65.9913 20.7146 67.7681 20.7146 69.1608C20.7146 69.485 20.8946 69.7011 21.2427 69.7011C21.6426 69.7011 22.0316 69.1571 22.4616 68.5558L22.5269 68.4645L22.5029 68.6926C22.4429 69.3409 22.6469 69.7011 22.983 69.7011C23.3791 69.7011 23.7391 69.0888 24.0152 68.4765H23.8351C23.6431 68.7526 23.4631 68.9207 23.3191 68.9207C23.175 68.9207 23.067 68.6566 23.3191 68.0803L24.3632 65.6791ZM18.3135 69.5691C17.7974 69.7732 17.4373 70.0134 17.4373 70.3855C17.4373 70.7337 17.7614 70.8778 18.4335 70.8778C19.3337 70.8778 19.8258 70.6137 19.8258 70.2655C19.8258 70.1094 19.6217 70.0374 19.0816 69.8573C18.7336 69.7492 18.4815 69.6532 18.3135 69.5691ZM18.9128 68.0924C18.6728 68.0924 18.5888 67.8883 18.5888 67.6721C18.5888 66.9758 18.9248 66.1114 19.4649 66.1114C19.705 66.1114 19.789 66.3155 19.789 66.5316C19.777 67.2399 19.4409 68.0924 18.9128 68.0924ZM19.3701 69.2208C20.0302 69.4249 20.4383 69.581 20.4383 70.0372C20.4383 70.6255 19.3581 71.3219 18.0499 71.3099C17.2937 71.3099 16.6456 71.1058 16.6456 70.6135C16.6456 70.1453 17.0777 69.7611 18.1339 69.4489C17.9899 69.3529 17.9299 69.2328 17.9299 69.0648C17.9299 68.7766 18.1939 68.5485 18.65 68.3324C18.2059 68.2724 17.9178 67.9362 17.9178 67.444C17.9178 66.6876 18.542 65.8232 19.5261 65.8232C19.7302 65.8232 19.9102 65.8712 20.0542 65.9672H21.1344L21.0144 66.3754H20.3783C20.4143 66.4835 20.4383 66.6035 20.4383 66.7356C20.4383 67.468 19.8502 68.3084 18.914 68.3564C18.674 68.4885 18.554 68.6686 18.554 68.8126C18.554 68.9822 18.7503 69.0395 19.1842 69.1662C19.2419 69.183 19.3039 69.2011 19.3701 69.2208ZM15.5646 67.1679C16.0327 67.1679 16.0447 67.372 15.9727 67.8883H16.2367L16.8609 66.1834H16.5968C16.3688 66.5916 16.1767 66.9038 15.6726 66.9038H14.6405L15.1446 65.4991C15.3246 64.9948 15.4086 64.8988 16.0567 64.8988H16.5128C17.1729 64.8988 17.2449 65.0789 17.2449 65.7752H17.509L17.725 64.6106H13.8123L13.7403 64.8267C14.4964 64.9828 14.5684 65.0549 14.2204 66.0273L13.4403 68.1284C13.0802 69.1009 12.9362 69.1729 12.06 69.329L12 69.5571H16.3448L17.1249 68.3205H16.8248C16.3208 68.8127 15.8167 69.2689 14.8325 69.2689C13.75 69.2689 13.7693 69.2159 14.0941 68.3234C14.115 68.266 14.1372 68.205 14.1604 68.1404L14.5204 67.1799H15.5646V67.1679Z" fill="black"/>
<path fill-rule="evenodd" clip-rule="evenodd" d="M19.1496 56.8876C19.3896 56.8876 19.5936 56.6837 19.5936 56.4438C19.5936 56.2039 19.3896 56 19.1496 56C18.8977 56 18.7057 56.2039 18.7057 56.4438C18.7057 56.6957 18.8977 56.8876 19.1496 56.8876ZM22.7022 58.3986C22.7022 57.8229 22.5583 57.607 22.1503 57.607C21.6464 57.607 21.1785 58.1467 20.7106 58.7944L21.7184 56.0956L21.6584 56.0117L20.4227 56.1556V56.2996L20.6626 56.4795C20.8716 56.6419 20.811 56.8044 20.633 57.2818L20.6146 57.3311L19.5229 60.1858C19.4269 60.4257 19.3189 60.7136 19.3189 60.7856C19.3189 61.1214 19.7748 61.4453 20.1947 61.4453C21.1305 61.4573 22.7022 59.73 22.7022 58.3986ZM33.1042 57.1752L34.22 56.1556V56.0117H33.4761L32.8163 57.1752H33.1042ZM33.1765 60.0899H33.4164C32.9605 60.9415 32.4086 61.4573 31.8807 61.4453C31.4248 61.4453 31.1369 61.1214 31.1369 60.5097C31.1369 59.2143 32.1927 57.595 33.1165 57.595C33.6444 57.595 34.1123 57.9908 33.7284 58.9024L31.7727 59.5501C31.7368 59.7181 31.7128 59.91 31.7128 60.0899C31.7128 60.5337 31.8807 60.7376 32.2167 60.7376C32.5406 60.7376 32.8765 60.4497 33.1765 60.0899ZM33.1153 58.7945C33.2353 58.3387 33.0073 58.1348 32.7434 58.1348C32.4555 58.1348 32.0955 58.5546 31.9036 59.1184L33.1153 58.7945ZM29.5747 58.1595H28.9268V57.8596L29.7306 57.7516L30.4025 56.7321H30.7744L30.4145 57.7516H31.3623L31.2423 58.1595H30.2705L29.3227 60.8103C29.7546 60.7383 30.3305 60.3305 30.5945 59.9587H30.7744C30.4385 60.8463 29.5627 61.47 28.8308 61.47C28.5789 61.47 28.4469 61.2301 28.5429 60.9902L29.5747 58.1595ZM28.5931 58.4713C28.7251 58.0155 28.6531 57.6077 28.3052 57.6077C27.8713 57.6077 27.7354 57.8942 27.3149 58.7809L27.2854 58.8431V58.3154C27.2854 57.9435 27.1654 57.6077 26.8295 57.6077C26.4336 57.6077 26.0736 58.2194 25.7977 58.8311H25.9776C26.1696 58.5553 26.3496 58.3873 26.4815 58.3873C26.6495 58.3873 26.7455 58.6512 26.4815 59.227L25.7137 60.9302C25.5697 61.2541 25.7257 61.458 26.0376 61.458C26.2296 61.458 26.3136 61.41 26.3976 61.2061L27.1534 59.215C27.3694 58.9511 27.5613 58.7232 27.8013 58.4713H28.5931ZM24.7902 58.7945C24.9101 58.3387 24.6822 58.1348 24.4182 58.1348C24.1303 58.1348 23.7823 58.5546 23.5784 59.1184L24.7902 58.7945ZM25.0893 60.0899H24.8494C24.5495 60.4497 24.2135 60.7376 23.8896 60.7376C23.5536 60.7376 23.3857 60.5337 23.3857 60.0899C23.3857 59.91 23.4097 59.7181 23.4457 59.5501L25.4013 58.9024C25.7852 57.9908 25.3293 57.595 24.7894 57.595C23.8656 57.595 22.8098 59.2143 22.8098 60.5097C22.8098 61.1214 23.0977 61.4453 23.5536 61.4453C24.0815 61.4573 24.6334 60.9415 25.0893 60.0899ZM20.0512 60.5461C20.0512 60.702 20.3272 60.882 20.5191 60.882C21.299 60.882 22.0308 59.4786 22.0188 58.6989C22.0188 58.435 21.8869 58.3271 21.7069 58.3271C21.419 58.3271 20.8911 58.7589 20.5551 59.1667L20.2432 60.0064C20.1352 60.2822 20.0512 60.4981 20.0512 60.5461ZM18.7917 57.6077C18.9357 57.6077 19.1036 57.7516 19.0316 58.0155L17.8799 60.8343C18.1798 60.7863 18.4917 60.4984 18.6717 60.2345H18.8517C18.5757 60.9422 17.9518 61.458 17.4119 61.458C17.268 61.458 17.076 61.314 17.172 61.0502L18.2518 58.2314C17.9518 58.2794 17.6399 58.5673 17.4599 58.8311H17.28C17.5559 58.1235 18.2278 57.6077 18.7917 57.6077ZM13.8116 56.3602H16.3911L16.3192 56.5881C15.4433 56.744 15.2994 56.816 14.9394 57.7876L14.1716 59.8986C13.7997 60.9062 13.8956 61.0261 14.5555 61.0261C15.3708 61.0261 15.9053 60.4337 16.3721 59.9164C16.4068 59.878 16.4411 59.84 16.4751 59.8027H16.7751L15.9232 61.314H12L12.072 61.0981C12.9358 60.9422 13.0798 60.8702 13.4397 59.8986L14.2196 57.7756C14.5675 56.804 14.4955 56.732 13.7397 56.5761L13.8116 56.3602Z" fill="black"/>
</svg>
