<svg width="83" height="74" viewBox="0 0 83 74" fill="none" xmlns="http://www.w3.org/2000/svg">
<path d="M1.98915 21.4435V23.8634H3.0926C3.92194 23.8634 4.39987 23.419 4.39987 22.6288C4.39987 21.895 3.91491 21.4364 3.0926 21.4364H1.98915V21.4435ZM0.0352783 19.7714H2.98717C5.10973 19.7714 6.417 20.8649 6.417 22.664C6.417 23.8282 5.85473 24.696 4.87076 25.1687L7.907 29.4583H5.56657L3.00123 25.5426H1.99618V29.4583H0.0423068V19.7714H0.0352783Z" fill="black"/>
<path d="M11.0204 18.9387L12.5807 17.0691H14.5908L12.7986 18.9387H11.0204ZM9.11572 19.7713H14.7384V21.4434H11.0696V23.687H14.1831V25.3591H11.0696V27.779H14.7384V29.4511H9.11572V19.7713Z" fill="black"/>
<path d="M18.9765 21.4435V23.8634H20.2838C21.1131 23.8634 21.6051 23.419 21.6051 22.6288C21.6051 21.895 21.1061 21.4364 20.2838 21.4364H18.9765V21.4435ZM17.0156 19.7714H20.1995C22.322 19.7714 23.6152 20.8649 23.6152 22.664C23.6152 24.449 22.322 25.5426 20.1995 25.5426H18.9695V29.4583H17.0156V19.7714Z" fill="black"/>
<path d="M30.9246 19.7714H32.8785V25.6696C32.8785 28.2166 31.3885 29.7405 28.9637 29.7405C26.553 29.7405 25.063 28.2166 25.063 25.6696V19.7714H27.0169V25.8319C27.0169 27.13 27.7478 27.892 28.9707 27.892C30.1726 27.892 30.9176 27.13 30.9176 25.8319V19.7714H30.9246Z" fill="black"/>
<path d="M37.2713 25.2533V27.7862H38.3747C39.2814 27.7862 39.8366 27.2994 39.8366 26.5021C39.8366 25.6978 39.2884 25.2604 38.3747 25.2604H37.2713V25.2533ZM37.2713 21.4435V23.5601H38.1006C38.8456 23.5601 39.2743 23.1861 39.2743 22.4947C39.2743 21.8456 38.8456 21.4435 38.1006 21.4435H37.2713ZM35.3104 19.7714H38.0514C40.0615 19.7714 41.2774 20.7662 41.2774 22.403C41.2774 23.1791 40.919 23.8564 40.2583 24.315C41.2774 24.7736 41.8397 25.599 41.8397 26.615C41.8397 28.3859 40.4762 29.4653 38.2552 29.4653H35.3033V19.7714H35.3104Z" fill="black"/>
<path d="M43.8427 19.7714H45.8036V27.6733H49.4723V29.4583H43.8427V19.7714Z" fill="black"/>
<path d="M53.1552 19.7714H51.1943V29.4583H53.1552V19.7714Z" fill="black"/>
<path d="M63.2549 24.6181C63.2549 22.7625 61.9617 21.3374 60.1554 21.3374C58.3351 21.3374 57.0419 22.7625 57.0419 24.6181C57.0419 26.4736 58.3351 27.8988 60.1554 27.8988C61.9617 27.8917 63.2549 26.4666 63.2549 24.6181ZM65.9678 30.1353C66.1717 30.1353 66.4528 30.1071 66.6566 30.0224V31.6804C66.3403 31.8074 66.0662 31.8568 65.6375 31.8568C64.5622 31.8568 63.5712 31.4123 62.6153 30.5798L61.4697 29.5568C61.055 29.6697 60.6122 29.7261 60.1484 29.7261C57.0981 29.7261 55.0177 27.3767 55.0177 24.604C55.0177 21.8312 57.0981 19.4818 60.1484 19.4818C63.1776 19.4818 65.265 21.8312 65.265 24.604C65.265 26.2196 64.5481 27.7012 63.3603 28.6466L63.9366 29.204C64.6887 29.8884 65.3493 30.1353 65.9678 30.1353Z" fill="black"/>
<path d="M72.8344 19.7708H74.7883V25.669C74.7883 28.2159 73.2983 29.7399 70.8735 29.7399C68.4628 29.7399 66.9728 28.2159 66.9728 25.669V19.7708H68.9337V25.8313C68.9337 27.1294 69.6646 27.8914 70.8876 27.8914C72.0894 27.8914 72.8344 27.1294 72.8344 25.8313V19.7708Z" fill="black"/>
<path d="M77.2201 19.7714H82.8427V21.4435H79.174V23.6871H82.2945V25.3592H79.174V27.7862H82.8427V29.4583H77.2201V19.7714Z" fill="black"/>
<path d="M0.0352783 33.7407H5.65793V35.4128H1.98915V37.6564H5.10972V39.3285H1.98915V43.4276H0.0352783V33.7407Z" fill="black"/>
<path d="M9.34066 35.4128V37.8328H10.4441C11.2735 37.8328 11.7514 37.3883 11.7514 36.5981C11.7514 35.8644 11.2664 35.4058 10.4441 35.4058H9.34066V35.4128ZM7.37976 33.7407H10.3317C12.4542 33.7407 13.7615 34.8343 13.7615 36.6334C13.7615 37.7975 13.1992 38.6653 12.2152 39.138L15.2445 43.4276H12.904L10.3387 39.512H9.33363V43.4276H7.37976V33.7407Z" fill="black"/>
<path d="M21.9284 39.2368L20.607 35.5963L19.2857 39.2368H21.9284ZM19.3208 33.7407H21.8862L25.5409 43.4276H23.4605L22.5398 40.9089H18.6813L17.7606 43.4276H15.6802L19.3208 33.7407Z" fill="black"/>
<path d="M27.0238 33.7407H29.5329L33.8483 40.6761V33.7407H35.8092V43.4276H33.3001L28.9847 36.4641V43.4276H27.0238V33.7407Z" fill="black"/>
<path d="M45.3327 40.535L46.879 41.7273C46.134 42.7504 44.9743 43.47 43.5686 43.6534L42.3668 45.6572H40.6308L41.8467 43.6252C39.3376 43.1807 37.6859 41.05 37.6859 38.5877C37.6859 35.8221 39.7663 33.4656 42.8166 33.4656C44.5666 33.4656 46.0004 34.2558 46.886 35.427L45.3398 36.6334C44.7915 35.8432 43.92 35.307 42.8166 35.307C40.9963 35.307 39.703 36.7322 39.703 38.5877C39.703 40.4433 40.9963 41.8684 42.8166 41.8684C43.913 41.8614 44.7845 41.3252 45.3327 40.535Z" fill="black"/>
<path d="M53.5487 39.2368L52.2274 35.5963L50.9061 39.2368H53.5487ZM50.9412 33.7407H53.5066L57.1613 43.4276H55.0809L54.1602 40.9089H50.3016L49.3809 43.4276H47.3005L50.9412 33.7407Z" fill="black"/>
<path d="M60.6124 33.7407H58.6515V43.4276H60.6124V33.7407Z" fill="black"/>
<path d="M63.8594 40.7678C64.4357 41.5157 65.2088 41.9601 65.996 41.9601C66.7691 41.9601 67.2329 41.5439 67.2329 40.8383C67.2329 39.1098 62.8192 39.4978 62.8192 36.2736C62.8192 34.7355 64.0702 33.4656 65.9046 33.4656C67.3524 33.4656 68.4699 34.1147 69.2852 35.0953L67.8514 36.3794C67.2892 35.6457 66.6496 35.173 65.9186 35.173C65.2439 35.173 64.8012 35.6174 64.8012 36.1819C64.8012 37.9104 69.2149 37.5083 69.2149 40.789C69.1868 42.5881 67.7812 43.6957 66.0171 43.6957C64.3935 43.6957 63.2901 43.1031 62.4326 42.0801L63.8594 40.7678Z" fill="black"/>
<path d="M71.2811 33.7407H76.9038V35.4128H73.235V37.6564H76.3486V39.3285H73.235V41.7485H76.9038V43.4276H71.2811V33.7407Z" fill="black"/>
<path d="M2.81832 73.3699L2.8886 73.1512C1.94681 72.9748 1.82733 72.9748 2.19983 71.9447L2.57936 70.8864H3.61955C4.09045 70.8864 4.09045 71.0769 4.02016 71.5919H4.28724L4.91276 69.8775H4.64568C4.41375 70.2797 4.23101 70.583 3.71795 70.583H2.69181L3.24002 69.0873C3.4087 68.6075 3.5071 68.5088 4.14667 68.5088H4.60351C5.26418 68.5088 5.34149 68.6852 5.34149 69.3554H5.60154L5.81941 68.1913H1.91167L1.84138 68.41C2.60044 68.5652 2.67073 68.6358 2.31228 69.6165L1.46185 71.9447C1.11044 72.9183 0.955814 72.9959 0.0913305 73.1512L0.0280762 73.3699H2.81832ZM8.23716 70.5125C8.3707 70.0539 8.30041 69.6447 7.949 69.6447C7.53433 69.6447 7.42187 69.9622 7.00017 70.8794V70.3573C7.00017 69.9833 6.88069 69.6447 6.54333 69.6447C6.14975 69.6447 5.78427 70.2655 5.51017 70.8723H5.6929C5.88267 70.5971 6.05838 70.4278 6.19894 70.4278C6.36762 70.4278 6.45899 70.6889 6.19894 71.2744L5.43286 72.9818C5.29229 73.2993 5.43988 73.511 5.74913 73.511C5.9389 73.511 6.02324 73.4616 6.10055 73.257L6.85258 71.2603C7.06343 70.9993 7.25319 70.7735 7.49918 70.5125H8.23716ZM11.674 69.4824L11.3788 69.4612L11.0485 69.7858H10.9782C9.36169 69.7858 7.97008 71.6061 7.97008 72.9254C7.97008 73.2923 8.19499 73.511 8.55343 73.511C8.9681 73.511 9.38277 72.9113 9.83961 72.2763L9.81853 72.5021C9.7623 73.1582 9.9591 73.511 10.3035 73.511C10.6971 73.511 11.0625 72.8901 11.3366 72.2834H11.1539C10.9641 72.5585 10.7884 72.7208 10.6479 72.7208C10.5003 72.7208 10.3949 72.4527 10.6479 71.8741L11.674 69.4824ZM8.694 72.4033C8.694 71.5284 9.66391 70.3431 10.2051 70.3431C10.3246 70.3431 10.437 70.3573 10.5354 70.3855L9.96613 71.8953C9.64282 72.2904 9.13678 72.7772 8.90485 72.7772C8.77834 72.7772 8.694 72.6643 8.694 72.4033ZM12.2644 70.195H12.918L11.8849 73.0312C11.7935 73.2711 11.92 73.511 12.166 73.511C12.7564 73.511 13.6982 72.9254 14.0355 72.1352H13.8528C13.5927 72.4104 13.0867 72.7843 12.658 72.8619L13.6068 70.195H14.5767L14.6962 69.7928H13.7544L14.1128 68.7698H13.7403L13.0656 69.7928L12.2644 69.9057V70.195ZM16.889 72.1423H16.6501C16.3478 72.5021 16.0175 72.7913 15.6942 72.7913C15.3639 72.7913 15.1952 72.5938 15.1952 72.1423C15.1952 71.9588 15.2163 71.7754 15.2514 71.606L17.2123 70.957C17.5919 70.0468 17.135 69.6517 16.5938 69.6517C15.6661 69.6517 14.6118 71.211 14.6118 72.5726C14.6118 73.1864 14.9 73.518 15.3569 73.518C15.884 73.511 16.4322 72.9959 16.889 72.1423ZM16.2143 70.1738C16.4744 70.1738 16.6993 70.3714 16.5798 70.8794L15.3639 71.1616C15.5818 70.5901 15.9332 70.1738 16.2143 70.1738ZM20.5578 70.5125C20.6913 70.0539 20.6211 69.6447 20.2696 69.6447C19.855 69.6447 19.7496 69.9622 19.3208 70.8794V70.3573C19.3208 69.9833 19.2013 69.6447 18.864 69.6447C18.4704 69.6447 18.1049 70.2655 17.8308 70.8723H18.0136C18.2033 70.5971 18.379 70.4278 18.5196 70.4278C18.6883 70.4278 18.7796 70.6889 18.5196 71.2744L17.7535 72.9818C17.6129 73.2993 17.7605 73.511 18.0698 73.511C18.2595 73.511 18.3439 73.4616 18.4212 73.257L19.1732 71.2603C19.3841 70.9993 19.5738 70.7735 19.8198 70.5125H20.5578ZM20.5719 72.9889C20.4313 73.3064 20.5789 73.518 20.8881 73.518C21.0779 73.518 21.1622 73.4686 21.2396 73.264L21.9916 71.2674C22.336 70.8441 23.0529 70.3855 23.334 70.3855C23.5378 70.3855 23.5097 70.5548 23.3762 70.8088L22.2235 73.0312C22.1111 73.2499 22.2587 73.511 22.5047 73.511C23.0739 73.511 23.7416 72.9959 24.0087 72.2834H23.826C23.6432 72.5444 23.327 72.8407 23.0388 72.8901L24.0298 70.8794C24.1563 70.6254 24.2196 70.3784 24.2196 70.1879C24.2196 69.8634 24.0368 69.6517 23.6995 69.6517C23.2145 69.6517 22.7155 70.2091 22.1251 70.8864V70.3643C22.1251 69.9904 22.0056 69.6517 21.6683 69.6517C21.4574 69.6517 21.2536 69.8352 21.0568 70.0962V70.1668C21.4223 70.1456 21.591 70.703 21.3239 71.2815L20.5719 72.9889ZM26.806 68.6358C27.059 68.6358 27.2699 68.4312 27.2699 68.1701C27.2699 67.9161 27.059 67.7045 26.806 67.7045C26.5459 67.7045 26.3351 67.9161 26.3351 68.1701C26.3421 68.4312 26.5459 68.6358 26.806 68.6358ZM26.6092 70.0609C26.6865 69.7999 26.5108 69.6517 26.3773 69.6517C25.808 69.6517 25.1403 70.1668 24.8732 70.8794H25.0559C25.2387 70.6183 25.5549 70.322 25.8431 70.2726L24.7607 73.1018C24.6623 73.3628 24.8591 73.511 24.9927 73.511C25.5268 73.511 26.1594 72.9889 26.4265 72.2834H26.2437C26.061 72.5444 25.7517 72.8407 25.4566 72.8901L26.6092 70.0609ZM27.4877 70.195H28.1414L27.1082 73.0312C27.0168 73.2711 27.1433 73.511 27.3893 73.511C27.9797 73.511 28.9285 72.9254 29.2589 72.1352H29.0761C28.8161 72.4104 28.3101 72.7843 27.8813 72.8619L28.8301 70.195H29.8001L29.9195 69.7928H28.9707L29.3292 68.7698H28.9567L28.2819 69.7928L27.4807 69.9057V70.195H27.4877ZM31.7188 69.2849L33.0963 67.9937V67.8456H32.3513L31.5009 69.2849H31.7188ZM32.1053 72.1423H31.8664C31.5642 72.5021 31.2338 72.7913 30.9105 72.7913C30.5802 72.7913 30.4045 72.5938 30.4045 72.1423C30.4045 71.9588 30.4256 71.7754 30.4607 71.606L32.4216 70.957C32.8011 70.0468 32.3443 69.6517 31.8031 69.6517C30.8754 69.6517 29.8211 71.211 29.8211 72.5726C29.8211 73.1864 30.1093 73.518 30.5661 73.518C31.1003 73.511 31.6555 72.9959 32.1053 72.1423ZM31.4306 70.1738C31.6907 70.1738 31.9156 70.3714 31.7961 70.8794L30.5802 71.1616C30.7981 70.5901 31.1495 70.1738 31.4306 70.1738Z" fill="black"/>
<path d="M4.21695 58.9563L5.59451 58.0039V57.8557H4.75814L3.99205 58.9563H4.21695ZM3.64766 61.9337C4.11856 61.9337 4.11856 62.1242 4.04828 62.6392H4.31535L4.94087 60.9248H4.6738C4.44186 61.3269 4.25912 61.6303 3.74606 61.6303H2.71992L3.23299 60.2051C3.40167 59.7324 3.50007 59.6336 4.13964 59.6336H4.58946C5.25012 59.6336 5.32743 59.81 5.32743 60.4732H5.58748L5.80536 59.3091H1.91167L1.84138 59.5278C2.60044 59.683 2.67072 59.7536 2.31228 60.7343L1.46185 63.0625C1.11044 64.0362 0.955814 64.1138 0.0913305 64.269L0.0280762 64.4877H4.37158L5.15172 63.253H4.85653C4.36455 63.7257 3.73903 64.1702 2.86752 64.1702C1.71487 64.1702 1.8203 64.1208 2.19983 63.0625L2.60747 61.9337H3.64766ZM8.5956 64.9745C8.5956 64.523 8.19499 64.3536 7.53432 64.1561C6.96503 63.9868 6.71201 63.9374 6.71201 63.7539C6.71201 63.6058 6.83149 63.4294 7.07045 63.3024C7.99819 63.253 8.5956 62.4134 8.5956 61.715C8.5956 61.5668 8.56749 61.4398 8.51829 61.3269H9.30546L9.42494 60.9248H8.18093C8.03333 60.8331 7.85763 60.7837 7.68192 60.7837C6.69795 60.7837 6.05838 61.6515 6.05838 62.3499C6.05838 62.8861 6.39573 63.2177 6.81041 63.2954C6.35356 63.5 6.09352 63.7398 6.09352 64.0291C6.09352 64.1914 6.14974 64.3043 6.28328 64.4101C5.22201 64.7205 4.80733 65.0803 4.80733 65.5813C4.80733 66.0681 5.45394 66.2797 6.213 66.2797C7.51324 66.2656 8.5956 65.5672 8.5956 64.9745ZM7.06343 63.0272C6.83149 63.0272 6.74012 62.8297 6.74012 62.6039C6.74012 61.969 7.07748 61.0447 7.61163 61.0447C7.84357 61.0447 7.93494 61.2423 7.93494 61.468C7.92791 62.0959 7.59055 63.0272 7.06343 63.0272ZM5.59451 65.3202C5.59451 64.9463 5.95295 64.7064 6.47305 64.5018C6.64173 64.5865 6.89475 64.6782 7.23913 64.7911C7.77329 64.9675 7.98414 65.038 7.98414 65.2003C7.98414 65.546 7.40078 65.8141 6.59956 65.8141C5.92484 65.8212 5.59451 65.68 5.59451 65.3202ZM12.7985 60.6073L12.5033 60.5861L12.173 60.9107H12.1027C10.4862 60.9107 9.09461 62.7309 9.09461 64.0503C9.09461 64.4171 9.31952 64.6359 9.67796 64.6359C10.0926 64.6359 10.5073 64.0362 10.9641 63.4012L10.9431 63.627C10.8868 64.2831 11.0836 64.6359 11.421 64.6359C11.8146 64.6359 12.18 64.015 12.4541 63.4082H12.2714C12.0816 63.6834 11.9059 63.8457 11.7583 63.8457C11.6107 63.8457 11.5053 63.5776 11.7583 62.999L12.7985 60.6073ZM9.81853 63.5282C9.81853 62.6533 10.7884 61.468 11.3296 61.468C11.4491 61.468 11.5616 61.4821 11.6599 61.5104L11.0907 63.0202C10.7674 63.4153 10.2613 63.9021 10.0294 63.9021C9.90287 63.9021 9.81853 63.7892 9.81853 63.5282ZM13.5717 64.0079L15.5466 58.8152L15.4763 58.7376L14.2393 58.8787V59.0269L14.4783 59.2103C14.6962 59.3797 14.6259 59.5419 14.4291 60.0711L12.8899 64.149C12.7774 64.3678 12.925 64.6288 13.171 64.6288C13.7333 64.6288 14.3377 64.1208 14.6048 63.4012H14.4221C14.2393 63.6693 13.8598 63.9586 13.5717 64.0079ZM17.3318 59.7606C17.5848 59.7606 17.7957 59.556 17.7957 59.2879C17.7957 59.0339 17.5848 58.8223 17.3318 58.8223C17.0718 58.8223 16.8609 59.0339 16.8609 59.2879C16.8679 59.556 17.0718 59.7606 17.3318 59.7606ZM17.135 61.1788C17.2123 60.9177 17.0366 60.7696 16.9031 60.7696C16.3338 60.7696 15.6661 61.2775 15.399 61.9972H15.5818C15.7645 61.7361 16.0808 61.4398 16.3689 61.3904L15.2866 64.2196C15.1882 64.4806 15.385 64.6288 15.5185 64.6288C16.0526 64.6288 16.6852 64.1067 16.9523 63.4012H16.7695C16.5868 63.6622 16.2776 63.9586 15.9824 64.0079L17.135 61.1788ZM18.0135 61.3199H18.6672L17.634 64.1561C17.5427 64.396 17.6692 64.6359 17.9152 64.6359C18.5055 64.6359 19.4473 64.0503 19.7847 63.2601H19.6019C19.3419 63.5352 18.8359 63.9092 18.4071 63.9868L19.356 61.3199H20.3259L20.4453 60.9177H19.5036L19.862 59.8947H19.4825L18.8078 60.9177L18.0065 61.0306V61.3199H18.0135ZM22.2446 60.4097L23.6222 59.1186V58.9704H22.8771L22.0267 60.4097H22.2446ZM22.6312 63.2601H22.3922C22.09 63.6199 21.7596 63.9092 21.4363 63.9092C21.106 63.9092 20.9303 63.7116 20.9303 63.2601C20.9303 63.0766 20.9514 62.8932 20.9865 62.7239L22.9474 62.0748C23.327 61.1646 22.8701 60.7696 22.3289 60.7696C21.4012 60.7696 20.347 62.3288 20.347 63.6904C20.347 64.3043 20.6351 64.6359 21.092 64.6359C21.6261 64.6359 22.1813 64.1138 22.6312 63.2601ZM21.9635 61.2987C22.2235 61.2987 22.4484 61.4962 22.3289 62.0042L21.113 62.2864C21.3239 61.715 21.6753 61.2987 21.9635 61.2987Z" fill="black"/>
<path d="M4.46997 50.4263H1.89761L1.82733 50.6451C2.58638 50.8003 2.65667 50.8708 2.29822 51.8515L1.46185 54.1797C1.11044 55.1534 0.962842 55.231 0.0913305 55.3862L0.0280762 55.6049H3.94988L4.8003 54.088H4.50511C4.02016 54.6172 3.4579 55.2874 2.58638 55.2874C1.92572 55.2874 1.84841 55.1745 2.20686 54.1797L3.04322 51.8515C3.38761 50.8779 3.54926 50.8003 4.41375 50.6451L4.46997 50.4263ZM7.32347 50.8849C7.57649 50.8849 7.79437 50.6803 7.79437 50.4193C7.79437 50.1653 7.58352 49.9536 7.32347 49.9536C7.06342 49.9536 6.8596 50.1653 6.8596 50.4193C6.85257 50.6803 7.06342 50.8849 7.32347 50.8849ZM7.12668 52.303C7.20399 52.042 7.02828 51.8938 6.89474 51.8938C6.33248 51.8938 5.65776 52.4089 5.39068 53.1215H5.57342C5.75616 52.8604 6.0654 52.5641 6.36059 52.5147L5.27823 55.3439C5.17983 55.6049 5.37663 55.7531 5.51016 55.7531C6.04432 55.7531 6.67687 55.231 6.94394 54.5255H6.76121C6.57847 54.7865 6.26922 55.0828 5.97403 55.1252L7.12668 52.303ZM10.9712 52.677C10.9712 52.0984 10.7603 51.8868 10.3667 51.8868C9.87475 51.8868 9.40385 52.4089 8.93999 53.0509L10.1207 49.9325L10.0575 49.8549L8.8205 49.996V50.1441L9.05947 50.3276C9.27734 50.4969 9.20706 50.6733 9.01027 51.1883L7.73814 54.4831C7.64677 54.723 7.53432 55.0123 7.53432 55.0899C7.53432 55.4285 7.99116 55.7531 8.41286 55.7531C9.36871 55.7531 10.9712 54.0175 10.9712 52.677ZM8.74319 55.1816C8.55343 55.1816 8.27932 55.0052 8.27932 54.85C8.27932 54.8006 8.36366 54.5819 8.46909 54.2997L8.78536 53.4531C9.12272 53.0509 9.64282 52.6135 9.93098 52.6135C10.1067 52.6135 10.2402 52.7264 10.2402 52.9874C10.2473 53.7705 9.52334 55.1816 8.74319 55.1816ZM13.5506 54.3843H13.3116C13.0094 54.7442 12.6791 55.0334 12.3557 55.0334C12.0254 55.0334 11.8567 54.8359 11.8567 54.3843C11.8567 54.2009 11.8778 54.0175 11.913 53.8482L13.8739 53.1991C14.2534 52.2889 13.7966 51.8938 13.2624 51.8938C12.3347 51.8938 11.2804 53.4531 11.2804 54.8147C11.2804 55.4285 11.5686 55.7601 12.0254 55.7601C12.5455 55.7531 13.0937 55.238 13.5506 54.3843ZM12.8758 52.4159C13.1359 52.4159 13.3608 52.6135 13.2413 53.1215L12.0254 53.4037C12.2363 52.8392 12.5947 52.4159 12.8758 52.4159ZM17.2193 52.7616C17.3529 52.303 17.2826 51.8938 16.9312 51.8938C16.5165 51.8938 16.4111 52.2113 15.9824 53.1285V52.6064C15.9824 52.2325 15.8629 51.8938 15.5255 51.8938C15.1319 51.8938 14.7665 52.5147 14.4924 53.1215H14.6751C14.8649 52.8463 15.0406 52.677 15.1811 52.677C15.3498 52.677 15.4412 52.938 15.1811 53.5236L14.415 55.231C14.2745 55.5485 14.4221 55.7531 14.7313 55.7531C14.9211 55.7531 15.0054 55.7037 15.0827 55.4991L15.8348 53.5024C16.0456 53.2414 16.2354 53.0156 16.4814 52.7546H17.2193V52.7616ZM17.7324 52.4371H18.2525L17.2193 55.2733C17.128 55.5132 17.2545 55.7531 17.5005 55.7531C18.0909 55.7531 19.0397 55.1745 19.37 54.3773H19.1873C18.9272 54.6525 18.4212 55.0264 17.9925 55.104L18.9413 52.4371H19.9112L20.0307 52.0349H19.0889L19.4473 51.0119H19.0748L18.4001 52.0349L17.7324 52.1478V52.4371ZM21.7807 51.527L23.1583 50.2358V50.0877H22.4133L21.5628 51.527H21.7807ZM22.1743 54.3843H21.9353C21.6331 54.7442 21.3028 55.0334 20.9795 55.0334C20.6492 55.0334 20.4735 54.8359 20.4735 54.3843C20.4735 54.2009 20.4945 54.0175 20.5297 53.8482L22.4906 53.1991C22.8701 52.2889 22.4133 51.8938 21.8721 51.8938C20.9444 51.8938 19.8901 53.4531 19.8901 54.8147C19.8901 55.4285 20.1783 55.7601 20.6351 55.7601C21.1693 55.7531 21.7175 55.238 22.1743 54.3843ZM21.4996 52.4159C21.7596 52.4159 21.9845 52.6135 21.8651 53.1215L20.6492 53.4037C20.867 52.8392 21.2185 52.4159 21.4996 52.4159Z" fill="black"/>
<path d="M10.3387 9.69559C10.3105 9.67442 10.4089 9.69559 10.4371 9.6462H10.2403C10.2192 9.6462 10.2192 9.62504 10.2192 9.59681C10.0997 9.62504 9.9521 9.66737 9.83262 9.69559C9.66394 9.74498 9.51635 9.86491 9.32658 9.9143C9.05951 10.0131 8.84163 10.2318 8.55347 10.3306C8.53238 10.3306 8.53238 10.3023 8.53238 10.2812C8.55347 10.2106 8.65187 10.1824 8.70106 10.1119C8.70106 10.0907 8.70106 10.0625 8.67998 10.0625C8.86974 9.79436 9.13682 9.6462 9.38281 9.42749V9.35693C9.45309 9.25816 9.57258 9.20877 9.62177 9.08883C9.64286 9.01828 9.74125 8.91951 9.86074 8.87012C9.83965 8.8419 9.79045 8.8419 9.79045 8.79957C9.69206 8.79957 9.60069 8.84895 9.50229 8.7784C9.54446 8.73607 9.60069 8.70785 9.65691 8.69374C9.63583 8.68668 9.61475 8.67963 9.60069 8.65846C9.5796 8.60907 9.64989 8.55263 9.72017 8.53852C9.81857 8.51735 9.93805 8.51735 10.0083 8.43974C9.83965 8.41858 9.64286 8.48913 9.47418 8.39036C9.59366 8.07287 9.79045 7.80477 10.0786 7.66366C10.0997 7.66366 10.1489 7.66366 10.1489 7.68483C10.1489 7.80477 10.0786 7.90354 9.9521 7.93176C10.1489 7.98115 10.3387 7.98115 10.5355 8.07993C10.5144 8.12931 10.4652 8.10109 10.4371 8.10109C10.5565 8.17164 10.7041 8.12931 10.8236 8.22103C10.7533 8.29158 10.676 8.22103 10.6057 8.22103C11.3578 8.43975 12.152 8.60907 12.7845 9.09589C12.2504 9.36399 11.6951 9.48393 11.1118 9.60387C11.0415 9.60387 10.9923 9.60387 10.922 9.5827C10.922 9.60387 10.922 9.65326 10.9009 9.65326C10.8025 9.65326 10.7322 9.65326 10.662 9.70264C10.5565 9.74498 10.4089 9.76614 10.3387 9.69559ZM9.83965 11.3818C9.83965 11.3889 9.83965 11.3889 9.83965 11.3818C9.74125 11.4524 9.64989 11.5159 9.55852 11.5723C9.45309 11.6287 9.34767 11.6781 9.24224 11.7275C9.24224 11.7275 9.24224 11.7205 9.23522 11.7205C9.22819 11.7063 9.21413 11.6993 9.19305 11.7134C9.10168 11.7628 9.02437 11.8263 8.94705 11.8968C8.933 11.911 8.92597 11.918 8.91191 11.9321C8.89786 11.9462 8.89083 11.9533 8.87677 11.9674C8.87677 11.9674 8.87677 11.9674 8.86974 11.9744C8.85569 11.9886 8.8346 12.0097 8.81352 12.0309C8.79946 12.045 8.79946 12.0521 8.77837 12.0662C8.76432 12.0732 8.72215 12.0732 8.72918 12.045V12.0379C8.71512 12.045 8.70106 12.0521 8.68701 12.0591C8.67295 12.0662 8.65889 12.0732 8.65187 12.0803C8.64484 12.0803 8.63781 12.0803 8.63781 12.0803C8.63078 12.0803 8.62375 12.0803 8.62375 12.0873C8.59564 12.1085 8.56753 12.1367 8.53238 12.1649C8.48319 12.2073 8.43399 12.2637 8.39182 12.3131L8.38479 12.3202L8.37776 12.3272L8.37073 12.3343C8.3637 12.3413 8.3637 12.3484 8.35668 12.3554C8.35668 12.3625 8.34965 12.3625 8.33559 12.3625C8.33559 12.3554 8.32856 12.3554 8.32856 12.3484C8.32856 12.3484 8.32153 12.3413 8.32153 12.3343C8.31451 12.3202 8.30748 12.306 8.30045 12.2919C8.30045 12.2849 8.30045 12.2849 8.29342 12.2778C8.32153 12.2496 8.34262 12.2214 8.37073 12.1932L8.37776 12.1861C8.38479 12.1791 8.39182 12.1649 8.40587 12.1579C8.41993 12.1367 8.43399 12.1226 8.44804 12.1085C8.45507 12.1014 8.45507 12.0944 8.4621 12.0873C8.49021 12.0521 8.5113 12.0168 8.53941 11.9815C8.54644 11.9744 8.54644 11.9744 8.54644 11.9674C8.5605 11.9533 8.56753 11.9321 8.58158 11.918C8.58861 11.9039 8.60267 11.8827 8.60969 11.8686V11.8616C8.60969 11.8616 8.60969 11.8545 8.61672 11.8545C8.62375 11.8333 8.63078 11.8192 8.63781 11.7981V11.791C8.63781 11.784 8.63781 11.784 8.64484 11.7769C8.64484 11.7698 8.65187 11.7557 8.65187 11.7487V11.7416C8.65187 11.7275 8.65889 11.7205 8.65889 11.7063C8.65889 11.6993 8.65889 11.6922 8.65889 11.6922C8.68701 11.6428 8.71512 11.6005 8.75729 11.5582C8.75026 11.5582 8.75026 11.5652 8.74323 11.5652C8.70809 11.5864 8.68701 11.6217 8.65187 11.6428C8.62375 11.664 8.57455 11.6287 8.60969 11.6076C8.63078 11.5935 8.64484 11.5723 8.66592 11.5582C8.66592 11.5582 8.66592 11.5582 8.66592 11.5511C8.70809 11.5088 8.74323 11.4594 8.7854 11.4241C8.81352 11.403 8.8346 11.3889 8.86271 11.3677C8.86974 11.3677 8.86974 11.3606 8.87677 11.3606C8.89083 11.3395 8.91191 11.3183 8.933 11.2971C9.16493 11.0714 9.55852 11.0855 9.86074 10.9373C9.98022 10.8879 10.1278 10.9655 10.2473 10.9373C10.3176 10.9373 10.3949 10.9373 10.4652 10.9867C10.2403 11.1278 10.0364 11.2619 9.83965 11.3818ZM10.2754 11.5864C10.2614 11.6146 10.2403 11.6358 10.2192 11.657C10.2473 11.664 10.2684 11.6781 10.2543 11.6922C10.1981 11.7416 10.1419 11.7981 10.0716 11.8192C10.0646 11.8192 10.0505 11.8263 10.0364 11.8263C10.0083 11.8545 9.98022 11.8827 9.94508 11.911C9.91696 11.9392 9.78342 11.918 9.82559 11.8827C9.88885 11.8263 9.94508 11.7698 10.0013 11.7134C10.0364 11.6852 10.0716 11.6499 10.0997 11.6146C10.1138 11.5935 10.1278 11.5723 10.1489 11.5582C10.163 11.5511 10.2965 11.537 10.2754 11.5864ZM9.15088 7.94588C9.12979 7.99526 9.10168 8.00232 9.08059 8.04465C9.05951 8.09404 9.03139 8.1152 8.9822 8.14342C8.96111 8.14342 8.933 8.14342 8.933 8.12226C8.95408 8.02348 9.03139 7.92471 9.12276 7.90354C9.15088 7.89649 9.15088 7.91765 9.15088 7.94588ZM7.14078 9.54743C7.14078 9.54743 7.11969 9.52626 7.11969 9.49804C7.43597 9.08883 7.67493 8.69374 7.89281 8.25631C8.20908 8.08698 8.46913 7.84005 8.71512 7.579C9.12276 7.14157 9.55852 6.75353 10.0716 6.50659C10.2684 6.43604 10.5073 6.45721 10.7041 6.52776C10.6339 6.62653 10.5073 6.59831 10.416 6.67592C10.3949 6.67592 10.3668 6.67592 10.3457 6.65476C10.3668 6.63359 10.3668 6.60537 10.3668 6.5842C10.1278 6.8523 9.78342 6.97224 9.59366 7.28973C9.44606 7.52961 9.3547 7.8471 9.03842 7.92471C8.94003 7.94587 9.05951 7.85416 9.01734 7.87532C8.25125 8.33392 7.72413 8.89128 7.14078 9.54743ZM10.8447 10.0836C10.7955 10.0836 10.6971 10.1048 10.7252 10.0625C10.7463 9.94252 10.922 9.94252 11.0134 9.89314C11.0626 9.87197 11.1329 9.82258 11.1821 9.84375C11.2313 9.9143 11.3015 9.89314 11.3507 9.94252C11.2102 10.0836 11.0134 10.0131 10.8447 10.0836ZM14.5697 11.8263C14.7103 11.6852 14.8438 11.537 14.9844 11.3889C15.2444 11.0996 15.4904 10.8174 15.7926 10.5634C15.884 10.4787 15.9754 10.4082 16.0597 10.3517C16.0808 10.3306 16.0808 10.2812 16.1089 10.253C15.9894 10.3023 15.9121 10.4011 15.7926 10.4505C15.7716 10.4505 15.7434 10.4293 15.7716 10.4011C15.8559 10.3376 15.9402 10.2741 16.0316 10.2036C16.0246 10.2036 16.0175 10.2036 16.0175 10.2036C15.9965 10.2036 15.9965 10.1824 15.9965 10.1542C15.6802 10.1048 15.4412 10.3235 15.2233 10.5211C15.1741 10.5493 15.125 10.4999 15.1039 10.4999C14.7384 10.6198 14.4713 10.9373 14.1129 11.0855V11.0361C13.9653 11.0855 13.8247 11.1701 13.6771 11.2054C13.4592 11.2548 13.2695 11.2266 13.0727 11.2266C12.7775 11.2548 12.4823 11.3183 12.1941 11.3818C12.1871 11.3818 12.1801 11.3889 12.166 11.3889C12.0114 11.4312 11.8638 11.4947 11.7162 11.5723C11.7092 11.5723 11.7022 11.5794 11.7022 11.5794C11.6881 11.5935 11.6811 11.6076 11.667 11.6217C11.6178 11.6781 11.5686 11.7346 11.4983 11.7698C11.3507 11.8475 11.2242 11.9815 11.0977 12.0873C11.0907 12.0944 11.0766 12.1014 11.0556 12.1014C10.929 12.2284 10.7955 12.3554 10.662 12.4754C10.6549 12.4824 10.6128 12.4895 10.5917 12.4824C10.5987 12.4754 10.5987 12.4683 10.6057 12.4613C10.6268 12.426 10.6479 12.3907 10.669 12.3554C10.6901 12.3202 10.7182 12.2778 10.7393 12.2426C10.7744 12.1932 10.8025 12.1438 10.8447 12.0944C10.8517 12.0803 10.8517 12.0732 10.8447 12.0662C10.8377 12.0591 10.8236 12.0521 10.8096 12.0521C10.929 11.9321 11.0766 11.8333 11.2172 11.7487C11.2172 11.7487 11.2172 11.7487 11.2172 11.7416C11.2031 11.7487 11.175 11.7346 11.1891 11.7205C11.2031 11.6993 11.2172 11.6781 11.2313 11.657C11.2313 11.6499 11.2383 11.6428 11.2383 11.6358C11.2313 11.6287 11.2242 11.6217 11.2172 11.6146C11.175 11.6428 11.1399 11.664 11.1047 11.6922C11.0485 11.7416 10.9993 11.8545 10.915 11.8545C10.908 11.8545 10.8939 11.8545 10.8798 11.8475C10.8658 11.8475 10.8588 11.8404 10.8517 11.8404C10.8517 11.8404 10.8517 11.8404 10.8517 11.8333C10.8517 11.8333 10.8517 11.8263 10.8588 11.8263V11.8192C10.8658 11.8122 10.8658 11.8051 10.8728 11.7981C10.8798 11.791 10.8798 11.784 10.8869 11.7769C10.8869 11.7698 10.8939 11.7628 10.8939 11.7628C10.9009 11.7557 10.908 11.7416 10.908 11.7346C10.915 11.7275 10.915 11.7205 10.922 11.7134C10.929 11.6922 10.9431 11.6781 10.9501 11.657C10.9572 11.6499 10.9572 11.6428 10.9642 11.6287C10.9712 11.6146 10.9782 11.6005 10.9923 11.5864C11.0064 11.5652 10.9923 11.5511 10.9712 11.5441C11.0134 11.4876 11.0696 11.4382 11.1399 11.3959H11.1188C11.2102 11.3465 11.3015 11.2901 11.3999 11.2407C11.414 11.2266 11.4281 11.2195 11.4421 11.2054C11.3015 11.2548 11.1821 11.3113 11.0556 11.3959C11.0556 11.3959 11.0204 11.41 11.0134 11.4171C11.0134 11.4171 10.9853 11.4241 10.9501 11.3959C10.9501 11.3889 10.9431 11.3889 10.9431 11.3747C10.9642 11.3254 11.0415 11.3042 11.0907 11.2548C11.1118 11.2548 11.1399 11.2548 11.1399 11.276C11.913 10.6692 12.9813 10.8174 13.8739 10.4999C13.9442 10.4505 14.0215 10.4011 14.0918 10.3517C14.2113 10.3023 14.3097 10.1824 14.4573 10.1119C14.6541 9.96369 14.7946 9.79436 14.8719 9.55448C14.8719 9.53332 14.8508 9.50509 14.8508 9.50509C14.5346 9.84375 14.1691 10.1119 13.7825 10.3094C13.2765 10.5775 12.7142 10.5281 12.1871 10.5987C12.2082 10.5493 12.2574 10.5493 12.3066 10.5493C12.3066 10.4787 12.3558 10.4505 12.405 10.4011H12.4753C12.5034 10.4011 12.5034 10.3517 12.5245 10.3517C12.5737 10.3517 12.644 10.3306 12.6229 10.3306C12.5526 10.2318 12.405 10.4011 12.2855 10.3306C12.3347 10.2812 12.3066 10.2106 12.3558 10.1824H12.4542C12.4542 10.133 12.5034 10.0836 12.5034 10.0836C12.8689 9.86491 13.2062 9.69559 13.5436 9.49804C13.4733 9.49804 13.4241 9.56859 13.3538 9.52626C13.403 9.52626 13.3538 9.45571 13.403 9.45571C13.6701 9.38515 13.888 9.23699 14.155 9.13822C14.0566 9.13822 13.9864 9.20877 13.888 9.13822C13.9372 9.11705 13.9582 9.06767 14.0356 9.06767V8.99006C14.0356 8.96889 14.0637 8.96889 14.0848 8.96889C14.0637 8.96889 14.0356 8.94773 14.0356 8.94773C14.0637 8.89834 14.134 8.92656 14.1832 8.87717C14.1621 8.87717 14.1129 8.87717 14.1129 8.84895C14.1832 8.75018 14.3097 8.72901 14.4291 8.70079C14.4081 8.6514 14.3307 8.70079 14.3307 8.6514C14.3307 8.63024 14.3518 8.63024 14.3799 8.63024H14.3307C14.2816 8.60907 14.3097 8.55969 14.3097 8.53146C14.4573 8.36214 14.4573 8.14342 14.5275 7.94588C14.5065 7.94588 14.4783 7.94587 14.4783 7.92471C14.2394 8.19281 13.8458 8.29158 13.4873 8.3833H13.3679C13.2484 8.43269 13.0797 8.43269 12.9532 8.36214C12.8548 8.31275 12.8056 8.2422 12.7142 8.16459C12.5245 8.04465 12.3277 7.94588 12.1098 7.87532C11.5054 7.67777 10.8728 7.58605 10.2473 7.60722C10.5144 7.45906 10.8096 7.452 11.0977 7.36734C11.5124 7.2474 11.899 7.09924 12.3347 7.12041C12.2644 7.09924 12.166 7.12041 12.0957 7.12041C11.7584 7.09924 11.414 7.19096 11.0556 7.26857C10.8166 7.31795 10.5987 7.41673 10.3527 7.46611C10.2051 7.5155 10.1348 7.66366 9.96616 7.63544V7.56489C10.2051 7.27562 10.5003 6.9793 10.8869 6.95813C11.3226 6.88758 11.7373 6.95813 12.1731 7.00752C12.4893 7.02869 12.7775 7.1063 13.0938 7.17685C13.2132 7.17685 13.2414 7.3744 13.3327 7.39556C13.4803 7.44495 13.6209 7.39556 13.7685 7.49434C13.7685 7.44495 13.7474 7.39556 13.7685 7.34618C13.8669 7.2474 13.9864 7.3744 14.0848 7.32501C14.2745 7.20507 13.9161 6.98635 13.8177 6.81703C13.8177 6.79586 13.8388 6.76764 13.8388 6.76764C14.0356 6.93697 14.1761 7.13452 14.4221 7.25446C14.5416 7.30384 14.8368 7.3744 14.7876 7.23329C14.6681 6.96519 14.4221 6.74647 14.2324 6.50659V6.40782C14.1832 6.40782 14.1832 6.3796 14.1621 6.35843V6.25966C14.0637 6.21027 14.0918 6.1115 14.0426 6.04095C13.9723 5.92101 14.0215 5.75168 13.9723 5.60352C13.9231 5.45536 13.902 5.33542 13.8739 5.18725C13.8036 4.77099 13.7052 4.41117 13.656 4.02313C13.6068 3.56454 13.9231 3.19766 14.141 2.7814C14.3097 2.49213 14.5065 2.19581 14.8157 2.00532C14.886 1.71605 15.0828 1.46911 15.2796 1.22923C15.4693 0.989354 15.7926 0.848248 16.0246 0.742419C16.3619 0.587202 16.6712 0.495483 16.6712 0.495483H0V13.3573H11.7654C12.2293 13.0257 12.6861 12.8634 13.3327 12.5459C13.6349 12.3837 14.3307 12.0591 14.5697 11.8263Z" fill="#273375"/>
<path d="M35.24 0.481934H21.4504C21.4504 0.481934 21.4785 0.488989 21.584 0.545431C21.6964 0.608929 21.837 0.686537 21.9284 0.728869C22.1041 0.820588 22.2798 0.940528 22.3922 1.11691C22.4414 1.18746 22.5117 1.33562 22.4625 1.4344C22.4133 1.55434 22.3922 1.75189 22.2657 1.80127C22.1181 1.87183 21.9284 1.87183 21.7597 1.85066C21.6613 1.85066 21.5629 1.8295 21.4715 1.80127C21.837 1.94944 22.1743 2.11876 22.4133 2.45742C22.4344 2.5068 22.5328 2.52797 22.6312 2.52797C22.6523 2.52797 22.6523 2.57736 22.6523 2.59852C22.6031 2.64791 22.5539 2.66908 22.582 2.74668H22.6523C22.7718 2.6973 22.7507 2.45742 22.9193 2.52797C23.0388 2.59852 23.088 2.76785 23.0177 2.89485C22.9193 2.99362 22.828 3.06417 22.7296 3.13473C22.7085 3.18411 22.7085 3.25467 22.7296 3.30405C22.7999 3.40283 22.828 3.5016 22.8491 3.59332C22.9193 3.76265 22.9475 3.9602 23.0177 4.12952C23.1161 4.4964 23.2145 4.85622 23.1864 5.22309C23.1864 5.42064 23.088 5.58997 23.1653 5.78046C23.2145 5.97801 23.334 6.11912 23.4324 6.28844C23.5308 6.4366 23.6292 6.52832 23.6995 6.67649C23.8471 6.91637 24.1071 7.1633 23.9877 7.45257C23.9174 7.62189 23.6503 7.60073 23.4816 7.6995C23.334 7.81944 23.4605 8.01699 23.5308 8.13693C23.6503 8.35565 23.3832 8.50381 23.2145 8.57436C23.2637 8.64491 23.3621 8.62375 23.3832 8.67313C23.4043 8.79307 23.5308 8.87068 23.4535 8.99062C23.3551 9.13878 23.0669 9.20934 23.2145 9.42805C23.3129 9.59738 23.2497 9.78787 23.1935 9.96425C23.1232 10.183 22.9264 10.2817 22.7577 10.3311C22.6101 10.3805 22.4414 10.3805 22.3009 10.3523C22.2517 10.3311 22.2025 10.3029 22.1533 10.3029C21.7386 10.2535 21.3309 10.1336 20.9163 10.1336C20.7968 10.1547 20.6703 10.183 20.5789 10.2324C20.4665 10.31 20.3751 10.4017 20.2837 10.4934C20.2626 10.5146 20.2486 10.5357 20.2275 10.5498C20.2205 10.564 20.2064 10.5781 20.1994 10.5851C20.1924 10.5922 20.1853 10.5992 20.1783 10.6133C20.108 10.7051 20.0448 10.7968 19.9885 10.8956C19.9815 10.9026 19.9815 10.9097 19.9745 10.9167C19.9675 10.9308 19.9604 10.9379 19.9534 10.952C19.8761 11.1002 19.8128 11.2483 19.7707 11.3965C19.609 11.9538 19.6793 12.4336 19.7917 12.5465C19.8269 12.5747 20.593 12.8146 21.1271 13.0545C21.3801 13.1674 21.5559 13.252 21.6964 13.3437H35.233V0.481934H35.24Z" fill="#E30613"/>
<path d="M22.3361 5.22316C22.4415 5.25138 22.5961 5.25138 22.5961 5.31488C22.5469 5.55476 22.2306 5.6112 22.076 5.85108H21.9987C21.9214 5.90752 21.9495 6.05568 21.8722 6.05568C21.7949 6.02746 21.7176 6.05568 21.6403 6.08391C21.7457 6.20385 21.8722 6.28851 22.0268 6.26029C22.0549 6.26029 22.1041 6.31673 22.1041 6.38023C22.1041 6.38023 22.1322 6.38023 22.1533 6.35201C22.1814 6.35201 22.2025 6.35201 22.2025 6.38023V6.50017C22.1252 6.62011 21.9987 6.55661 21.8933 6.59189C22.1041 6.64833 22.3079 6.64833 22.4907 6.59189C22.6453 6.53545 22.4907 6.23207 22.5961 6.08391C22.5469 6.08391 22.5961 5.99219 22.5469 5.99219C22.5961 5.93574 22.6523 5.84403 22.7015 5.8158C22.7507 5.8158 22.828 5.78758 22.8562 5.72409C22.8562 5.66764 22.7507 5.63237 22.7788 5.57592C22.9335 5.45598 23.067 5.2796 23.0108 5.10322C22.9827 5.0115 22.7788 5.0115 22.6453 4.95506C22.5188 4.89862 22.3642 4.95506 22.2025 4.98328C22.069 4.98328 21.9425 5.075 21.816 5.10322C21.6332 5.15966 21.4786 5.2796 21.324 5.39954C21.5067 5.30782 21.6894 5.2796 21.8933 5.22316C22.0549 5.22316 22.1885 5.18083 22.3361 5.22316Z" fill="#9D9D9C"/>
</svg>
